<svg width="218" height="42" viewBox="0 0 218 42" fill="red" xmlns="http://www.w3.org/2000/svg">
<path d="M62.9676 13.6413H46.3579H44.2934H42.1221C41.6463 11.371 39.63 9.65784 37.2171 9.64411C36.7352 7.21119 34.5791 5.37085 31.9998 5.37085C29.4205 5.37085 27.2644 7.21133 26.7825 9.64411C24.3696 9.65797 22.3533 11.371 21.8775 13.6413H19.7065H17.6419H1.03226C0.462175 13.6413 0 14.1021 0 14.6705C0 22.1528 6.1049 28.2402 13.609 28.2402H17.6805C18.093 34.0201 21.9535 39.0007 27.5499 40.8238C27.6565 40.8584 27.7645 40.875 27.8708 40.875C28.3053 40.875 28.7095 40.5993 28.8518 40.165C29.0288 39.6246 28.733 39.0435 28.1912 38.8671C23.4464 37.3215 20.1579 33.1263 19.7499 28.2403H21.8229C22.342 33.3827 26.708 37.4104 31.9999 37.4104C37.2918 37.4104 41.6577 33.3827 42.177 28.2403H44.2499C43.842 33.1263 40.5535 37.3215 35.8087 38.8671C35.2668 39.0437 34.971 39.6247 35.148 40.165C35.2903 40.5993 35.6946 40.875 36.1291 40.875C36.2352 40.875 36.3434 40.8585 36.4499 40.8238C42.0465 39.0007 45.9069 34.0201 46.3195 28.2402H50.391C57.895 28.2402 64 22.1529 64 14.6705C63.9999 14.1021 63.5377 13.6413 62.9676 13.6413ZM26.8121 11.7025H27.7144H32.1566C32.7266 11.7025 33.1888 11.2417 33.1888 10.6732C33.1888 10.1048 32.7266 9.64397 32.1566 9.64397H28.9155C29.3481 8.35848 30.567 7.42926 32.0001 7.42926C33.794 7.42926 35.2533 8.88451 35.2533 10.6732C35.2533 11.2417 35.7155 11.7025 36.2856 11.7025H37.1879C38.8292 11.7025 40.1645 13.034 40.1645 14.6705C40.1645 16.3071 38.8292 17.6384 37.1879 17.6384H34.7511C33.6993 17.6384 32.72 18.0548 31.9999 18.7545C31.28 18.0548 30.3006 17.6384 29.2488 17.6384H26.8121C25.1708 17.6384 23.8355 16.3069 23.8355 14.6705C23.8355 13.034 25.1707 11.7025 26.8121 11.7025ZM6.94061 24.0601H13.4572C14.0273 24.0601 14.4894 23.5993 14.4894 23.0308C14.4894 22.4624 14.0273 22.0015 13.4572 22.0015H4.71479C4.1743 21.3508 3.70539 20.6392 3.31726 19.88H10.9701C11.5402 19.88 12.0024 19.4192 12.0024 18.8507C12.0024 18.2823 11.5402 17.8215 10.9701 17.8215H2.50425C2.30895 17.1379 2.17517 16.4287 2.11021 15.6999H21.771V26.1818H13.609C11.1263 26.1816 8.82537 25.3947 6.94061 24.0601ZM23.8355 27.2109V18.7238C24.6702 19.3349 25.6993 19.6969 26.8121 19.6969H29.2488C29.9989 19.6969 30.6713 20.1419 30.9677 20.8184V35.2844C26.9516 34.7766 23.8355 31.351 23.8355 27.2109ZM33.0322 35.2845V20.8186C33.3285 20.142 34.001 19.6971 34.7511 19.6971H37.1879C38.3005 19.6971 39.3298 19.3351 40.1645 18.7239V27.211C40.1644 31.351 37.0482 34.7766 33.0322 35.2845ZM42.2289 26.1816V15.6998H61.8895C61.8246 16.4285 61.6908 17.1378 61.4955 17.8213H53.0296C52.4595 17.8213 51.9973 18.2822 51.9973 18.8506C51.9973 19.419 52.4595 19.8799 53.0296 19.8799H60.6825C60.2943 20.6391 59.8254 21.3506 59.2849 22.0014H50.5425C49.9725 22.0014 49.5103 22.4623 49.5103 23.0307C49.5103 23.5991 49.9725 24.06 50.5425 24.06H57.0591C55.1743 25.3947 52.8734 26.1815 50.3907 26.1815L42.2289 26.1816Z"/>
<path d="M27.5438 1.17616C21.9473 2.99921 18.0868 7.97979 17.6743 13.7598L19.7438 13.7596C20.1517 8.87361 23.4402 4.67843 28.185 3.13288C28.7269 2.95639 29.0227 2.37533 28.8457 1.8349C28.7034 1.40068 28.2991 1.12497 27.8646 1.12497C27.7584 1.12497 27.6503 1.14158 27.5438 1.17616Z" fill="white"/>
<path d="M35.8025 3.13288C40.5473 4.67843 43.8358 8.87361 44.2438 13.7596L46.3134 13.7598C45.9007 7.97979 42.0404 2.99921 36.4438 1.17616C36.3372 1.14144 36.229 1.12497 36.1229 1.12497C35.6884 1.12497 35.2842 1.40068 35.1419 1.8349C34.9649 2.3752 35.2606 2.95626 35.8025 3.13288Z" fill="white"/>
<path d="M90.0628 22.1679C88.6042 22.1679 87.1963 21.9248 85.839 21.4387C84.502 20.9525 83.3169 20.2637 82.2838 19.3724C81.2506 18.481 80.4302 17.4073 79.8224 16.1514C79.235 14.8954 78.9412 13.4976 78.9412 11.958C78.9412 10.5197 79.2451 9.17254 79.8528 7.91655C80.4606 6.64031 81.3013 5.53625 82.3749 4.60439C83.4689 3.65227 84.735 2.91286 86.1733 2.38616C87.6116 1.8392 89.1714 1.56572 90.8528 1.56572C91.6024 1.56572 92.2709 1.60623 92.8584 1.68726C93.4458 1.74804 94.0131 1.8392 94.56 1.96074C95.107 2.08229 95.6945 2.24435 96.3225 2.44693C96.5858 2.52796 96.7783 2.63938 96.8998 2.78119C97.0416 2.92299 97.1226 3.1357 97.1429 3.41931C97.2037 3.94601 97.2543 4.49297 97.2948 5.06019C97.3556 5.62741 97.3961 6.25541 97.4164 6.94417C97.4164 7.12649 97.3353 7.25817 97.1733 7.3392C97.0315 7.42023 96.8694 7.44049 96.6871 7.39997C96.5048 7.3392 96.3832 7.1974 96.3225 6.97456C96.1401 6.30605 95.9274 5.70845 95.6843 5.18174C95.4412 4.65504 95.0867 4.21949 94.6208 3.87511C94.1549 3.51047 93.5573 3.22686 92.828 3.02428C92.119 2.8217 91.3188 2.72041 90.4274 2.72041C89.293 2.72041 88.2497 2.95338 87.2976 3.41931C86.3455 3.88524 85.5352 4.52336 84.8666 5.33367C84.1981 6.12373 83.6714 7.02521 83.2865 8.0381C82.9219 9.05099 82.7396 10.1044 82.7396 11.1983C82.7396 12.4746 82.9118 13.7002 83.2562 14.8751C83.6208 16.0501 84.1374 17.0934 84.8059 18.005C85.4946 18.9166 86.3252 19.6458 87.2976 20.1928C88.27 20.7195 89.3639 20.9829 90.5794 20.9829C92.0379 20.9829 93.2433 20.6587 94.1954 20.0105C95.1475 19.342 95.9477 18.3899 96.5959 17.1541C96.7377 16.8705 96.9505 16.7287 97.2341 16.7287C97.5177 16.7287 97.6595 16.8908 97.6595 17.2149C97.6595 17.4175 97.619 17.7011 97.5379 18.0657C97.4772 18.4101 97.386 18.795 97.2644 19.2204C97.1429 19.6256 97.0214 20.0004 96.8998 20.3447C96.7783 20.6081 96.6668 20.7904 96.5656 20.8917C96.4643 20.993 96.2718 21.0943 95.9882 21.1956C95.2184 21.5197 94.3068 21.7628 93.2534 21.9248C92.2202 22.0869 91.1567 22.1679 90.0628 22.1679Z" fill="white"/>
<path d="M101.031 21.8641C100.788 21.8641 100.596 21.8337 100.454 21.7729C100.312 21.7121 100.241 21.621 100.241 21.4994C100.241 21.2361 100.535 21.0436 101.122 20.9221C101.872 20.76 102.409 20.5372 102.733 20.2536C103.077 19.9497 103.249 19.4433 103.249 18.7342V4.99942C103.249 4.31065 103.108 3.81434 102.824 3.51047C102.54 3.2066 102.024 2.98377 101.274 2.84196C100.97 2.78119 100.748 2.70016 100.606 2.59887C100.464 2.49758 100.393 2.37603 100.393 2.23423C100.393 2.11268 100.464 2.02152 100.606 1.96074C100.748 1.87971 100.94 1.8392 101.183 1.8392C101.852 1.8392 102.449 1.84933 102.976 1.86958C103.523 1.88984 104.05 1.9101 104.556 1.93036C105.083 1.95062 105.65 1.96074 106.258 1.96074C107.068 1.96074 107.919 1.96074 108.81 1.96074C109.722 1.94049 110.542 1.92023 111.272 1.89997C111.96 1.89997 112.528 1.88984 112.973 1.86958C113.439 1.82907 113.713 1.80881 113.794 1.80881C113.915 1.80881 114.037 1.8392 114.158 1.89997C114.3 1.94049 114.381 2.03165 114.401 2.17345C114.503 2.80144 114.604 3.41931 114.705 4.02704C114.827 4.61452 114.888 5.1311 114.888 5.57677C114.888 5.77935 114.837 5.92115 114.736 6.00218C114.655 6.06296 114.563 6.09334 114.462 6.09334C114.361 6.09334 114.28 6.06296 114.219 6.00218C114.158 5.94141 114.098 5.85025 114.037 5.7287C113.895 5.32355 113.763 4.95891 113.642 4.63478C113.52 4.2904 113.378 4.03717 113.216 3.87511C112.953 3.5915 112.649 3.37879 112.305 3.23699C111.96 3.09518 111.575 3.02428 111.15 3.02428H107.747C107.483 3.02428 107.2 3.12557 106.896 3.32815C106.612 3.51047 106.47 3.77382 106.47 4.1182V10.3171C106.47 10.5197 106.531 10.6817 106.653 10.8033C106.774 10.9248 106.916 10.9856 107.078 10.9856H109.965C110.552 10.9856 110.958 10.8539 111.18 10.5906C111.403 10.3272 111.586 9.92208 111.727 9.37511C111.869 8.96996 112.062 8.76738 112.305 8.76738C112.406 8.76738 112.497 8.81802 112.578 8.91931C112.659 9.00034 112.7 9.13202 112.7 9.31434C112.7 9.43589 112.69 9.63847 112.669 9.92208C112.649 10.2057 112.629 10.4994 112.609 10.8033C112.588 11.1072 112.578 11.3503 112.578 11.5326C112.578 11.7554 112.578 12.0289 112.578 12.353C112.598 12.6569 112.619 12.9608 112.639 13.2646C112.659 13.5685 112.669 13.7913 112.669 13.9331C112.69 14.1154 112.669 14.2674 112.609 14.3889C112.568 14.4902 112.497 14.5409 112.396 14.5409C112.072 14.5409 111.829 14.2471 111.667 13.6596C111.545 13.1329 111.373 12.7379 111.15 12.4746C110.947 12.2112 110.644 12.0795 110.238 12.0795H107.412C107.088 12.0795 106.845 12.1302 106.683 12.2315C106.541 12.3328 106.47 12.5455 106.47 12.8696V18.6735C106.47 19.3825 106.622 19.8788 106.926 20.1624C107.23 20.4258 107.696 20.5574 108.324 20.5574H110.725C111.292 20.5574 111.788 20.5169 112.214 20.4359C112.639 20.3549 113.004 20.2029 113.307 19.9801C113.652 19.737 113.956 19.423 114.219 19.0381C114.482 18.6532 114.756 18.1771 115.04 17.6099C115.121 17.4884 115.202 17.3972 115.283 17.3364C115.364 17.2554 115.455 17.225 115.556 17.2453C115.678 17.2453 115.759 17.2959 115.799 17.3972C115.86 17.4783 115.89 17.5897 115.89 17.7315C115.89 17.9543 115.84 18.2886 115.738 18.7342C115.637 19.1799 115.505 19.6458 115.343 20.132C115.202 20.6182 115.07 21.0335 114.948 21.3779C114.888 21.5197 114.817 21.6311 114.736 21.7121C114.655 21.8134 114.553 21.8641 114.432 21.8641C113.702 21.8641 112.943 21.8539 112.153 21.8337C111.363 21.8134 110.552 21.7932 109.722 21.7729C108.891 21.7527 108.061 21.7324 107.23 21.7121C106.4 21.6919 105.579 21.6818 104.769 21.6818C104.343 21.6818 103.938 21.6919 103.553 21.7121C103.168 21.7527 102.773 21.783 102.368 21.8033C101.983 21.8438 101.538 21.8641 101.031 21.8641Z" fill="white"/>
<path d="M136.017 22.3503C135.288 22.3503 134.63 22.2692 134.042 22.1072C133.475 21.9654 132.958 21.7425 132.492 21.4387C132.047 21.1348 131.642 20.76 131.277 20.3143C130.811 19.7066 130.355 19.1191 129.91 18.5519C129.484 17.9847 129.038 17.3466 128.573 16.6375C128.107 15.9083 127.56 15.0271 126.932 13.9939C126.668 13.4875 126.294 13.1127 125.807 12.8696C125.463 12.6873 125.108 12.5657 124.744 12.505C124.399 12.4239 124.116 12.3733 123.893 12.353C123.751 12.353 123.64 12.4138 123.559 12.5353C123.498 12.6366 123.468 12.7784 123.468 12.9608V18.4608C123.468 19.109 123.63 19.6458 123.954 20.0713C124.278 20.4764 124.835 20.7499 125.625 20.8917C125.909 20.9525 126.121 21.0234 126.263 21.1044C126.425 21.1854 126.506 21.307 126.506 21.469C126.506 21.5906 126.435 21.6818 126.294 21.7425C126.152 21.8033 125.959 21.8337 125.716 21.8337C125.21 21.8337 124.754 21.8134 124.349 21.7729C123.964 21.7527 123.589 21.7324 123.224 21.7121C122.88 21.6716 122.515 21.6514 122.131 21.6514C121.644 21.6514 121.178 21.6716 120.733 21.7121C120.307 21.7324 119.872 21.7527 119.426 21.7729C119.001 21.8134 118.525 21.8337 117.998 21.8337C117.775 21.8337 117.583 21.8033 117.421 21.7425C117.279 21.702 117.208 21.6109 117.208 21.469C117.208 21.2057 117.502 21.0132 118.089 20.8917C118.859 20.7499 119.406 20.5271 119.73 20.2232C120.074 19.9193 120.247 19.4129 120.247 18.7039V5.51599C120.247 4.82723 120.206 4.31065 120.125 3.96627C120.044 3.60163 119.872 3.34841 119.608 3.2066C119.365 3.04454 118.97 2.92299 118.423 2.84196C118.099 2.80144 117.866 2.73054 117.724 2.62925C117.583 2.50771 117.512 2.37603 117.512 2.23423C117.512 2.11268 117.583 2.02152 117.724 1.96074C117.887 1.87971 118.079 1.8392 118.302 1.8392C118.889 1.8392 119.345 1.84933 119.669 1.86958C119.993 1.88984 120.297 1.9101 120.581 1.93036C120.885 1.93036 121.259 1.93036 121.705 1.93036C122.11 1.93036 122.475 1.92023 122.799 1.89997C123.123 1.85946 123.488 1.82907 123.893 1.80881C124.298 1.7683 124.815 1.74804 125.443 1.74804C127.712 1.74804 129.444 2.16332 130.639 2.99389C131.854 3.80421 132.462 5.03994 132.462 6.70108C132.462 7.61268 132.27 8.39261 131.885 9.04086C131.52 9.68911 131.054 10.2259 130.487 10.6514C129.92 11.0768 129.352 11.411 128.785 11.6541C128.704 11.6744 128.664 11.725 128.664 11.8061C128.684 11.8668 128.714 11.9479 128.755 12.0491C129.383 12.981 129.98 13.8724 130.548 14.7232C131.135 15.5538 131.753 16.3641 132.401 17.1541C133.07 17.9239 133.829 18.7038 134.68 19.4939C135.247 20.0206 135.835 20.3346 136.443 20.4359C137.071 20.5372 137.739 20.5878 138.448 20.5878C138.752 20.5878 138.904 20.7296 138.904 21.0132C138.904 21.3576 138.742 21.621 138.418 21.8033C138.114 22.0059 137.739 22.1477 137.294 22.2287C136.848 22.3097 136.422 22.3503 136.017 22.3503ZM124.926 11.563C125.797 11.563 126.537 11.3705 127.144 10.9856C127.772 10.5805 128.248 10.0538 128.573 9.4055C128.917 8.73699 129.089 8.01784 129.089 7.24804C129.089 6.37695 128.978 5.60716 128.755 4.93865C128.532 4.27014 128.127 3.75356 127.539 3.38892C126.952 3.00402 126.111 2.81157 125.017 2.81157C124.45 2.81157 124.065 3.01415 123.863 3.41931C123.66 3.80421 123.549 4.54362 123.528 5.63754C123.508 6.12373 123.488 6.77198 123.468 7.58229C123.468 8.39261 123.468 9.35486 123.468 10.469C123.468 10.9552 123.599 11.2591 123.863 11.3806C124.126 11.5022 124.48 11.563 124.926 11.563Z" fill="white"/>
<path d="M149.892 22.1376C148.069 22.1376 146.54 21.8134 145.304 21.1652C144.068 20.5169 143.136 19.6053 142.508 18.4304C141.88 17.2352 141.566 15.8475 141.566 14.2674V5.18174C141.566 4.51323 141.424 3.98653 141.141 3.60163C140.877 3.21673 140.543 2.98377 140.138 2.90273C139.49 2.72041 139.166 2.49758 139.166 2.23423C139.166 2.09242 139.247 1.99113 139.409 1.93036C139.571 1.86958 139.773 1.8392 140.016 1.8392C140.543 1.8392 141.08 1.85946 141.627 1.89997C142.174 1.94049 142.731 1.96074 143.298 1.96074C143.805 1.96074 144.331 1.95062 144.878 1.93036C145.425 1.88984 145.912 1.86958 146.337 1.86958C146.6 1.86958 146.803 1.89997 146.945 1.96074C147.107 2.02152 147.188 2.12281 147.188 2.26461C147.188 2.42667 147.076 2.55835 146.854 2.65964C146.651 2.74067 146.377 2.84196 146.033 2.96351C145.77 3.0648 145.496 3.30789 145.213 3.69279C144.949 4.05743 144.818 4.56388 144.818 5.21213V13.5381C144.818 15.0777 145.071 16.3438 145.577 17.3364C146.084 18.3291 146.783 19.0584 147.674 19.5243C148.565 19.9902 149.568 20.2232 150.682 20.2232C152.688 20.2232 154.156 19.5648 155.088 18.248C156.04 16.911 156.516 15.0777 156.516 12.748C156.516 12.2821 156.516 11.6946 156.516 10.9856C156.516 10.2766 156.506 9.52705 156.486 8.73699C156.486 7.94694 156.476 7.1974 156.456 6.48837C156.435 5.81986 156.375 5.25264 156.273 4.78671C156.192 4.30053 156.051 3.89537 155.848 3.57124C155.645 3.24712 155.382 3.03441 155.058 2.93312C154.855 2.85209 154.622 2.76093 154.359 2.65964C154.116 2.55835 153.994 2.42667 153.994 2.26461C153.994 2.14306 154.075 2.0519 154.237 1.99113C154.4 1.93036 154.612 1.89997 154.876 1.89997C155.443 1.89997 155.888 1.9101 156.213 1.93036C156.537 1.95062 156.932 1.96074 157.398 1.96074C157.742 1.96074 158.046 1.95062 158.309 1.93036C158.593 1.9101 158.866 1.88984 159.13 1.86958C159.393 1.84933 159.667 1.8392 159.95 1.8392C160.193 1.8392 160.396 1.86958 160.558 1.93036C160.72 1.99113 160.801 2.09242 160.801 2.23423C160.801 2.49758 160.487 2.70016 159.859 2.84196C159.272 2.98377 158.856 3.25725 158.613 3.6624C158.39 4.06756 158.259 4.60439 158.218 5.2729C158.117 6.93404 158.056 8.46351 158.036 9.8613C158.016 11.2388 157.985 12.6164 157.945 13.9939C157.924 15.574 157.55 16.9819 156.82 18.2177C156.111 19.4534 155.159 20.4156 153.964 21.1044C152.769 21.7932 151.412 22.1376 149.892 22.1376Z" fill="white"/>
<path d="M162.601 21.8641C162.378 21.8641 162.196 21.8236 162.054 21.7425C161.912 21.6615 161.841 21.5703 161.841 21.469C161.841 21.307 161.922 21.1854 162.084 21.1044C162.246 21.0031 162.378 20.9423 162.479 20.9221C163.249 20.7398 163.816 20.5068 164.181 20.2232C164.566 19.9396 164.758 19.4635 164.758 18.795V4.78671C164.758 4.30053 164.708 3.94601 164.606 3.72318C164.505 3.48008 164.313 3.29776 164.029 3.17622C163.766 3.05467 163.381 2.94325 162.874 2.84196C162.287 2.72041 161.993 2.51783 161.993 2.23423C161.993 2.09242 162.064 1.99113 162.206 1.93036C162.368 1.86958 162.56 1.8392 162.783 1.8392C163.29 1.8392 163.746 1.84933 164.151 1.86958C164.556 1.88984 164.941 1.9101 165.305 1.93036C165.67 1.95062 166.075 1.96074 166.521 1.96074C166.987 1.96074 167.432 1.96074 167.858 1.96074C168.283 1.94049 168.719 1.92023 169.165 1.89997C169.61 1.87971 170.086 1.86958 170.593 1.86958C170.836 1.86958 171.018 1.89997 171.14 1.96074C171.281 2.00126 171.352 2.09242 171.352 2.23423C171.352 2.39629 171.281 2.52796 171.14 2.62925C170.998 2.71029 170.775 2.78119 170.471 2.84196C169.701 3.02428 169.094 3.22686 168.648 3.4497C168.202 3.65227 167.979 4.0473 167.979 4.63478V18.7039C167.979 19.3318 168.111 19.7876 168.374 20.0713C168.658 20.3346 169.225 20.4663 170.076 20.4663H173.601C174.128 20.4663 174.583 20.3853 174.968 20.2232C175.374 20.0611 175.688 19.8788 175.91 19.6762C176.295 19.3318 176.589 19.0077 176.792 18.7039C177.014 18.3797 177.247 17.9543 177.49 17.4276C177.592 17.2048 177.703 16.9921 177.825 16.7895C177.946 16.5869 178.078 16.4856 178.22 16.4856C178.362 16.4856 178.463 16.5565 178.524 16.6983C178.584 16.8199 178.615 16.9414 178.615 17.063C178.615 17.1035 178.605 17.1541 178.584 17.2149C178.564 17.2757 178.554 17.3364 178.554 17.3972C178.412 17.9442 178.281 18.4304 178.159 18.8558C178.037 19.2812 177.936 19.6864 177.855 20.0713C177.794 20.4562 177.744 20.8714 177.703 21.3171C177.683 21.4589 177.642 21.5906 177.582 21.7121C177.521 21.8134 177.409 21.8641 177.247 21.8641C176.457 21.8641 175.617 21.8539 174.725 21.8337C173.834 21.8134 172.932 21.7932 172.021 21.7729C171.109 21.7729 170.208 21.7628 169.316 21.7425C168.445 21.7223 167.605 21.7121 166.794 21.7121C166.308 21.7121 165.761 21.7223 165.153 21.7425C164.566 21.7628 164.019 21.783 163.513 21.8033C163.026 21.8438 162.723 21.8641 162.601 21.8641Z" fill="white"/>
<path d="M180.589 21.8641C180.346 21.8641 180.153 21.8337 180.011 21.7729C179.87 21.7121 179.799 21.621 179.799 21.4994C179.799 21.2361 180.092 21.0436 180.68 20.9221C181.429 20.76 181.966 20.5372 182.29 20.2536C182.635 19.9497 182.807 19.4433 182.807 18.7342V4.99942C182.807 4.31065 182.665 3.81434 182.382 3.51047C182.098 3.2066 181.581 2.98377 180.832 2.84196C180.528 2.78119 180.305 2.70016 180.163 2.59887C180.022 2.49758 179.951 2.37603 179.951 2.23423C179.951 2.11268 180.022 2.02152 180.163 1.96074C180.305 1.87971 180.498 1.8392 180.741 1.8392C181.409 1.8392 182.007 1.84933 182.533 1.86958C183.08 1.88984 183.607 1.9101 184.114 1.93036C184.64 1.95062 185.208 1.96074 185.815 1.96074C186.626 1.96074 187.476 1.96074 188.368 1.96074C189.279 1.94049 190.1 1.92023 190.829 1.89997C191.518 1.89997 192.085 1.88984 192.531 1.86958C192.997 1.82907 193.27 1.80881 193.351 1.80881C193.473 1.80881 193.594 1.8392 193.716 1.89997C193.858 1.94049 193.939 2.03165 193.959 2.17345C194.06 2.80144 194.161 3.41931 194.263 4.02704C194.384 4.61452 194.445 5.1311 194.445 5.57677C194.445 5.77935 194.394 5.92115 194.293 6.00218C194.212 6.06296 194.121 6.09334 194.02 6.09334C193.918 6.09334 193.837 6.06296 193.777 6.00218C193.716 5.94141 193.655 5.85025 193.594 5.7287C193.452 5.32355 193.321 4.95891 193.199 4.63478C193.078 4.2904 192.936 4.03717 192.774 3.87511C192.51 3.5915 192.207 3.37879 191.862 3.23699C191.518 3.09518 191.133 3.02428 190.708 3.02428H187.304C187.041 3.02428 186.757 3.12557 186.453 3.32815C186.17 3.51047 186.028 3.77382 186.028 4.1182V10.3171C186.028 10.5197 186.089 10.6817 186.21 10.8033C186.332 10.9248 186.474 10.9856 186.636 10.9856H189.522C190.11 10.9856 190.515 10.8539 190.738 10.5906C190.961 10.3272 191.143 9.92208 191.285 9.37511C191.427 8.96996 191.619 8.76738 191.862 8.76738C191.964 8.76738 192.055 8.81802 192.136 8.91931C192.217 9.00034 192.257 9.13202 192.257 9.31434C192.257 9.43589 192.247 9.63847 192.227 9.92208C192.207 10.2057 192.186 10.4994 192.166 10.8033C192.146 11.1072 192.136 11.3503 192.136 11.5326C192.136 11.7554 192.136 12.0289 192.136 12.353C192.156 12.6569 192.176 12.9608 192.196 13.2646C192.217 13.5685 192.227 13.7913 192.227 13.9331C192.247 14.1154 192.227 14.2674 192.166 14.3889C192.126 14.4902 192.055 14.5409 191.953 14.5409C191.629 14.5409 191.386 14.2471 191.224 13.6596C191.103 13.1329 190.93 12.7379 190.708 12.4746C190.505 12.2112 190.201 12.0795 189.796 12.0795H186.97C186.646 12.0795 186.403 12.1302 186.241 12.2315C186.099 12.3328 186.028 12.5455 186.028 12.8696V18.6735C186.028 19.3825 186.18 19.8788 186.484 20.1624C186.788 20.4258 187.254 20.5574 187.882 20.5574H190.282C190.849 20.5574 191.346 20.5169 191.771 20.4359C192.196 20.3549 192.561 20.2029 192.865 19.9801C193.209 19.737 193.513 19.423 193.777 19.0381C194.04 18.6532 194.313 18.1771 194.597 17.6099C194.678 17.4884 194.759 17.3972 194.84 17.3364C194.921 17.2554 195.012 17.225 195.114 17.2453C195.235 17.2453 195.316 17.2959 195.357 17.3972C195.417 17.4783 195.448 17.5897 195.448 17.7315C195.448 17.9543 195.397 18.2886 195.296 18.7342C195.195 19.1799 195.063 19.6458 194.901 20.132C194.759 20.6182 194.627 21.0335 194.506 21.3779C194.445 21.5197 194.374 21.6311 194.293 21.7121C194.212 21.8134 194.111 21.8641 193.989 21.8641C193.26 21.8641 192.5 21.8539 191.71 21.8337C190.92 21.8134 190.11 21.7932 189.279 21.7729C188.449 21.7527 187.618 21.7324 186.788 21.7121C185.957 21.6919 185.137 21.6818 184.326 21.6818C183.901 21.6818 183.496 21.6919 183.111 21.7121C182.726 21.7527 182.331 21.783 181.926 21.8033C181.541 21.8438 181.095 21.8641 180.589 21.8641Z" fill="white"/>
<path d="M196.887 21.8641C196.644 21.8641 196.441 21.8236 196.279 21.7425C196.117 21.6818 196.036 21.5805 196.036 21.4387C196.036 21.2766 196.117 21.1449 196.279 21.0436C196.441 20.9423 196.664 20.8411 196.948 20.7398C197.495 20.5777 197.991 20.3346 198.437 20.0105C198.882 19.6864 199.247 19.19 199.531 18.5215C200.078 17.2858 200.584 16.1108 201.05 14.9967C201.516 13.8622 201.962 12.748 202.387 11.6541C202.812 10.5602 203.248 9.43589 203.694 8.28119C204.139 7.10624 204.595 5.86038 205.061 4.54362C205.243 4.07769 205.375 3.69279 205.456 3.38892C205.537 3.0648 205.588 2.78119 205.608 2.53809C205.871 2.47732 206.114 2.41655 206.337 2.35577C206.56 2.27474 206.803 2.16332 207.067 2.02152C207.31 1.89997 207.492 1.72778 207.613 1.50494C207.755 1.26185 207.867 1.08966 207.948 0.988368C207.988 0.96811 208.029 0.957981 208.069 0.957981C208.13 0.937724 208.181 0.968111 208.221 1.04914C208.282 1.15043 208.323 1.26185 208.343 1.3834C208.383 1.50494 208.424 1.63662 208.464 1.77842C208.93 3.25725 209.406 4.76646 209.892 6.30605C210.399 7.82539 210.895 9.31434 211.381 10.7729C211.868 12.2315 212.323 13.5887 212.749 14.8447C213.174 16.0805 213.539 17.1643 213.843 18.0961C214.066 18.7646 214.329 19.2812 214.633 19.6458C214.937 19.9902 215.261 20.2536 215.605 20.4359C215.95 20.598 216.324 20.7195 216.73 20.8005C217.033 20.8613 217.256 20.9525 217.398 21.074C217.56 21.1956 217.641 21.3374 217.641 21.4994C217.641 21.621 217.56 21.702 217.398 21.7425C217.256 21.8033 217.074 21.8337 216.851 21.8337C216.527 21.8337 216.102 21.8134 215.575 21.7729C215.048 21.7527 214.501 21.7324 213.934 21.7121C213.367 21.6919 212.85 21.6818 212.384 21.6818C211.999 21.6818 211.574 21.6818 211.108 21.6818C210.642 21.6818 210.196 21.6919 209.771 21.7121C209.366 21.7324 209.011 21.7425 208.707 21.7425C208.464 21.7425 208.262 21.7121 208.1 21.6514C207.958 21.5703 207.887 21.469 207.887 21.3475C207.887 21.1854 207.978 21.0538 208.16 20.9525C208.343 20.8512 208.555 20.7803 208.799 20.7398C209.487 20.6182 209.984 20.4359 210.288 20.1928C210.612 19.9497 210.743 19.6256 210.683 19.2204C210.662 18.876 210.591 18.4506 210.47 17.9442C210.348 17.4175 210.206 16.8705 210.044 16.3033C209.882 15.7158 209.73 15.179 209.589 14.6928C209.548 14.5307 209.477 14.4294 209.376 14.3889C209.275 14.3484 209.102 14.3282 208.859 14.3282H203.238C203.137 14.3282 203.045 14.3687 202.964 14.4497C202.883 14.5105 202.802 14.6422 202.721 14.8447C202.66 15.0878 202.559 15.4018 202.417 15.7867C202.296 16.1514 202.174 16.5464 202.053 16.9718C201.931 17.377 201.82 17.7619 201.718 18.1265C201.637 18.4709 201.587 18.7241 201.567 18.8862C201.506 19.3926 201.627 19.7978 201.931 20.1016C202.255 20.3853 202.731 20.6081 203.359 20.7701C203.967 20.9322 204.271 21.1348 204.271 21.3779C204.271 21.5197 204.19 21.621 204.028 21.6818C203.886 21.7223 203.694 21.7425 203.451 21.7425C203.066 21.7425 202.62 21.7324 202.113 21.7121C201.607 21.6919 201.07 21.6818 200.503 21.6818C199.855 21.6818 199.227 21.7121 198.619 21.7729C198.011 21.8337 197.434 21.8641 196.887 21.8641ZM204.089 13.0823H208.525C208.809 13.0823 208.951 13.0317 208.951 12.9304C208.951 12.8696 208.94 12.8189 208.92 12.7784C208.92 12.7379 208.91 12.6771 208.89 12.5961L206.641 5.39445C206.54 5.07032 206.459 4.90826 206.398 4.90826C206.358 4.90826 206.287 5.06019 206.185 5.36406L203.542 12.5961C203.501 12.7177 203.481 12.7987 203.481 12.8392C203.481 12.9405 203.532 13.0114 203.633 13.0519C203.754 13.0722 203.906 13.0823 204.089 13.0823Z" fill="white"/>
<path d="M78.4186 36.9777C78.2935 36.9777 78.1924 36.9633 78.1155 36.9344C78.0385 36.9151 78 36.8767 78 36.8189C78 36.7034 78.1588 36.6168 78.4763 36.5591C78.842 36.4918 79.121 36.3811 79.3135 36.2271C79.5059 36.0732 79.6021 35.823 79.6021 35.4766V28.9814C79.6021 28.635 79.53 28.38 79.3856 28.2164C79.2413 28.0528 78.9911 27.9566 78.6351 27.9278C78.4715 27.9085 78.3512 27.8748 78.2742 27.8267C78.1973 27.769 78.1588 27.7064 78.1588 27.6391C78.1588 27.5813 78.1973 27.5429 78.2742 27.5236C78.3512 27.4947 78.4523 27.4803 78.5773 27.4803C78.8372 27.4803 79.0392 27.4803 79.1836 27.4803C79.3279 27.4803 79.4626 27.4851 79.5877 27.4947C79.7224 27.4947 79.886 27.4947 80.0785 27.4947C80.2613 27.4947 80.4201 27.4899 80.5548 27.4803C80.6895 27.4611 80.8386 27.4466 81.0022 27.437C81.1754 27.4274 81.4015 27.4226 81.6806 27.4226C82.8064 27.4226 83.6436 27.5862 84.1921 27.9133C84.7502 28.2309 85.0292 28.7842 85.0292 29.5732C85.0292 29.9004 84.9715 30.189 84.856 30.4392C84.7502 30.6798 84.6443 30.853 84.5385 30.9588C84.3845 31.1128 84.245 31.2331 84.1199 31.3197C83.9948 31.3967 83.812 31.4833 83.5714 31.5795C83.5329 31.5891 83.5137 31.6132 83.5137 31.6516C83.5137 31.6805 83.5329 31.7046 83.5714 31.7238C83.7927 31.7912 84.0189 31.8778 84.2498 31.9836C84.4904 32.0895 84.7117 32.229 84.9137 32.4022C85.1254 32.5658 85.2938 32.7871 85.4189 33.0662C85.5536 33.3356 85.621 33.682 85.621 34.1054C85.621 34.6346 85.5344 35.0532 85.3612 35.3611C85.1976 35.669 85.0004 35.9048 84.7694 36.0684C84.5385 36.2319 84.322 36.3667 84.1199 36.4725C83.8216 36.6265 83.4752 36.7467 83.0807 36.8334C82.6861 36.92 82.2146 36.9633 81.6662 36.9633C81.5411 36.9633 81.3534 36.9536 81.1032 36.9344C80.8531 36.9151 80.5836 36.9055 80.295 36.9055C80.0448 36.9055 79.8331 36.9103 79.6599 36.92C79.4867 36.9296 79.3038 36.9392 79.1114 36.9488C78.9286 36.9681 78.6976 36.9777 78.4186 36.9777ZM81.8682 36.3715C82.2916 36.3715 82.6861 36.2752 83.0518 36.0828C83.4175 35.8903 83.7109 35.6305 83.9323 35.3034C84.1536 34.9666 84.2642 34.5913 84.2642 34.1775C84.2642 33.8023 84.2017 33.4944 84.0766 33.2538C83.9515 33.0036 83.8072 32.8015 83.6436 32.6476C83.48 32.4936 83.3309 32.383 83.1961 32.3156C83.071 32.2386 82.8738 32.1616 82.6044 32.0847C82.3349 31.9981 81.9837 31.9548 81.5507 31.9548C81.2428 31.9548 81.0263 32.0173 80.9012 32.1424C80.7857 32.2675 80.728 32.3781 80.728 32.4744V35.3467C80.728 35.7508 80.8242 36.0251 81.0166 36.1694C81.2187 36.3041 81.5026 36.3715 81.8682 36.3715ZM81.3919 31.5506C81.6517 31.5506 81.9308 31.5217 82.2291 31.464C82.537 31.4063 82.8401 31.2956 83.1384 31.132C83.2442 31.0743 83.379 30.9348 83.5425 30.7135C83.7061 30.4921 83.7879 30.1746 83.7879 29.7608C83.7879 29.4818 83.735 29.1979 83.6291 28.9092C83.5233 28.6109 83.3212 28.3608 83.0229 28.1587C82.7246 27.9566 82.2772 27.8556 81.6806 27.8556C81.2861 27.8556 81.0263 27.9085 80.9012 28.0144C80.7857 28.1202 80.728 28.2838 80.728 28.5051V31.0166C80.728 31.2668 80.8098 31.4207 80.9733 31.4784C81.1369 31.5266 81.2765 31.5506 81.3919 31.5506Z" fill="white"/>
<path d="M86.8322 36.9488C86.7456 36.9488 86.6734 36.9344 86.6157 36.9055C86.5676 36.8863 86.5435 36.8478 86.5435 36.79C86.5435 36.7131 86.5772 36.6601 86.6446 36.6313C86.7215 36.6024 86.7985 36.5784 86.8755 36.5591C87.0776 36.511 87.2315 36.4533 87.3374 36.3859C87.4432 36.3089 87.4961 36.1838 87.4961 36.0106V32.8785C87.4961 32.6187 87.448 32.3878 87.3518 32.1857C87.2652 31.9836 87.0968 31.8633 86.8466 31.8249C86.7985 31.8152 86.76 31.796 86.7312 31.7671C86.7119 31.7383 86.7023 31.6949 86.7023 31.6372C86.7023 31.5314 86.7456 31.4736 86.8322 31.464C87.2171 31.3774 87.5346 31.2619 87.7848 31.1176C88.035 30.9636 88.2226 30.8386 88.3477 30.7423C88.4343 30.675 88.5017 30.6413 88.5498 30.6413C88.6075 30.6413 88.6364 30.6653 88.6364 30.7135C88.6364 30.7904 88.622 30.9444 88.5931 31.1753C88.5739 31.3967 88.5546 31.6468 88.5354 31.9259C88.5161 32.1953 88.5065 32.4407 88.5065 32.662V36.0106C88.5065 36.1742 88.5594 36.2945 88.6653 36.3715C88.7807 36.4485 88.9347 36.511 89.1272 36.5591C89.2041 36.5784 89.2763 36.6024 89.3437 36.6313C89.4206 36.6601 89.4591 36.7131 89.4591 36.79C89.4591 36.8959 89.3629 36.9488 89.1705 36.9488C88.9876 36.9488 88.8385 36.9392 88.723 36.92C88.6172 36.9103 88.5113 36.9007 88.4055 36.8911C88.3092 36.8815 88.1745 36.8767 88.0013 36.8767C87.8377 36.8767 87.703 36.8815 87.5972 36.8911C87.4913 36.9007 87.3855 36.9103 87.2796 36.92C87.1738 36.9392 87.0246 36.9488 86.8322 36.9488ZM87.9869 29.4577C87.7848 29.4577 87.6116 29.3904 87.4673 29.2557C87.3326 29.1113 87.2652 28.9381 87.2652 28.736C87.2652 28.5243 87.3326 28.3511 87.4673 28.2164C87.6116 28.0721 87.7848 27.9999 87.9869 27.9999C88.1986 27.9999 88.3718 28.0721 88.5065 28.2164C88.6508 28.3511 88.723 28.5243 88.723 28.736C88.723 28.9381 88.6508 29.1113 88.5065 29.2557C88.3718 29.3904 88.1986 29.4577 87.9869 29.4577Z" fill="white"/>
<path d="M89.7495 41.048C89.7014 41.048 89.6388 41.0336 89.5619 41.0047C89.4849 40.9854 89.4464 40.9518 89.4464 40.9037C89.4464 40.8459 89.4704 40.793 89.5186 40.7449C89.5667 40.6968 89.5955 40.6679 89.6052 40.6583C89.7784 40.6102 89.9468 40.5188 90.1103 40.384C90.2739 40.2493 90.4231 40.0376 90.5578 39.749C90.6636 39.5276 90.7454 39.2486 90.8032 38.9118C90.8705 38.5846 90.9186 38.2382 90.9475 37.8726C90.9764 37.5069 90.9956 37.1509 91.0052 36.8045C91.0148 36.4581 91.0197 36.1598 91.0197 35.9096V32.8785C91.0197 32.6187 90.9715 32.3926 90.8753 32.2001C90.7791 31.9981 90.6059 31.873 90.3557 31.8249C90.3172 31.8152 90.2884 31.7912 90.2691 31.7527C90.2499 31.7142 90.2402 31.6757 90.2402 31.6372C90.2402 31.541 90.2739 31.4833 90.3413 31.464C90.7069 31.3774 91.0148 31.2571 91.265 31.1032C91.5152 30.9492 91.7077 30.8289 91.8424 30.7423C91.8905 30.7135 91.929 30.6894 91.9578 30.6702C91.9963 30.6509 92.0204 30.6413 92.03 30.6413C92.0974 30.6413 92.1311 30.6653 92.1311 30.7135C92.1022 31.0118 92.0781 31.3774 92.0589 31.8104C92.0396 32.2338 92.03 32.6091 92.03 32.9362V35.5921C92.03 35.8903 92.0204 36.2416 92.0012 36.6457C91.9915 37.0402 91.9578 37.4492 91.9001 37.8726C91.8424 38.3056 91.7413 38.7145 91.597 39.0994C91.4815 39.4266 91.3131 39.7393 91.0918 40.0376C90.8705 40.3359 90.6396 40.5765 90.399 40.7593C90.1584 40.9518 89.9419 41.048 89.7495 41.048ZM91.4094 29.4577C91.2073 29.4577 91.0341 29.3904 90.8898 29.2557C90.755 29.1113 90.6877 28.9381 90.6877 28.736C90.6877 28.5243 90.755 28.3511 90.8898 28.2164C91.0341 28.0721 91.2073 27.9999 91.4094 27.9999C91.6211 27.9999 91.7943 28.0721 91.929 28.2164C92.0733 28.3511 92.1455 28.5243 92.1455 28.736C92.1455 28.9381 92.0733 29.1113 91.929 29.2557C91.7943 29.3904 91.6211 29.4577 91.4094 29.4577Z" fill="white"/>
<path d="M96.3686 37.1076C95.8297 37.1076 95.3438 36.9825 94.9108 36.7323C94.4778 36.4821 94.1314 36.1405 93.8716 35.7075C93.6214 35.2649 93.4963 34.7645 93.4963 34.2064C93.4963 33.8023 93.5733 33.4077 93.7272 33.0229C93.8908 32.638 94.1169 32.2867 94.4056 31.9692C94.6943 31.6516 95.0311 31.4015 95.416 31.2186C95.8009 31.0262 96.2146 30.93 96.6573 30.93C97.2154 30.93 97.7157 31.0647 98.1584 31.3341C98.6106 31.6035 98.9667 31.9596 99.2265 32.4022C99.4959 32.8352 99.6306 33.3115 99.6306 33.8311C99.6306 34.3892 99.5055 34.9185 99.2553 35.4188C99.0148 35.9192 98.6539 36.3282 98.1728 36.6457C97.6917 36.9536 97.0903 37.1076 96.3686 37.1076ZM96.6717 36.6746C96.9989 36.6746 97.2923 36.612 97.5522 36.4869C97.812 36.3619 98.014 36.1598 98.1584 35.8807C98.2738 35.6594 98.3508 35.39 98.3893 35.0724C98.4278 34.7549 98.447 34.4566 98.447 34.1775C98.447 33.7157 98.3604 33.273 98.1872 32.8496C98.0237 32.4166 97.7879 32.0654 97.48 31.796C97.1817 31.5169 96.8257 31.3774 96.4119 31.3774C96.1521 31.3774 95.9163 31.4207 95.7046 31.5073C95.5026 31.5843 95.3149 31.7334 95.1417 31.9548C94.9493 32.1953 94.8242 32.4888 94.7664 32.8352C94.7087 33.1816 94.6798 33.528 94.6798 33.8744C94.6798 34.3459 94.7664 34.7982 94.9397 35.2312C95.1129 35.6546 95.3486 36.001 95.6469 36.2704C95.9452 36.5399 96.2868 36.6746 96.6717 36.6746Z" fill="white"/>
<path d="M105.42 37.1798C105.353 37.1798 105.319 37.1413 105.319 37.0643C105.319 36.9681 105.329 36.8285 105.348 36.6457C105.377 36.4533 105.391 36.2945 105.391 36.1694C105.391 36.1502 105.391 36.1357 105.391 36.1261C105.391 36.1069 105.391 36.0924 105.391 36.0828C105.016 36.4485 104.636 36.7131 104.251 36.8767C103.876 37.0306 103.462 37.1076 103.01 37.1076C102.702 37.1076 102.423 37.0402 102.173 36.9055C101.922 36.7804 101.725 36.5928 101.581 36.3426C101.437 36.0828 101.364 35.7653 101.364 35.39V32.4599C101.364 32.2482 101.316 32.0798 101.22 31.9548C101.124 31.8297 100.965 31.7238 100.744 31.6372C100.696 31.618 100.652 31.5939 100.614 31.565C100.575 31.5362 100.556 31.4833 100.556 31.4063C100.556 31.3197 100.575 31.2619 100.614 31.2331C100.662 31.2042 100.715 31.185 100.773 31.1753C101.1 31.1561 101.35 31.132 101.523 31.1032C101.706 31.0647 101.932 31.0118 102.201 30.9444C102.23 30.9348 102.25 30.93 102.259 30.93C102.278 30.93 102.298 30.93 102.317 30.93C102.423 30.93 102.471 30.9973 102.461 31.132C102.432 31.3534 102.408 31.541 102.389 31.6949C102.38 31.8393 102.375 32.0221 102.375 32.2434V35.058C102.375 35.2889 102.432 35.5055 102.548 35.7075C102.663 35.9 102.813 36.0587 102.995 36.1838C103.188 36.3089 103.385 36.3715 103.587 36.3715C103.837 36.3715 104.054 36.357 104.237 36.3282C104.429 36.2993 104.617 36.2175 104.8 36.0828C104.905 36.0058 105.04 35.8807 105.204 35.7075C105.367 35.5343 105.449 35.2986 105.449 35.0003V32.3589C105.449 32.1568 105.387 32.0077 105.261 31.9115C105.146 31.8056 105.011 31.7334 104.857 31.6949C104.703 31.6565 104.578 31.6372 104.482 31.6372C104.395 31.6372 104.323 31.6228 104.266 31.5939C104.208 31.5554 104.179 31.4881 104.179 31.3918C104.179 31.3052 104.208 31.2475 104.266 31.2186C104.333 31.1898 104.405 31.1753 104.482 31.1753C104.78 31.1657 105.026 31.1561 105.218 31.1465C105.42 31.1272 105.598 31.1032 105.752 31.0743C105.916 31.0358 106.084 30.9925 106.257 30.9444C106.277 30.9348 106.301 30.93 106.33 30.93C106.358 30.9203 106.382 30.9155 106.402 30.9155C106.527 30.9155 106.589 30.9685 106.589 31.0743C106.589 31.0839 106.585 31.1032 106.575 31.132C106.575 31.1513 106.57 31.1753 106.56 31.2042C106.551 31.2331 106.536 31.3149 106.517 31.4496C106.508 31.5843 106.493 31.7238 106.474 31.8682C106.464 32.0125 106.459 32.1231 106.459 32.2001V35.5343C106.459 35.7941 106.484 35.9818 106.532 36.0972C106.589 36.2031 106.652 36.256 106.719 36.256C106.796 36.256 106.907 36.2512 107.051 36.2416C107.205 36.2223 107.316 36.2127 107.383 36.2127C107.431 36.2127 107.479 36.2223 107.528 36.2416C107.576 36.2608 107.6 36.3137 107.6 36.4003C107.6 36.4773 107.58 36.5302 107.542 36.5591C107.503 36.5784 107.455 36.5928 107.398 36.6024C107.022 36.6505 106.7 36.7227 106.431 36.8189C106.161 36.9151 105.921 37.0066 105.709 37.0932C105.68 37.1028 105.637 37.1172 105.579 37.1365C105.521 37.1653 105.468 37.1798 105.42 37.1798Z" fill="white"/>
<path d="M108.182 36.9633C108.124 36.9633 108.062 36.9536 107.994 36.9344C107.927 36.9248 107.893 36.8911 107.893 36.8334C107.893 36.7564 107.927 36.6986 107.994 36.6601C108.071 36.6217 108.148 36.5928 108.225 36.5735C108.37 36.5254 108.514 36.4485 108.658 36.3426C108.812 36.2271 108.99 36.0299 109.192 35.7508L110.304 34.2064C110.371 34.1294 110.4 34.0717 110.39 34.0332C110.39 33.9851 110.371 33.9322 110.333 33.8744L109.149 32.0702C109.034 31.8778 108.928 31.7383 108.832 31.6516C108.745 31.565 108.629 31.5025 108.485 31.464C108.408 31.4448 108.331 31.4159 108.254 31.3774C108.187 31.3389 108.153 31.2812 108.153 31.2042C108.153 31.1272 108.196 31.0887 108.283 31.0887C108.379 31.0791 108.447 31.0743 108.485 31.0743C108.678 31.0743 108.807 31.0791 108.875 31.0887C108.952 31.0984 109.038 31.108 109.135 31.1176C109.231 31.1272 109.394 31.132 109.625 31.132C109.799 31.132 109.924 31.1272 110.001 31.1176C110.078 31.108 110.198 31.1032 110.362 31.1032C110.4 31.1032 110.463 31.108 110.549 31.1176C110.645 31.1176 110.693 31.1561 110.693 31.2331C110.693 31.2908 110.665 31.3341 110.607 31.363C110.559 31.3918 110.501 31.4159 110.434 31.4351C110.366 31.4544 110.299 31.4833 110.232 31.5217C110.164 31.5506 110.131 31.6035 110.131 31.6805C110.131 31.7286 110.145 31.796 110.174 31.8826C110.212 31.9596 110.26 32.0462 110.318 32.1424L110.982 33.1383C111.021 33.2057 111.064 33.2057 111.112 33.1383L111.848 32.0269C111.887 31.9788 111.916 31.9259 111.935 31.8682C111.954 31.8104 111.964 31.7575 111.964 31.7094C111.964 31.5939 111.901 31.5169 111.776 31.4784C111.699 31.4496 111.622 31.4159 111.545 31.3774C111.478 31.3389 111.444 31.286 111.444 31.2186C111.444 31.1417 111.487 31.1032 111.574 31.1032C111.67 31.0935 111.738 31.0887 111.776 31.0887C111.853 31.0887 111.964 31.0984 112.108 31.1176C112.252 31.1272 112.382 31.132 112.498 31.132C112.767 31.132 112.955 31.1224 113.061 31.1032C113.166 31.0743 113.282 31.0599 113.407 31.0599C113.465 31.0599 113.527 31.0695 113.595 31.0887C113.662 31.0984 113.696 31.132 113.696 31.1898C113.696 31.2571 113.657 31.3101 113.58 31.3485C113.513 31.387 113.441 31.4207 113.364 31.4496C113.219 31.4881 113.046 31.565 112.844 31.6805C112.642 31.7864 112.474 31.9355 112.339 32.128L111.43 33.4992C111.42 33.5184 111.41 33.5473 111.401 33.5858C111.401 33.6146 111.415 33.6483 111.444 33.6868L112.844 35.9673C112.96 36.1502 113.07 36.2849 113.176 36.3715C113.282 36.4581 113.407 36.5254 113.551 36.5735C113.628 36.5928 113.701 36.6217 113.768 36.6601C113.845 36.6986 113.883 36.7564 113.883 36.8334C113.883 36.8911 113.85 36.9248 113.782 36.9344C113.715 36.9536 113.652 36.9633 113.595 36.9633C113.402 36.9633 113.263 36.9584 113.176 36.9488C113.089 36.9392 112.993 36.9296 112.887 36.92C112.791 36.9103 112.623 36.9055 112.382 36.9055C112.209 36.9055 112.031 36.9103 111.848 36.92C111.665 36.9296 111.492 36.9344 111.329 36.9344C111.107 36.9344 110.997 36.8863 110.997 36.79C110.997 36.7034 111.025 36.6409 111.083 36.6024C111.151 36.5639 111.242 36.5302 111.357 36.5014C111.463 36.4725 111.555 36.434 111.632 36.3859C111.718 36.3282 111.762 36.2512 111.762 36.155C111.762 36.1165 111.752 36.078 111.733 36.0395C111.723 35.9914 111.704 35.9433 111.675 35.8952L110.823 34.5095C110.795 34.4807 110.766 34.4807 110.737 34.5095L109.784 35.9385C109.775 35.9577 109.76 35.9962 109.741 36.0539C109.722 36.102 109.712 36.155 109.712 36.2127C109.712 36.2801 109.726 36.3474 109.755 36.4148C109.794 36.4725 109.847 36.511 109.914 36.5302C109.991 36.5591 110.063 36.5928 110.131 36.6313C110.208 36.6601 110.246 36.7131 110.246 36.79C110.246 36.8574 110.198 36.8959 110.102 36.9055C110.015 36.9151 109.953 36.92 109.914 36.92C109.837 36.92 109.717 36.9151 109.553 36.9055C109.399 36.8959 109.265 36.8911 109.149 36.8911C108.88 36.8911 108.682 36.9007 108.557 36.92C108.442 36.9488 108.317 36.9633 108.182 36.9633Z" fill="white"/>
<path d="M117.476 36.9488C117.389 36.9488 117.317 36.9344 117.259 36.9055C117.211 36.8863 117.187 36.8478 117.187 36.79C117.187 36.7131 117.221 36.6601 117.288 36.6313C117.365 36.6024 117.442 36.5784 117.519 36.5591C117.721 36.511 117.875 36.4533 117.981 36.3859C118.087 36.3089 118.14 36.1838 118.14 36.0106V32.8785C118.14 32.6187 118.091 32.3878 117.995 32.1857C117.909 31.9836 117.74 31.8633 117.49 31.8249C117.442 31.8152 117.403 31.796 117.375 31.7671C117.355 31.7383 117.346 31.6949 117.346 31.6372C117.346 31.5314 117.389 31.4736 117.476 31.464C117.861 31.3774 118.178 31.2619 118.428 31.1176C118.678 30.9636 118.866 30.8386 118.991 30.7423C119.078 30.675 119.145 30.6413 119.193 30.6413C119.251 30.6413 119.28 30.6653 119.28 30.7135C119.28 30.7904 119.265 30.9444 119.237 31.1753C119.217 31.3967 119.198 31.6468 119.179 31.9259C119.16 32.1953 119.15 32.4407 119.15 32.662V36.0106C119.15 36.1742 119.203 36.2945 119.309 36.3715C119.424 36.4485 119.578 36.511 119.771 36.5591C119.848 36.5784 119.92 36.6024 119.987 36.6313C120.064 36.6601 120.103 36.7131 120.103 36.79C120.103 36.8959 120.006 36.9488 119.814 36.9488C119.631 36.9488 119.482 36.9392 119.366 36.92C119.261 36.9103 119.155 36.9007 119.049 36.8911C118.953 36.8815 118.818 36.8767 118.645 36.8767C118.481 36.8767 118.346 36.8815 118.241 36.8911C118.135 36.9007 118.029 36.9103 117.923 36.92C117.817 36.9392 117.668 36.9488 117.476 36.9488ZM118.63 29.4577C118.428 29.4577 118.255 29.3904 118.111 29.2557C117.976 29.1113 117.909 28.9381 117.909 28.736C117.909 28.5243 117.976 28.3511 118.111 28.2164C118.255 28.0721 118.428 27.9999 118.63 27.9999C118.842 27.9999 119.015 28.0721 119.15 28.2164C119.294 28.3511 119.366 28.5243 119.366 28.736C119.366 28.9381 119.294 29.1113 119.15 29.2557C119.015 29.3904 118.842 29.4577 118.63 29.4577Z" fill="white"/>
<path d="M121.014 36.9488C120.927 36.9488 120.855 36.9344 120.797 36.9055C120.749 36.8863 120.725 36.8478 120.725 36.79C120.725 36.7131 120.754 36.665 120.812 36.6457C120.869 36.6168 120.951 36.588 121.057 36.5591C121.201 36.5206 121.341 36.4677 121.475 36.4003C121.61 36.333 121.678 36.2031 121.678 36.0106V32.9074C121.678 32.6476 121.649 32.4263 121.591 32.2434C121.543 32.0606 121.394 31.9355 121.143 31.8682C121.105 31.8489 121.071 31.8297 121.042 31.8104C121.014 31.7816 120.999 31.7383 120.999 31.6805C120.999 31.5747 121.042 31.5169 121.129 31.5073C121.466 31.4207 121.74 31.3149 121.952 31.1898C122.163 31.0647 122.37 30.9252 122.572 30.7712C122.601 30.7519 122.625 30.7375 122.645 30.7279C122.673 30.7086 122.702 30.699 122.731 30.699C122.75 30.699 122.765 30.7086 122.774 30.7279C122.794 30.7471 122.803 30.7712 122.803 30.8001C122.803 30.8674 122.789 31.0069 122.76 31.2186C122.741 31.4207 122.731 31.5891 122.731 31.7238C122.731 31.7623 122.731 31.8008 122.731 31.8393C122.741 31.8682 122.75 31.8874 122.76 31.897C123.097 31.5795 123.453 31.3389 123.828 31.1753C124.213 31.0118 124.632 30.93 125.084 30.93C125.555 30.93 125.945 31.1224 126.253 31.5073C126.561 31.8922 126.715 32.3685 126.715 32.9362V36.0106C126.715 36.2031 126.782 36.333 126.917 36.4003C127.052 36.4581 127.191 36.511 127.336 36.5591C127.413 36.588 127.485 36.6217 127.552 36.6601C127.629 36.689 127.668 36.7419 127.668 36.8189C127.668 36.8767 127.634 36.9103 127.566 36.92C127.499 36.9392 127.437 36.9488 127.379 36.9488C127.186 36.9488 127.037 36.9392 126.931 36.92C126.826 36.9103 126.725 36.9007 126.628 36.8911C126.532 36.8815 126.397 36.8767 126.224 36.8767C126.061 36.8767 125.926 36.8815 125.82 36.8911C125.714 36.9007 125.604 36.9103 125.488 36.92C125.382 36.9392 125.233 36.9488 125.041 36.9488C124.992 36.9488 124.93 36.9392 124.853 36.92C124.786 36.9103 124.752 36.8767 124.752 36.8189C124.752 36.7419 124.786 36.689 124.853 36.6601C124.93 36.6217 125.007 36.588 125.084 36.5591C125.228 36.511 125.368 36.4581 125.502 36.4003C125.637 36.333 125.705 36.2031 125.705 36.0106V32.9796C125.705 32.5562 125.584 32.229 125.344 31.9981C125.113 31.7575 124.8 31.6324 124.406 31.6228C124.059 31.6228 123.756 31.6805 123.496 31.796C123.236 31.9018 123.005 32.0365 122.803 32.2001C122.765 32.2386 122.736 32.2915 122.717 32.3589C122.698 32.4166 122.688 32.4744 122.688 32.5321V36.0106C122.688 36.2031 122.755 36.333 122.89 36.4003C123.025 36.4677 123.164 36.5206 123.309 36.5591C123.53 36.6168 123.641 36.6938 123.641 36.79C123.641 36.8478 123.616 36.8863 123.568 36.9055C123.52 36.9344 123.448 36.9488 123.352 36.9488C123.159 36.9488 123.005 36.9392 122.89 36.92C122.784 36.9103 122.683 36.9007 122.587 36.8911C122.491 36.8815 122.356 36.8767 122.183 36.8767C122.019 36.8767 121.884 36.8815 121.779 36.8911C121.682 36.9007 121.577 36.9103 121.461 36.92C121.355 36.9392 121.206 36.9488 121.014 36.9488Z" fill="white"/>
<path d="M130.083 37.1076C129.784 37.1076 129.505 37.0595 129.245 36.9633C128.986 36.8767 128.764 36.7516 128.581 36.588C128.533 36.4821 128.495 36.3041 128.466 36.0539C128.447 35.8037 128.432 35.5969 128.423 35.4333C128.423 35.3467 128.485 35.3034 128.61 35.3034C128.649 35.3034 128.683 35.313 128.711 35.3322C128.75 35.3419 128.774 35.3659 128.784 35.4044C128.909 35.8759 129.106 36.2127 129.375 36.4148C129.654 36.6168 129.933 36.7179 130.212 36.7179C130.492 36.7179 130.727 36.6265 130.92 36.4436C131.122 36.2512 131.223 36.0154 131.223 35.7364C131.223 35.4766 131.136 35.2553 130.963 35.0724C130.79 34.88 130.487 34.649 130.054 34.3796C129.727 34.1775 129.462 33.9851 129.26 33.8023C129.058 33.6194 128.909 33.4318 128.812 33.2394C128.726 33.0469 128.683 32.8304 128.683 32.5898C128.683 32.2819 128.755 32.0029 128.899 31.7527C129.043 31.5025 129.26 31.3052 129.549 31.1609C129.837 31.0069 130.198 30.93 130.631 30.93C130.92 30.93 131.16 30.9588 131.353 31.0166C131.545 31.0743 131.69 31.1368 131.786 31.2042C131.863 31.3101 131.925 31.4784 131.973 31.7094C132.031 31.9307 132.06 32.1424 132.06 32.3445C132.06 32.4118 132.012 32.4455 131.916 32.4455C131.858 32.4455 131.8 32.4359 131.742 32.4166C131.694 32.3878 131.661 32.3541 131.641 32.3156C131.516 31.9981 131.358 31.7575 131.165 31.5939C130.982 31.4207 130.751 31.3341 130.472 31.3341C130.232 31.3341 130.015 31.4063 129.823 31.5506C129.64 31.6949 129.549 31.9066 129.549 32.1857C129.549 32.407 129.616 32.6043 129.751 32.7775C129.895 32.9507 130.16 33.1479 130.544 33.3693C131.103 33.6868 131.516 33.9851 131.786 34.2642C132.065 34.5336 132.204 34.8944 132.204 35.3467C132.204 35.8663 132.007 36.2897 131.613 36.6168C131.218 36.944 130.708 37.1076 130.083 37.1076Z" fill="white"/>
<path d="M133.247 41.0191C133.199 41.0191 133.136 41.0095 133.059 40.9903C132.982 40.9806 132.944 40.947 132.944 40.8892C132.944 40.8122 132.978 40.7545 133.045 40.716C133.122 40.6872 133.199 40.6583 133.276 40.6294C133.42 40.5813 133.56 40.5236 133.695 40.4562C133.829 40.3985 133.897 40.2734 133.897 40.0809V32.763C133.897 32.6861 133.873 32.5706 133.824 32.4166C133.786 32.2627 133.719 32.1135 133.622 31.9692C133.526 31.8249 133.396 31.7383 133.233 31.7094C133.194 31.6998 133.165 31.6757 133.146 31.6372C133.127 31.5987 133.117 31.5602 133.117 31.5217C133.117 31.4736 133.127 31.4351 133.146 31.4063C133.165 31.3774 133.189 31.3582 133.218 31.3485C133.584 31.2619 133.897 31.1705 134.156 31.0743C134.416 30.9685 134.662 30.8674 134.893 30.7712C134.902 30.7712 134.907 30.7712 134.907 30.7712C134.907 30.7616 134.912 30.7568 134.921 30.7568C134.941 30.7568 134.96 30.7712 134.979 30.8001C134.998 30.8289 135.008 30.8578 135.008 30.8867C135.008 30.9733 134.994 31.1128 134.965 31.3052C134.945 31.4881 134.936 31.6372 134.936 31.7527C134.936 31.8297 134.941 31.873 134.95 31.8826C135.046 31.7864 135.22 31.6661 135.47 31.5217C135.73 31.3678 136.023 31.2331 136.35 31.1176C136.677 30.9925 136.99 30.93 137.288 30.93C137.789 30.93 138.212 31.0647 138.559 31.3341C138.915 31.5939 139.184 31.9355 139.367 32.3589C139.559 32.7727 139.656 33.2057 139.656 33.6579C139.656 34.0909 139.574 34.5143 139.41 34.9281C139.247 35.3322 139.016 35.6979 138.717 36.0251C138.419 36.3522 138.073 36.6168 137.678 36.8189C137.284 37.0114 136.86 37.1076 136.408 37.1076C136.273 37.1076 136.11 37.0835 135.917 37.0354C135.734 36.9969 135.552 36.944 135.369 36.8767C135.196 36.8093 135.061 36.7323 134.965 36.6457C134.955 36.6457 134.945 36.7034 134.936 36.8189C134.926 36.9248 134.917 37.0354 134.907 37.1509C134.907 37.276 134.907 37.353 134.907 37.3818V40.0809C134.907 40.206 134.955 40.3023 135.051 40.3696C135.157 40.4466 135.273 40.4995 135.398 40.5284C135.532 40.5669 135.648 40.6005 135.744 40.6294C135.821 40.6583 135.893 40.6872 135.961 40.716C136.038 40.7545 136.076 40.8122 136.076 40.8892C136.076 40.947 136.038 40.9806 135.961 40.9903C135.884 41.0095 135.816 41.0191 135.759 41.0191C135.479 41.0191 135.244 41.0047 135.051 40.9758C134.868 40.9566 134.652 40.947 134.402 40.947C134.238 40.947 134.103 40.9518 133.998 40.9614C133.901 40.971 133.8 40.9806 133.695 40.9903C133.589 41.0095 133.44 41.0191 133.247 41.0191ZM136.625 36.6601C136.769 36.6601 136.942 36.6168 137.144 36.5302C137.356 36.4436 137.563 36.3041 137.765 36.1117C137.977 35.9192 138.15 35.6594 138.284 35.3322C138.429 35.0051 138.501 34.6009 138.501 34.1198C138.501 33.5617 138.429 33.1143 138.284 32.7775C138.14 32.4407 137.962 32.1857 137.75 32.0125C137.539 31.8393 137.322 31.7238 137.101 31.6661C136.88 31.6083 136.692 31.5795 136.538 31.5795C136.307 31.5795 136.066 31.6276 135.816 31.7238C135.576 31.82 135.369 31.9307 135.196 32.0558C135.032 32.1713 134.95 32.2627 134.95 32.33C134.95 32.5417 134.945 32.7582 134.936 32.9796C134.936 33.1912 134.931 33.3981 134.921 33.6002C134.921 33.8023 134.917 33.9851 134.907 34.1487C134.907 34.3026 134.907 34.4229 134.907 34.5095C134.907 34.8944 134.994 35.2505 135.167 35.5776C135.35 35.9048 135.571 36.1694 135.831 36.3715C136.1 36.5639 136.365 36.6601 136.625 36.6601Z" fill="white"/>
<path d="M140.789 36.9488C140.703 36.9488 140.631 36.9344 140.573 36.9055C140.525 36.8863 140.501 36.8478 140.501 36.79C140.501 36.7131 140.534 36.6601 140.602 36.6313C140.679 36.6024 140.756 36.5784 140.833 36.5591C141.035 36.511 141.189 36.4533 141.295 36.3859C141.4 36.3089 141.453 36.1838 141.453 36.0106V32.8785C141.453 32.6187 141.405 32.3878 141.309 32.1857C141.222 31.9836 141.054 31.8633 140.804 31.8249C140.756 31.8152 140.717 31.796 140.688 31.7671C140.669 31.7383 140.66 31.6949 140.66 31.6372C140.66 31.5314 140.703 31.4736 140.789 31.464C141.174 31.3774 141.492 31.2619 141.742 31.1176C141.992 30.9636 142.18 30.8386 142.305 30.7423C142.392 30.675 142.459 30.6413 142.507 30.6413C142.565 30.6413 142.594 30.6653 142.594 30.7135C142.594 30.7904 142.579 30.9444 142.55 31.1753C142.531 31.3967 142.512 31.6468 142.493 31.9259C142.473 32.1953 142.464 32.4407 142.464 32.662V36.0106C142.464 36.1742 142.517 36.2945 142.623 36.3715C142.738 36.4485 142.892 36.511 143.084 36.5591C143.161 36.5784 143.234 36.6024 143.301 36.6313C143.378 36.6601 143.416 36.7131 143.416 36.79C143.416 36.8959 143.32 36.9488 143.128 36.9488C142.945 36.9488 142.796 36.9392 142.68 36.92C142.574 36.9103 142.469 36.9007 142.363 36.8911C142.267 36.8815 142.132 36.8767 141.959 36.8767C141.795 36.8767 141.66 36.8815 141.554 36.8911C141.449 36.9007 141.343 36.9103 141.237 36.92C141.131 36.9392 140.982 36.9488 140.789 36.9488ZM141.944 29.4577C141.742 29.4577 141.569 29.3904 141.425 29.2557C141.29 29.1113 141.222 28.9381 141.222 28.736C141.222 28.5243 141.29 28.3511 141.425 28.2164C141.569 28.0721 141.742 27.9999 141.944 27.9999C142.156 27.9999 142.329 28.0721 142.464 28.2164C142.608 28.3511 142.68 28.5243 142.68 28.736C142.68 28.9381 142.608 29.1113 142.464 29.2557C142.329 29.3904 142.156 29.4577 141.944 29.4577Z" fill="white"/>
<path d="M144.4 36.9488C144.303 36.9488 144.231 36.9344 144.183 36.9055C144.135 36.8863 144.111 36.8478 144.111 36.79C144.111 36.7131 144.14 36.665 144.198 36.6457C144.255 36.6168 144.337 36.588 144.443 36.5591C144.626 36.511 144.76 36.4436 144.847 36.357C144.943 36.2608 144.991 36.1453 144.991 36.0106V32.9074C144.991 32.6476 144.953 32.4214 144.876 32.229C144.799 32.0365 144.64 31.9163 144.4 31.8682C144.361 31.8585 144.327 31.8345 144.299 31.796C144.27 31.7575 144.255 31.719 144.255 31.6805C144.255 31.5843 144.299 31.5266 144.385 31.5073C144.635 31.4303 144.895 31.3197 145.165 31.1753C145.444 31.0214 145.66 30.8963 145.814 30.8001C145.872 30.7616 145.915 30.7375 145.944 30.7279C145.982 30.7086 146.011 30.699 146.031 30.699C146.079 30.699 146.103 30.7327 146.103 30.8001C146.103 30.8289 146.098 30.9011 146.088 31.0166C146.088 31.132 146.084 31.2668 146.074 31.4207C146.074 31.5747 146.069 31.7286 146.059 31.8826C146.059 31.9018 146.069 31.9115 146.088 31.9115C146.242 31.719 146.411 31.5506 146.594 31.4063C146.786 31.2619 146.978 31.1465 147.171 31.0599C147.373 30.9733 147.565 30.93 147.748 30.93C147.95 30.93 148.114 30.9733 148.239 31.0599C148.374 31.1465 148.441 31.2571 148.441 31.3918C148.441 31.4881 148.412 31.5939 148.354 31.7094C148.306 31.8249 148.239 31.9259 148.152 32.0125C148.066 32.0991 147.974 32.1424 147.878 32.1424C147.82 32.1424 147.758 32.1328 147.69 32.1135C147.623 32.0847 147.551 32.051 147.474 32.0125C147.397 31.9836 147.32 31.9548 147.243 31.9259C147.166 31.897 147.089 31.8826 147.012 31.8826C146.781 31.8826 146.555 31.9644 146.334 32.128C146.122 32.2915 146.016 32.6139 146.016 33.095V36.0106C146.016 36.1357 146.084 36.2416 146.218 36.3282C146.353 36.4052 146.541 36.4821 146.781 36.5591C146.887 36.588 146.969 36.6168 147.027 36.6457C147.084 36.6746 147.113 36.7227 147.113 36.79C147.113 36.8959 147.017 36.9488 146.824 36.9488C146.536 36.9488 146.314 36.9344 146.16 36.9055C146.016 36.8863 145.819 36.8767 145.569 36.8767C145.405 36.8767 145.27 36.8815 145.165 36.8911C145.068 36.9007 144.962 36.9103 144.847 36.92C144.741 36.9392 144.592 36.9488 144.4 36.9488Z" fill="white"/>
<path d="M151.587 37.122C151.058 37.122 150.596 36.9921 150.202 36.7323C149.807 36.4725 149.499 36.1069 149.278 35.6354C149.057 35.1542 148.946 34.6009 148.946 33.9755C148.946 33.4174 149.071 32.9122 149.321 32.4599C149.581 31.9981 149.923 31.6276 150.346 31.3485C150.769 31.0695 151.231 30.93 151.732 30.93C152.117 30.93 152.458 31.0069 152.756 31.1609C153.055 31.3149 153.286 31.5314 153.449 31.8104C153.623 32.0798 153.709 32.3926 153.709 32.7486C153.709 33.0469 153.565 33.1961 153.276 33.1961H150.231C150.096 33.1961 150 33.2345 149.942 33.3115C149.894 33.3789 149.87 33.5184 149.87 33.7301C149.87 34.192 149.971 34.6154 150.173 35.0003C150.375 35.3755 150.644 35.6787 150.981 35.9096C151.318 36.1309 151.688 36.2416 152.093 36.2416C152.381 36.2416 152.641 36.1886 152.872 36.0828C153.113 35.9673 153.324 35.8037 153.507 35.5921C153.546 35.5439 153.574 35.5151 153.594 35.5054C153.613 35.4862 153.637 35.4766 153.666 35.4766C153.743 35.4766 153.781 35.5247 153.781 35.6209C153.781 35.8037 153.695 36.0058 153.521 36.2271C153.377 36.41 153.204 36.5687 153.002 36.7034C152.8 36.8382 152.578 36.9392 152.338 37.0066C152.097 37.0835 151.847 37.122 151.587 37.122ZM150.259 32.7486H151.573C151.804 32.7486 152.001 32.7438 152.165 32.7342C152.328 32.7246 152.487 32.7053 152.641 32.6764C152.689 32.6668 152.718 32.638 152.728 32.5898C152.747 32.5321 152.756 32.4551 152.756 32.3589C152.756 32.0798 152.631 31.8441 152.381 31.6516C152.141 31.4496 151.852 31.3485 151.515 31.3485C151.294 31.3485 151.073 31.4159 150.851 31.5506C150.63 31.6757 150.447 31.8345 150.303 32.0269C150.158 32.2194 150.086 32.4118 150.086 32.6043C150.086 32.7005 150.144 32.7486 150.259 32.7486ZM151.371 30.3093C151.294 30.3093 151.255 30.266 151.255 30.1794C151.255 30.1505 151.26 30.1169 151.27 30.0784C151.279 30.0303 151.294 29.9773 151.313 29.9196C151.38 29.7368 151.486 29.5058 151.631 29.2268C151.785 28.9381 151.934 28.6591 152.078 28.3896C152.232 28.1202 152.348 27.9229 152.425 27.7978C152.473 27.7209 152.53 27.6583 152.598 27.6102C152.675 27.5621 152.747 27.538 152.814 27.538C152.997 27.538 153.161 27.5621 153.305 27.6102C153.449 27.6583 153.521 27.7353 153.521 27.8411C153.521 27.8989 153.507 27.947 153.478 27.9855C153.459 28.024 153.425 28.0769 153.377 28.1443C153.262 28.3078 153.103 28.5147 152.901 28.7649C152.708 29.0055 152.511 29.2412 152.309 29.4722C152.107 29.7031 151.943 29.8811 151.818 30.0062C151.616 30.2083 151.467 30.3093 151.371 30.3093Z" fill="white"/>
<path d="M156.215 37.1076C155.917 37.1076 155.638 37.0595 155.378 36.9633C155.119 36.8767 154.897 36.7516 154.714 36.588C154.666 36.4821 154.628 36.3041 154.599 36.0539C154.58 35.8037 154.565 35.5969 154.556 35.4333C154.556 35.3467 154.618 35.3034 154.743 35.3034C154.782 35.3034 154.815 35.313 154.844 35.3322C154.883 35.3419 154.907 35.3659 154.916 35.4044C155.042 35.8759 155.239 36.2127 155.508 36.4148C155.787 36.6168 156.066 36.7179 156.345 36.7179C156.624 36.7179 156.86 36.6265 157.053 36.4436C157.255 36.2512 157.356 36.0154 157.356 35.7364C157.356 35.4766 157.269 35.2553 157.096 35.0724C156.923 34.88 156.62 34.649 156.187 34.3796C155.859 34.1775 155.595 33.9851 155.393 33.8023C155.191 33.6194 155.042 33.4318 154.945 33.2394C154.859 33.0469 154.815 32.8304 154.815 32.5898C154.815 32.2819 154.888 32.0029 155.032 31.7527C155.176 31.5025 155.393 31.3052 155.681 31.1609C155.97 31.0069 156.331 30.93 156.764 30.93C157.053 30.93 157.293 30.9588 157.486 31.0166C157.678 31.0743 157.822 31.1368 157.919 31.2042C157.996 31.3101 158.058 31.4784 158.106 31.7094C158.164 31.9307 158.193 32.1424 158.193 32.3445C158.193 32.4118 158.145 32.4455 158.049 32.4455C157.991 32.4455 157.933 32.4359 157.875 32.4166C157.827 32.3878 157.794 32.3541 157.774 32.3156C157.649 31.9981 157.49 31.7575 157.298 31.5939C157.115 31.4207 156.884 31.3341 156.605 31.3341C156.365 31.3341 156.148 31.4063 155.956 31.5506C155.773 31.6949 155.681 31.9066 155.681 32.1857C155.681 32.407 155.749 32.6043 155.884 32.7775C156.028 32.9507 156.292 33.1479 156.677 33.3693C157.235 33.6868 157.649 33.9851 157.919 34.2642C158.198 34.5336 158.337 34.8944 158.337 35.3467C158.337 35.8663 158.14 36.2897 157.745 36.6168C157.351 36.944 156.841 37.1076 156.215 37.1076Z" fill="white"/>
<path d="M162.27 41.0191C162.221 41.0191 162.159 41.0095 162.082 40.9903C162.005 40.9806 161.966 40.947 161.966 40.8892C161.966 40.8122 162 40.7545 162.067 40.716C162.144 40.6872 162.221 40.6583 162.298 40.6294C162.443 40.5813 162.582 40.5236 162.717 40.4562C162.852 40.3985 162.919 40.2734 162.919 40.0809V32.763C162.919 32.6861 162.895 32.5706 162.847 32.4166C162.808 32.2627 162.741 32.1135 162.645 31.9692C162.549 31.8249 162.419 31.7383 162.255 31.7094C162.217 31.6998 162.188 31.6757 162.168 31.6372C162.149 31.5987 162.14 31.5602 162.14 31.5217C162.14 31.4736 162.149 31.4351 162.168 31.4063C162.188 31.3774 162.212 31.3582 162.241 31.3485C162.606 31.2619 162.919 31.1705 163.179 31.0743C163.439 30.9685 163.684 30.8674 163.915 30.7712C163.925 30.7712 163.929 30.7712 163.929 30.7712C163.929 30.7616 163.934 30.7568 163.944 30.7568C163.963 30.7568 163.982 30.7712 164.002 30.8001C164.021 30.8289 164.03 30.8578 164.03 30.8867C164.03 30.9733 164.016 31.1128 163.987 31.3052C163.968 31.4881 163.958 31.6372 163.958 31.7527C163.958 31.8297 163.963 31.873 163.973 31.8826C164.069 31.7864 164.242 31.6661 164.492 31.5217C164.752 31.3678 165.046 31.2331 165.373 31.1176C165.7 30.9925 166.013 30.93 166.311 30.93C166.811 30.93 167.235 31.0647 167.581 31.3341C167.937 31.5939 168.207 31.9355 168.389 32.3589C168.582 32.7727 168.678 33.2057 168.678 33.6579C168.678 34.0909 168.596 34.5143 168.433 34.9281C168.269 35.3322 168.038 35.6979 167.74 36.0251C167.442 36.3522 167.095 36.6168 166.701 36.8189C166.306 37.0114 165.883 37.1076 165.431 37.1076C165.296 37.1076 165.132 37.0835 164.94 37.0354C164.757 36.9969 164.574 36.944 164.391 36.8767C164.218 36.8093 164.083 36.7323 163.987 36.6457C163.978 36.6457 163.968 36.7034 163.958 36.8189C163.949 36.9248 163.939 37.0354 163.929 37.1509C163.929 37.276 163.929 37.353 163.929 37.3818V40.0809C163.929 40.206 163.978 40.3023 164.074 40.3696C164.18 40.4466 164.295 40.4995 164.42 40.5284C164.555 40.5669 164.67 40.6005 164.767 40.6294C164.844 40.6583 164.916 40.6872 164.983 40.716C165.06 40.7545 165.099 40.8122 165.099 40.8892C165.099 40.947 165.06 40.9806 164.983 40.9903C164.906 41.0095 164.839 41.0191 164.781 41.0191C164.502 41.0191 164.266 41.0047 164.074 40.9758C163.891 40.9566 163.674 40.947 163.424 40.947C163.261 40.947 163.126 40.9518 163.02 40.9614C162.924 40.971 162.823 40.9806 162.717 40.9903C162.611 41.0095 162.462 41.0191 162.27 41.0191ZM165.647 36.6601C165.791 36.6601 165.965 36.6168 166.167 36.5302C166.378 36.4436 166.585 36.3041 166.787 36.1117C166.999 35.9192 167.172 35.6594 167.307 35.3322C167.451 35.0051 167.523 34.6009 167.523 34.1198C167.523 33.5617 167.451 33.1143 167.307 32.7775C167.163 32.4407 166.985 32.1857 166.773 32.0125C166.561 31.8393 166.345 31.7238 166.123 31.6661C165.902 31.6083 165.714 31.5795 165.56 31.5795C165.329 31.5795 165.089 31.6276 164.839 31.7238C164.598 31.82 164.391 31.9307 164.218 32.0558C164.054 32.1713 163.973 32.2627 163.973 32.33C163.973 32.5417 163.968 32.7582 163.958 32.9796C163.958 33.1912 163.953 33.3981 163.944 33.6002C163.944 33.8023 163.939 33.9851 163.929 34.1487C163.929 34.3026 163.929 34.4229 163.929 34.5095C163.929 34.8944 164.016 35.2505 164.189 35.5776C164.372 35.9048 164.593 36.1694 164.853 36.3715C165.123 36.5639 165.387 36.6601 165.647 36.6601Z" fill="white"/>
<path d="M170.584 37.1076C170.41 37.1076 170.232 37.0402 170.05 36.9055C169.876 36.7708 169.727 36.6072 169.602 36.4148C169.487 36.2223 169.429 36.0395 169.429 35.8663C169.429 35.5584 169.511 35.3178 169.674 35.1446C169.838 34.9714 170.098 34.8126 170.454 34.6683L171.926 34.0621C172.118 33.9851 172.229 33.9177 172.258 33.86C172.296 33.8023 172.321 33.6772 172.33 33.4847L172.359 32.561C172.369 32.3108 172.296 32.0943 172.143 31.9115C171.998 31.7286 171.786 31.6372 171.507 31.6372C171.363 31.6372 171.219 31.6613 171.074 31.7094C170.93 31.7575 170.81 31.82 170.714 31.897C170.656 31.9355 170.617 31.9932 170.598 32.0702C170.579 32.1472 170.569 32.229 170.569 32.3156C170.569 32.3541 170.569 32.3974 170.569 32.4455C170.579 32.4936 170.584 32.5369 170.584 32.5754C170.584 32.6235 170.521 32.6909 170.396 32.7775C170.281 32.8545 170.146 32.9266 169.992 32.994C169.848 33.0517 169.727 33.0806 169.631 33.0806C169.583 33.0806 169.544 33.071 169.516 33.0517C169.487 33.0229 169.472 32.9892 169.472 32.9507C169.472 32.7967 169.52 32.6331 169.617 32.4599C169.722 32.2771 169.867 32.1087 170.05 31.9548C170.271 31.7527 170.512 31.5747 170.771 31.4207C171.031 31.2668 171.286 31.1465 171.536 31.0599C171.786 30.9733 172.008 30.93 172.2 30.93C172.547 30.93 172.831 31.0551 173.052 31.3052C173.283 31.5458 173.393 31.8489 173.384 32.2146L173.312 35.6787C173.302 35.8807 173.345 36.0443 173.442 36.1694C173.547 36.2945 173.677 36.357 173.831 36.357C174.072 36.357 174.25 36.3041 174.365 36.1983C174.413 36.1502 174.452 36.1261 174.481 36.1261C174.529 36.1261 174.567 36.1405 174.596 36.1694C174.625 36.1983 174.64 36.2368 174.64 36.2849C174.64 36.3907 174.587 36.4966 174.481 36.6024C174.327 36.7564 174.158 36.8767 173.976 36.9633C173.802 37.0595 173.639 37.1076 173.485 37.1076C173.042 37.1076 172.691 36.8574 172.431 36.357H172.388C172.07 36.6168 171.767 36.8045 171.479 36.92C171.19 37.045 170.892 37.1076 170.584 37.1076ZM171.262 36.4148C171.455 36.4148 171.618 36.3859 171.753 36.3282C171.888 36.2608 172.008 36.1742 172.114 36.0684C172.162 36.0203 172.2 35.9577 172.229 35.8807C172.268 35.7941 172.292 35.6594 172.301 35.4766L172.33 34.7693C172.34 34.6635 172.335 34.5865 172.316 34.5384C172.296 34.4903 172.258 34.4662 172.2 34.4662C172.181 34.4662 172.147 34.471 172.099 34.4807C172.051 34.4903 171.989 34.5095 171.912 34.5384C171.402 34.7212 171.046 34.9137 170.843 35.1157C170.651 35.3082 170.555 35.4862 170.555 35.6498C170.555 35.9 170.627 36.0924 170.771 36.2271C170.925 36.3522 171.089 36.4148 171.262 36.4148Z" fill="white"/>
<path d="M175.367 36.9488C175.271 36.9488 175.199 36.9344 175.151 36.9055C175.103 36.8863 175.079 36.8478 175.079 36.79C175.079 36.7131 175.107 36.665 175.165 36.6457C175.223 36.6168 175.305 36.588 175.411 36.5591C175.593 36.511 175.728 36.4436 175.815 36.357C175.911 36.2608 175.959 36.1453 175.959 36.0106V32.9074C175.959 32.6476 175.921 32.4214 175.844 32.229C175.767 32.0365 175.608 31.9163 175.367 31.8682C175.329 31.8585 175.295 31.8345 175.266 31.796C175.237 31.7575 175.223 31.719 175.223 31.6805C175.223 31.5843 175.266 31.5266 175.353 31.5073C175.603 31.4303 175.863 31.3197 176.132 31.1753C176.411 31.0214 176.628 30.8963 176.782 30.8001C176.839 30.7616 176.883 30.7375 176.912 30.7279C176.95 30.7086 176.979 30.699 176.998 30.699C177.046 30.699 177.07 30.7327 177.07 30.8001C177.07 30.8289 177.066 30.9011 177.056 31.0166C177.056 31.132 177.051 31.2668 177.042 31.4207C177.042 31.5747 177.037 31.7286 177.027 31.8826C177.027 31.9018 177.037 31.9115 177.056 31.9115C177.21 31.719 177.378 31.5506 177.561 31.4063C177.754 31.2619 177.946 31.1465 178.138 31.0599C178.341 30.9733 178.533 30.93 178.716 30.93C178.918 30.93 179.081 30.9733 179.207 31.0599C179.341 31.1465 179.409 31.2571 179.409 31.3918C179.409 31.4881 179.38 31.5939 179.322 31.7094C179.274 31.8249 179.207 31.9259 179.12 32.0125C179.033 32.0991 178.942 32.1424 178.846 32.1424C178.788 32.1424 178.725 32.1328 178.658 32.1135C178.591 32.0847 178.519 32.051 178.442 32.0125C178.365 31.9836 178.288 31.9548 178.211 31.9259C178.134 31.897 178.057 31.8826 177.98 31.8826C177.749 31.8826 177.523 31.9644 177.301 32.128C177.09 32.2915 176.984 32.6139 176.984 33.095V36.0106C176.984 36.1357 177.051 36.2416 177.186 36.3282C177.321 36.4052 177.508 36.4821 177.749 36.5591C177.855 36.588 177.936 36.6168 177.994 36.6457C178.052 36.6746 178.081 36.7227 178.081 36.79C178.081 36.8959 177.985 36.9488 177.792 36.9488C177.503 36.9488 177.282 36.9344 177.128 36.9055C176.984 36.8863 176.787 36.8767 176.536 36.8767C176.373 36.8767 176.238 36.8815 176.132 36.8911C176.036 36.9007 175.93 36.9103 175.815 36.92C175.709 36.9392 175.56 36.9488 175.367 36.9488Z" fill="white"/>
<path d="M183.005 36.9488C182.919 36.9488 182.846 36.9344 182.789 36.9055C182.741 36.8863 182.717 36.8478 182.717 36.79C182.717 36.7131 182.745 36.665 182.803 36.6457C182.861 36.6168 182.943 36.588 183.049 36.5591C183.193 36.5206 183.332 36.4677 183.467 36.4003C183.602 36.333 183.669 36.2031 183.669 36.0106V32.9074C183.669 32.6476 183.64 32.4263 183.583 32.2434C183.534 32.0606 183.385 31.9355 183.135 31.8682C183.097 31.8489 183.063 31.8297 183.034 31.8104C183.005 31.7816 182.991 31.7383 182.991 31.6805C182.991 31.5747 183.034 31.5169 183.121 31.5073C183.458 31.4207 183.732 31.3149 183.943 31.1898C184.155 31.0647 184.362 30.9252 184.564 30.7712C184.593 30.7519 184.617 30.7375 184.636 30.7279C184.665 30.7086 184.694 30.699 184.723 30.699C184.742 30.699 184.757 30.7086 184.766 30.7279C184.785 30.7471 184.795 30.7712 184.795 30.8001C184.795 30.8674 184.781 31.0069 184.752 31.2186C184.732 31.4207 184.723 31.5891 184.723 31.7238C184.723 31.7623 184.723 31.8008 184.723 31.8393C184.732 31.8682 184.742 31.8874 184.752 31.897C185.089 31.5795 185.445 31.3389 185.82 31.1753C186.205 31.0118 186.623 30.93 187.076 30.93C187.547 30.93 187.937 31.1224 188.245 31.5073C188.553 31.8922 188.707 32.3685 188.707 32.9362V36.0106C188.707 36.2031 188.774 36.333 188.909 36.4003C189.043 36.4581 189.183 36.511 189.327 36.5591C189.404 36.588 189.476 36.6217 189.544 36.6601C189.621 36.689 189.659 36.7419 189.659 36.8189C189.659 36.8767 189.626 36.9103 189.558 36.92C189.491 36.9392 189.428 36.9488 189.371 36.9488C189.178 36.9488 189.029 36.9392 188.923 36.92C188.817 36.9103 188.716 36.9007 188.62 36.8911C188.524 36.8815 188.389 36.8767 188.216 36.8767C188.052 36.8767 187.918 36.8815 187.812 36.8911C187.706 36.9007 187.595 36.9103 187.48 36.92C187.374 36.9392 187.225 36.9488 187.032 36.9488C186.984 36.9488 186.922 36.9392 186.845 36.92C186.777 36.9103 186.744 36.8767 186.744 36.8189C186.744 36.7419 186.777 36.689 186.845 36.6601C186.922 36.6217 186.999 36.588 187.076 36.5591C187.22 36.511 187.359 36.4581 187.494 36.4003C187.629 36.333 187.696 36.2031 187.696 36.0106V32.9796C187.696 32.5562 187.576 32.229 187.335 31.9981C187.104 31.7575 186.792 31.6324 186.397 31.6228C186.051 31.6228 185.748 31.6805 185.488 31.796C185.228 31.9018 184.997 32.0365 184.795 32.2001C184.757 32.2386 184.728 32.2915 184.708 32.3589C184.689 32.4166 184.68 32.4744 184.68 32.5321V36.0106C184.68 36.2031 184.747 36.333 184.882 36.4003C185.016 36.4677 185.156 36.5206 185.3 36.5591C185.522 36.6168 185.632 36.6938 185.632 36.79C185.632 36.8478 185.608 36.8863 185.56 36.9055C185.512 36.9344 185.44 36.9488 185.344 36.9488C185.151 36.9488 184.997 36.9392 184.882 36.92C184.776 36.9103 184.675 36.9007 184.579 36.8911C184.482 36.8815 184.348 36.8767 184.174 36.8767C184.011 36.8767 183.876 36.8815 183.77 36.8911C183.674 36.9007 183.568 36.9103 183.453 36.92C183.347 36.9392 183.198 36.9488 183.005 36.9488Z" fill="white"/>
<path d="M191.685 37.1076C191.511 37.1076 191.333 37.0402 191.15 36.9055C190.977 36.7708 190.828 36.6072 190.703 36.4148C190.588 36.2223 190.53 36.0395 190.53 35.8663C190.53 35.5584 190.612 35.3178 190.775 35.1446C190.939 34.9714 191.199 34.8126 191.555 34.6683L193.027 34.0621C193.219 33.9851 193.33 33.9177 193.359 33.86C193.397 33.8023 193.421 33.6772 193.431 33.4847L193.46 32.561C193.47 32.3108 193.397 32.0943 193.243 31.9115C193.099 31.7286 192.887 31.6372 192.608 31.6372C192.464 31.6372 192.32 31.6613 192.175 31.7094C192.031 31.7575 191.911 31.82 191.814 31.897C191.757 31.9355 191.718 31.9932 191.699 32.0702C191.68 32.1472 191.67 32.229 191.67 32.3156C191.67 32.3541 191.67 32.3974 191.67 32.4455C191.68 32.4936 191.685 32.5369 191.685 32.5754C191.685 32.6235 191.622 32.6909 191.497 32.7775C191.381 32.8545 191.247 32.9266 191.093 32.994C190.948 33.0517 190.828 33.0806 190.732 33.0806C190.684 33.0806 190.645 33.071 190.616 33.0517C190.588 33.0229 190.573 32.9892 190.573 32.9507C190.573 32.7967 190.621 32.6331 190.717 32.4599C190.823 32.2771 190.968 32.1087 191.15 31.9548C191.372 31.7527 191.612 31.5747 191.872 31.4207C192.132 31.2668 192.387 31.1465 192.637 31.0599C192.887 30.9733 193.109 30.93 193.301 30.93C193.648 30.93 193.931 31.0551 194.153 31.3052C194.384 31.5458 194.494 31.8489 194.485 32.2146L194.413 35.6787C194.403 35.8807 194.446 36.0443 194.542 36.1694C194.648 36.2945 194.778 36.357 194.932 36.357C195.173 36.357 195.351 36.3041 195.466 36.1983C195.514 36.1502 195.553 36.1261 195.582 36.1261C195.63 36.1261 195.668 36.1405 195.697 36.1694C195.726 36.1983 195.74 36.2368 195.74 36.2849C195.74 36.3907 195.687 36.4966 195.582 36.6024C195.428 36.7564 195.259 36.8767 195.076 36.9633C194.903 37.0595 194.74 37.1076 194.586 37.1076C194.143 37.1076 193.792 36.8574 193.532 36.357H193.489C193.171 36.6168 192.868 36.8045 192.579 36.92C192.291 37.045 191.992 37.1076 191.685 37.1076ZM192.363 36.4148C192.555 36.4148 192.719 36.3859 192.854 36.3282C192.988 36.2608 193.109 36.1742 193.215 36.0684C193.263 36.0203 193.301 35.9577 193.33 35.8807C193.368 35.7941 193.393 35.6594 193.402 35.4766L193.431 34.7693C193.441 34.6635 193.436 34.5865 193.417 34.5384C193.397 34.4903 193.359 34.4662 193.301 34.4662C193.282 34.4662 193.248 34.471 193.2 34.4807C193.152 34.4903 193.089 34.5095 193.012 34.5384C192.502 34.7212 192.146 34.9137 191.944 35.1157C191.752 35.3082 191.656 35.4862 191.656 35.6498C191.656 35.9 191.728 36.0924 191.872 36.2271C192.026 36.3522 192.19 36.4148 192.363 36.4148Z" fill="white"/>
<path d="M198.489 37.1076C198.017 37.1076 197.647 36.9633 197.377 36.6746C197.118 36.3859 196.988 35.9577 196.988 35.39V32.0414C196.988 31.9644 196.959 31.9115 196.901 31.8826C196.843 31.8441 196.718 31.8249 196.526 31.8249H196.439C196.391 31.8249 196.348 31.796 196.309 31.7383C196.28 31.6709 196.266 31.6035 196.266 31.5362C196.266 31.5169 196.28 31.4881 196.309 31.4496C196.338 31.4111 196.357 31.387 196.367 31.3774C196.559 31.2427 196.733 31.108 196.887 30.9733C197.05 30.8385 197.195 30.7086 197.32 30.5836C197.454 30.4488 197.565 30.3286 197.652 30.2227C197.7 30.1746 197.738 30.1361 197.767 30.1072C197.806 30.0688 197.849 30.0495 197.897 30.0495C197.945 30.0495 197.988 30.0591 198.027 30.0784C198.075 30.0976 198.094 30.1409 198.085 30.2083L198.012 30.8578C198.003 30.9636 198.027 31.0358 198.085 31.0743C198.142 31.1128 198.234 31.132 198.359 31.132H200.004C200.043 31.132 200.076 31.1657 200.105 31.2331C200.134 31.2908 200.149 31.363 200.149 31.4496C200.149 31.5362 200.134 31.6228 200.105 31.7094C200.076 31.7864 200.043 31.8249 200.004 31.8249H198.575C198.335 31.8249 198.176 31.8441 198.099 31.8826C198.032 31.9211 197.998 32.0365 197.998 32.229V35.0724C197.998 35.4573 198.08 35.7604 198.243 35.9818C198.407 36.2031 198.643 36.3137 198.951 36.3137C199.23 36.3137 199.446 36.2945 199.6 36.256C199.754 36.2079 199.894 36.1405 200.019 36.0539C200.038 36.0347 200.057 36.0251 200.076 36.0251C200.115 36.0251 200.139 36.0491 200.149 36.0972C200.168 36.1357 200.178 36.179 200.178 36.2271C200.178 36.2752 200.096 36.3715 199.932 36.5158C199.778 36.6601 199.571 36.7949 199.312 36.92C199.061 37.045 198.787 37.1076 198.489 37.1076Z" fill="white"/>
<path d="M205.582 37.1798C205.515 37.1798 205.481 37.1413 205.481 37.0643C205.481 36.9681 205.491 36.8285 205.51 36.6457C205.539 36.4533 205.553 36.2945 205.553 36.1694C205.553 36.1502 205.553 36.1357 205.553 36.1261C205.553 36.1069 205.553 36.0924 205.553 36.0828C205.178 36.4485 204.798 36.7131 204.413 36.8767C204.038 37.0306 203.624 37.1076 203.172 37.1076C202.864 37.1076 202.585 37.0402 202.335 36.9055C202.085 36.7804 201.887 36.5928 201.743 36.3426C201.599 36.0828 201.526 35.7653 201.526 35.39V32.4599C201.526 32.2482 201.478 32.0798 201.382 31.9548C201.286 31.8297 201.127 31.7238 200.906 31.6372C200.858 31.618 200.814 31.5939 200.776 31.565C200.737 31.5362 200.718 31.4833 200.718 31.4063C200.718 31.3197 200.737 31.2619 200.776 31.2331C200.824 31.2042 200.877 31.185 200.935 31.1753C201.262 31.1561 201.512 31.132 201.685 31.1032C201.868 31.0647 202.094 31.0118 202.364 30.9444C202.392 30.9348 202.412 30.93 202.421 30.93C202.441 30.93 202.46 30.93 202.479 30.93C202.585 30.93 202.633 30.9973 202.623 31.132C202.594 31.3534 202.57 31.541 202.551 31.6949C202.542 31.8393 202.537 32.0221 202.537 32.2434V35.058C202.537 35.2889 202.595 35.5055 202.71 35.7075C202.825 35.9 202.975 36.0587 203.157 36.1838C203.35 36.3089 203.547 36.3715 203.749 36.3715C203.999 36.3715 204.216 36.357 204.399 36.3282C204.591 36.2993 204.779 36.2175 204.962 36.0828C205.067 36.0058 205.202 35.8807 205.366 35.7075C205.529 35.5343 205.611 35.2986 205.611 35.0003V32.3589C205.611 32.1568 205.549 32.0077 205.424 31.9115C205.308 31.8056 205.173 31.7334 205.019 31.6949C204.865 31.6565 204.74 31.6372 204.644 31.6372C204.557 31.6372 204.485 31.6228 204.428 31.5939C204.37 31.5554 204.341 31.4881 204.341 31.3918C204.341 31.3052 204.37 31.2475 204.428 31.2186C204.495 31.1898 204.567 31.1753 204.644 31.1753C204.942 31.1657 205.188 31.1561 205.38 31.1465C205.582 31.1272 205.76 31.1032 205.914 31.0743C206.078 31.0358 206.246 30.9925 206.419 30.9444C206.439 30.9348 206.463 30.93 206.492 30.93C206.52 30.9203 206.545 30.9155 206.564 30.9155C206.689 30.9155 206.751 30.9685 206.751 31.0743C206.751 31.0839 206.747 31.1032 206.737 31.132C206.737 31.1513 206.732 31.1753 206.723 31.2042C206.713 31.2331 206.698 31.3149 206.679 31.4496C206.67 31.5843 206.655 31.7238 206.636 31.8682C206.626 32.0125 206.622 32.1231 206.622 32.2001V35.5343C206.622 35.7941 206.646 35.9818 206.694 36.0972C206.751 36.2031 206.814 36.256 206.881 36.256C206.958 36.256 207.069 36.2512 207.213 36.2416C207.367 36.2223 207.478 36.2127 207.545 36.2127C207.593 36.2127 207.641 36.2223 207.69 36.2416C207.738 36.2608 207.762 36.3137 207.762 36.4003C207.762 36.4773 207.743 36.5302 207.704 36.5591C207.666 36.5784 207.617 36.5928 207.56 36.6024C207.184 36.6505 206.862 36.7227 206.593 36.8189C206.323 36.9151 206.083 37.0066 205.871 37.0932C205.842 37.1028 205.799 37.1172 205.741 37.1365C205.683 37.1653 205.63 37.1798 205.582 37.1798Z" fill="white"/>
<path d="M208.618 36.9488C208.522 36.9488 208.45 36.9344 208.402 36.9055C208.354 36.8863 208.33 36.8478 208.33 36.79C208.33 36.7131 208.359 36.665 208.416 36.6457C208.474 36.6168 208.556 36.588 208.662 36.5591C208.844 36.511 208.979 36.4436 209.066 36.357C209.162 36.2608 209.21 36.1453 209.21 36.0106V32.9074C209.21 32.6476 209.172 32.4214 209.095 32.229C209.018 32.0365 208.859 31.9163 208.618 31.8682C208.58 31.8585 208.546 31.8345 208.517 31.796C208.488 31.7575 208.474 31.719 208.474 31.6805C208.474 31.5843 208.517 31.5266 208.604 31.5073C208.854 31.4303 209.114 31.3197 209.383 31.1753C209.662 31.0214 209.879 30.8963 210.033 30.8001C210.091 30.7616 210.134 30.7375 210.163 30.7279C210.201 30.7086 210.23 30.699 210.249 30.699C210.297 30.699 210.321 30.7327 210.321 30.8001C210.321 30.8289 210.317 30.9011 210.307 31.0166C210.307 31.132 210.302 31.2668 210.293 31.4207C210.293 31.5747 210.288 31.7286 210.278 31.8826C210.278 31.9018 210.288 31.9115 210.307 31.9115C210.461 31.719 210.629 31.5506 210.812 31.4063C211.005 31.2619 211.197 31.1465 211.39 31.0599C211.592 30.9733 211.784 30.93 211.967 30.93C212.169 30.93 212.333 30.9733 212.458 31.0599C212.592 31.1465 212.66 31.2571 212.66 31.3918C212.66 31.4881 212.631 31.5939 212.573 31.7094C212.525 31.8249 212.458 31.9259 212.371 32.0125C212.284 32.0991 212.193 32.1424 212.097 32.1424C212.039 32.1424 211.977 32.1328 211.909 32.1135C211.842 32.0847 211.77 32.051 211.693 32.0125C211.616 31.9836 211.539 31.9548 211.462 31.9259C211.385 31.897 211.308 31.8826 211.231 31.8826C211 31.8826 210.774 31.9644 210.552 32.128C210.341 32.2915 210.235 32.6139 210.235 33.095V36.0106C210.235 36.1357 210.302 36.2416 210.437 36.3282C210.572 36.4052 210.759 36.4821 211 36.5591C211.106 36.588 211.188 36.6168 211.245 36.6457C211.303 36.6746 211.332 36.7227 211.332 36.79C211.332 36.8959 211.236 36.9488 211.043 36.9488C210.755 36.9488 210.533 36.9344 210.379 36.9055C210.235 36.8863 210.038 36.8767 209.787 36.8767C209.624 36.8767 209.489 36.8815 209.383 36.8911C209.287 36.9007 209.181 36.9103 209.066 36.92C208.96 36.9392 208.811 36.9488 208.618 36.9488Z" fill="white"/>
<path d="M215.806 37.122C215.277 37.122 214.815 36.9921 214.42 36.7323C214.026 36.4725 213.718 36.1069 213.497 35.6354C213.275 35.1542 213.165 34.6009 213.165 33.9755C213.165 33.4174 213.29 32.9122 213.54 32.4599C213.8 31.9981 214.141 31.6276 214.565 31.3485C214.988 31.0695 215.45 30.93 215.95 30.93C216.335 30.93 216.677 31.0069 216.975 31.1609C217.274 31.3149 217.504 31.5314 217.668 31.8104C217.841 32.0798 217.928 32.3926 217.928 32.7486C217.928 33.0469 217.783 33.1961 217.495 33.1961H214.449C214.315 33.1961 214.218 33.2345 214.161 33.3115C214.113 33.3789 214.088 33.5184 214.088 33.7301C214.088 34.192 214.19 34.6154 214.392 35.0003C214.594 35.3755 214.863 35.6787 215.2 35.9096C215.537 36.1309 215.907 36.2416 216.311 36.2416C216.6 36.2416 216.86 36.1886 217.091 36.0828C217.331 35.9673 217.543 35.8037 217.726 35.5921C217.764 35.5439 217.793 35.5151 217.812 35.5054C217.832 35.4862 217.856 35.4766 217.885 35.4766C217.962 35.4766 218 35.5247 218 35.6209C218 35.8037 217.913 36.0058 217.74 36.2271C217.596 36.41 217.423 36.5687 217.221 36.7034C217.019 36.8382 216.797 36.9392 216.557 37.0066C216.316 37.0835 216.066 37.122 215.806 37.122ZM214.478 32.7486H215.792C216.023 32.7486 216.22 32.7438 216.383 32.7342C216.547 32.7246 216.706 32.7053 216.86 32.6764C216.908 32.6668 216.937 32.638 216.946 32.5898C216.966 32.5321 216.975 32.4551 216.975 32.3589C216.975 32.0798 216.85 31.8441 216.6 31.6516C216.359 31.4496 216.071 31.3485 215.734 31.3485C215.513 31.3485 215.291 31.4159 215.07 31.5506C214.849 31.6757 214.666 31.8345 214.521 32.0269C214.377 32.2194 214.305 32.4118 214.305 32.6043C214.305 32.7005 214.363 32.7486 214.478 32.7486Z" fill="white"/>
</svg>
