<svg xmlns="http://www.w3.org/2000/svg" width="863" height="256" viewBox="0 0 863 256" fill="none"><path d="M251.87 98.0651H185.432H177.174H168.488C166.585 88.9839 158.52 82.1315 148.868 82.0766C146.941 72.3449 138.316 64.9835 127.999 64.9835C117.682 64.9835 109.057 72.3454 107.13 82.0766C97.4785 82.132 89.4132 88.9839 87.51 98.0651H78.8258H70.5678H4.12902C1.8487 98.0651 0 99.9085 0 102.182C0 132.111 24.4196 156.461 54.4359 156.461H70.7219C72.3719 179.581 87.8139 199.503 110.2 206.795C110.626 206.934 111.058 207 111.483 207C113.221 207 114.838 205.897 115.407 204.16C116.115 201.999 114.932 199.674 112.765 198.968C93.7855 192.786 80.6316 176.005 78.9998 156.461H87.2914C89.368 177.031 106.832 193.142 128 193.142C149.167 193.142 166.631 177.031 168.708 156.461H177C175.368 176.005 162.214 192.786 143.235 198.968C141.067 199.675 139.884 201.999 140.592 204.16C141.161 205.897 142.778 207 144.516 207C144.941 207 145.374 206.934 145.8 206.795C168.186 199.503 183.628 179.581 185.278 156.461H201.564C231.58 156.461 256 132.112 256 102.182C255.999 99.9085 254.151 98.0651 251.87 98.0651ZM107.248 90.3102H110.858H128.626C130.907 90.3102 132.755 88.4668 132.755 86.1931C132.755 83.9194 130.907 82.076 128.626 82.076H115.662C117.393 76.934 122.268 73.2172 128 73.2172C135.176 73.2172 141.013 79.0382 141.013 86.1931C141.013 88.4668 142.862 90.3102 145.142 90.3102H148.752C155.317 90.3102 160.658 95.6361 160.658 102.182C160.658 108.728 155.317 114.054 148.752 114.054H139.004C134.797 114.054 130.88 115.719 128 118.518C125.12 115.719 121.202 114.054 116.995 114.054H107.248C100.683 114.054 95.3419 108.728 95.3419 102.182C95.3419 95.6361 100.683 90.3102 107.248 90.3102ZM27.7625 139.74H53.8287C56.109 139.74 57.9577 137.897 57.9577 135.623C57.9577 133.35 56.109 131.506 53.8287 131.506H18.8592C16.6972 128.903 14.8215 126.057 13.269 123.02H43.8805C46.1608 123.02 48.0095 121.177 48.0095 118.903C48.0095 116.629 46.1608 114.786 43.8805 114.786H10.017C9.2358 112.052 8.70068 109.215 8.44082 106.3H87.0839V148.227H54.4359C44.5054 148.227 35.3015 145.079 27.7625 139.74ZM95.3419 152.344V118.395C98.6809 120.84 102.797 122.288 107.248 122.288H116.995C119.995 122.288 122.685 124.068 123.871 126.774V184.638C107.807 182.606 95.3419 168.904 95.3419 152.344ZM132.129 184.638V126.774C133.314 124.068 136.004 122.288 139.004 122.288H148.752C153.202 122.288 157.319 120.84 160.658 118.396V152.344C160.658 168.904 148.193 182.607 132.129 184.638ZM168.916 148.227V106.299H247.558C247.298 109.214 246.763 112.051 245.982 114.785H212.118C209.838 114.785 207.989 116.629 207.989 118.903C207.989 121.176 209.838 123.02 212.118 123.02H242.73C241.177 126.056 239.302 128.903 237.14 131.506H202.17C199.89 131.506 198.041 133.349 198.041 135.623C198.041 137.897 199.89 139.74 202.17 139.74H228.236C220.697 145.079 211.494 148.226 201.563 148.226L168.916 148.227Z" fill="#171E52"/><path d="M110.176 48.2048C87.7897 55.497 72.3477 75.4193 70.6978 98.5392L78.9756 98.5386C80.6074 78.9946 93.7614 62.2139 112.741 56.0316C114.908 55.3257 116.091 53.0015 115.383 50.8397C114.814 49.1028 113.197 48 111.459 48C111.034 48 110.602 48.0664 110.176 48.2048Z" fill="#171E52"/><path d="M143.211 56.0316C162.19 62.2139 175.344 78.9946 176.975 98.5386L185.254 98.5392C183.603 75.4193 168.162 55.497 145.775 48.2048C145.349 48.0659 144.917 48 144.492 48C142.754 48 141.137 49.1028 140.568 50.8397C139.86 53.0009 141.043 55.3251 143.211 56.0316Z" fill="#171E52"/><path d="M357.637 132.612C351.877 132.612 346.317 131.652 340.957 129.732C335.677 127.812 330.997 125.092 326.917 121.572C322.837 118.052 319.597 113.812 317.197 108.852C314.877 103.892 313.717 98.3725 313.717 92.2925C313.717 86.6125 314.917 81.2925 317.317 76.3325C319.717 71.2925 323.037 66.9325 327.277 63.2525C331.597 59.4925 336.597 56.5725 342.277 54.4925C347.957 52.3325 354.117 51.2525 360.757 51.2525C363.717 51.2525 366.357 51.4125 368.677 51.7325C370.997 51.9725 373.237 52.3325 375.397 52.8125C377.557 53.2925 379.877 53.9325 382.357 54.7325C383.397 55.0525 384.157 55.4925 384.637 56.0525C385.197 56.6125 385.517 57.4525 385.597 58.5725C385.837 60.6525 386.037 62.8125 386.197 65.0525C386.437 67.2925 386.597 69.7725 386.677 72.4925C386.677 73.2125 386.357 73.7325 385.717 74.0525C385.157 74.3725 384.517 74.4525 383.797 74.2925C383.077 74.0525 382.597 73.4925 382.357 72.6125C381.637 69.9725 380.797 67.6125 379.837 65.5325C378.877 63.4525 377.477 61.7325 375.637 60.3725C373.797 58.9325 371.437 57.8125 368.557 57.0125C365.757 56.2125 362.597 55.8125 359.077 55.8125C354.597 55.8125 350.477 56.7325 346.717 58.5725C342.957 60.4125 339.757 62.9325 337.117 66.1325C334.477 69.2525 332.397 72.8125 330.877 76.8125C329.437 80.8125 328.717 84.9725 328.717 89.2925C328.717 94.3325 329.397 99.1725 330.757 103.812C332.197 108.452 334.237 112.572 336.877 116.172C339.597 119.772 342.877 122.652 346.717 124.812C350.557 126.892 354.877 127.932 359.677 127.932C365.437 127.932 370.197 126.652 373.957 124.092C377.717 121.452 380.877 117.692 383.437 112.812C383.997 111.692 384.837 111.132 385.957 111.132C387.077 111.132 387.637 111.772 387.637 113.052C387.637 113.852 387.477 114.972 387.157 116.412C386.917 117.772 386.557 119.292 386.077 120.972C385.597 122.572 385.117 124.052 384.637 125.412C384.157 126.452 383.717 127.172 383.317 127.572C382.917 127.972 382.157 128.372 381.037 128.772C377.997 130.052 374.397 131.012 370.237 131.652C366.157 132.292 361.957 132.612 357.637 132.612Z" fill="#171E52"/><path d="M400.952 131.412C399.992 131.412 399.232 131.292 398.672 131.052C398.112 130.812 397.832 130.452 397.832 129.972C397.832 128.932 398.992 128.172 401.312 127.692C404.272 127.052 406.392 126.172 407.672 125.052C409.032 123.852 409.712 121.852 409.712 119.052V64.8125C409.712 62.0925 409.152 60.1325 408.032 58.9325C406.912 57.7325 404.872 56.8525 401.912 56.2925C400.712 56.0525 399.832 55.7325 399.272 55.3325C398.712 54.9325 398.432 54.4525 398.432 53.8925C398.432 53.4125 398.712 53.0525 399.272 52.8125C399.832 52.4925 400.592 52.3325 401.552 52.3325C404.192 52.3325 406.552 52.3725 408.632 52.4525C410.792 52.5325 412.872 52.6125 414.872 52.6925C416.952 52.7725 419.192 52.8125 421.592 52.8125C424.792 52.8125 428.152 52.8125 431.672 52.8125C435.272 52.7325 438.512 52.6525 441.392 52.5725C444.112 52.5725 446.352 52.5325 448.112 52.4525C449.952 52.2925 451.032 52.2125 451.352 52.2125C451.832 52.2125 452.312 52.3325 452.792 52.5725C453.352 52.7325 453.672 53.0925 453.752 53.6525C454.152 56.1325 454.552 58.5725 454.952 60.9725C455.432 63.2925 455.672 65.3325 455.672 67.0925C455.672 67.8925 455.472 68.4525 455.072 68.7725C454.752 69.0125 454.392 69.1325 453.992 69.1325C453.592 69.1325 453.272 69.0125 453.032 68.7725C452.792 68.5325 452.552 68.1725 452.312 67.6925C451.752 66.0925 451.232 64.6525 450.752 63.3725C450.272 62.0125 449.712 61.0125 449.072 60.3725C448.032 59.2525 446.832 58.4125 445.472 57.8525C444.112 57.2925 442.592 57.0125 440.912 57.0125H427.472C426.432 57.0125 425.312 57.4125 424.112 58.2125C422.992 58.9325 422.432 59.9725 422.432 61.3325V85.8125C422.432 86.6125 422.672 87.2525 423.152 87.7325C423.632 88.2125 424.192 88.4525 424.832 88.4525H436.232C438.552 88.4525 440.152 87.9325 441.032 86.8925C441.912 85.8525 442.632 84.2525 443.192 82.0925C443.752 80.4925 444.512 79.6925 445.472 79.6925C445.872 79.6925 446.232 79.8925 446.552 80.2925C446.872 80.6125 447.032 81.1325 447.032 81.8525C447.032 82.3325 446.992 83.1325 446.912 84.2525C446.832 85.3725 446.752 86.5325 446.672 87.7325C446.592 88.9325 446.552 89.8925 446.552 90.6125C446.552 91.4925 446.552 92.5725 446.552 93.8525C446.632 95.0525 446.712 96.2525 446.792 97.4525C446.872 98.6525 446.912 99.5325 446.912 100.092C446.992 100.812 446.912 101.412 446.672 101.892C446.512 102.292 446.232 102.492 445.832 102.492C444.552 102.492 443.592 101.332 442.952 99.0125C442.472 96.9325 441.792 95.3725 440.912 94.3325C440.112 93.2925 438.912 92.7725 437.312 92.7725H426.152C424.872 92.7725 423.912 92.9725 423.272 93.3725C422.712 93.7725 422.432 94.6125 422.432 95.8925V118.812C422.432 121.612 423.032 123.572 424.232 124.692C425.432 125.732 427.272 126.252 429.752 126.252H439.232C441.472 126.252 443.432 126.092 445.112 125.772C446.792 125.452 448.232 124.852 449.432 123.972C450.792 123.012 451.992 121.772 453.032 120.252C454.072 118.732 455.152 116.852 456.272 114.612C456.592 114.132 456.912 113.772 457.232 113.532C457.552 113.212 457.912 113.092 458.312 113.172C458.792 113.172 459.112 113.372 459.272 113.772C459.512 114.092 459.632 114.532 459.632 115.092C459.632 115.972 459.432 117.292 459.032 119.052C458.632 120.812 458.112 122.652 457.472 124.572C456.912 126.492 456.392 128.132 455.912 129.492C455.672 130.052 455.392 130.492 455.072 130.812C454.752 131.212 454.352 131.412 453.872 131.412C450.992 131.412 447.992 131.372 444.872 131.292C441.752 131.212 438.552 131.132 435.272 131.052C431.992 130.972 428.712 130.892 425.432 130.812C422.152 130.732 418.912 130.692 415.712 130.692C414.032 130.692 412.432 130.732 410.912 130.812C409.392 130.972 407.832 131.092 406.232 131.172C404.712 131.332 402.952 131.412 400.952 131.412Z" fill="#171E52"/><path d="M539.115 133.332C536.235 133.332 533.635 133.012 531.315 132.372C529.075 131.812 527.035 130.932 525.195 129.732C523.435 128.532 521.835 127.052 520.395 125.292C518.555 122.892 516.755 120.572 514.995 118.332C513.315 116.092 511.555 113.572 509.715 110.772C507.875 107.892 505.715 104.412 503.235 100.332C502.195 98.3325 500.715 96.8525 498.795 95.8925C497.435 95.1725 496.035 94.6925 494.595 94.4525C493.235 94.1325 492.115 93.9325 491.235 93.8525C490.675 93.8525 490.235 94.0925 489.915 94.5725C489.675 94.9725 489.555 95.5325 489.555 96.2525V117.972C489.555 120.532 490.195 122.652 491.475 124.332C492.755 125.932 494.955 127.012 498.075 127.572C499.195 127.812 500.035 128.092 500.595 128.412C501.235 128.732 501.555 129.212 501.555 129.852C501.555 130.332 501.275 130.692 500.715 130.932C500.155 131.172 499.395 131.292 498.435 131.292C496.435 131.292 494.635 131.212 493.035 131.052C491.515 130.972 490.035 130.892 488.595 130.812C487.235 130.652 485.795 130.572 484.275 130.572C482.355 130.572 480.515 130.652 478.755 130.812C477.075 130.892 475.355 130.972 473.595 131.052C471.915 131.212 470.035 131.292 467.955 131.292C467.075 131.292 466.315 131.172 465.675 130.932C465.115 130.772 464.835 130.412 464.835 129.852C464.835 128.812 465.995 128.052 468.315 127.572C471.355 127.012 473.515 126.132 474.795 124.932C476.155 123.732 476.835 121.732 476.835 118.932V66.8525C476.835 64.1325 476.675 62.0925 476.355 60.7325C476.035 59.2925 475.355 58.2925 474.315 57.7325C473.355 57.0925 471.795 56.6125 469.635 56.2925C468.355 56.1325 467.435 55.8525 466.875 55.4525C466.315 54.9725 466.035 54.4525 466.035 53.8925C466.035 53.4125 466.315 53.0525 466.875 52.8125C467.515 52.4925 468.275 52.3325 469.155 52.3325C471.475 52.3325 473.275 52.3725 474.555 52.4525C475.835 52.5325 477.035 52.6125 478.155 52.6925C479.355 52.6925 480.835 52.6925 482.595 52.6925C484.195 52.6925 485.635 52.6525 486.915 52.5725C488.195 52.4125 489.635 52.2925 491.235 52.2125C492.835 52.0525 494.875 51.9725 497.355 51.9725C506.315 51.9725 513.155 53.6125 517.875 56.8925C522.675 60.0925 525.075 64.9725 525.075 71.5325C525.075 75.1325 524.315 78.2125 522.795 80.7725C521.355 83.3325 519.515 85.4525 517.275 87.1325C515.035 88.8125 512.795 90.1325 510.555 91.0925C510.235 91.1725 510.075 91.3725 510.075 91.6925C510.155 91.9325 510.275 92.2525 510.435 92.6525C512.915 96.3325 515.275 99.8525 517.515 103.212C519.835 106.492 522.275 109.692 524.835 112.812C527.475 115.852 530.475 118.932 533.835 122.052C536.075 124.132 538.395 125.372 540.795 125.772C543.275 126.172 545.915 126.372 548.715 126.372C549.915 126.372 550.515 126.932 550.515 128.052C550.515 129.412 549.875 130.452 548.595 131.172C547.395 131.972 545.915 132.532 544.155 132.852C542.395 133.172 540.715 133.332 539.115 133.332ZM495.315 90.7325C498.755 90.7325 501.675 89.9725 504.075 88.4525C506.555 86.8525 508.435 84.7725 509.715 82.2125C511.075 79.5725 511.755 76.7325 511.755 73.6925C511.755 70.2525 511.315 67.2125 510.435 64.5725C509.555 61.9325 507.955 59.8925 505.635 58.4525C503.315 56.9325 499.995 56.1725 495.675 56.1725C493.435 56.1725 491.915 56.9725 491.115 58.5725C490.315 60.0925 489.875 63.0125 489.795 67.3325C489.715 69.2525 489.635 71.8125 489.555 75.0125C489.555 78.2125 489.555 82.0125 489.555 86.4125C489.555 88.3325 490.075 89.5325 491.115 90.0125C492.155 90.4925 493.555 90.7325 495.315 90.7325Z" fill="#171E52"/><path d="M593.909 132.492C586.709 132.492 580.669 131.212 575.789 128.652C570.909 126.092 567.229 122.492 564.749 117.852C562.269 113.132 561.029 107.652 561.029 101.412V65.5325C561.029 62.8925 560.469 60.8125 559.349 59.2925C558.309 57.7725 556.989 56.8525 555.389 56.5325C552.829 55.8125 551.549 54.9325 551.549 53.8925C551.549 53.3325 551.869 52.9325 552.509 52.6925C553.149 52.4525 553.949 52.3325 554.909 52.3325C556.989 52.3325 559.109 52.4125 561.269 52.5725C563.429 52.7325 565.629 52.8125 567.869 52.8125C569.869 52.8125 571.949 52.7725 574.109 52.6925C576.269 52.5325 578.189 52.4525 579.869 52.4525C580.909 52.4525 581.709 52.5725 582.269 52.8125C582.909 53.0525 583.229 53.4525 583.229 54.0125C583.229 54.6525 582.789 55.1725 581.909 55.5725C581.109 55.8925 580.029 56.2925 578.669 56.7725C577.629 57.1725 576.549 58.1325 575.429 59.6525C574.389 61.0925 573.869 63.0925 573.869 65.6525V98.5325C573.869 104.612 574.869 109.612 576.869 113.532C578.869 117.452 581.629 120.332 585.149 122.172C588.669 124.012 592.629 124.932 597.029 124.932C604.949 124.932 610.749 122.332 614.429 117.132C618.189 111.852 620.069 104.612 620.069 95.4125C620.069 93.5725 620.069 91.2525 620.069 88.4525C620.069 85.6525 620.029 82.6925 619.949 79.5725C619.949 76.4525 619.909 73.4925 619.829 70.6925C619.749 68.0525 619.509 65.8125 619.109 63.9725C618.789 62.0525 618.229 60.4525 617.429 59.1725C616.629 57.8925 615.589 57.0525 614.309 56.6525C613.509 56.3325 612.589 55.9725 611.549 55.5725C610.589 55.1725 610.109 54.6525 610.109 54.0125C610.109 53.5325 610.429 53.1725 611.069 52.9325C611.709 52.6925 612.549 52.5725 613.589 52.5725C615.829 52.5725 617.589 52.6125 618.869 52.6925C620.149 52.7725 621.709 52.8125 623.549 52.8125C624.909 52.8125 626.109 52.7725 627.149 52.6925C628.269 52.6125 629.349 52.5325 630.389 52.4525C631.429 52.3725 632.509 52.3325 633.629 52.3325C634.589 52.3325 635.389 52.4525 636.029 52.6925C636.669 52.9325 636.989 53.3325 636.989 53.8925C636.989 54.9325 635.749 55.7325 633.269 56.2925C630.949 56.8525 629.309 57.9325 628.349 59.5325C627.469 61.1325 626.949 63.2525 626.789 65.8925C626.389 72.4525 626.149 78.4925 626.069 84.0125C625.989 89.4525 625.869 94.8925 625.709 100.332C625.629 106.572 624.149 112.132 621.269 117.012C618.469 121.892 614.709 125.692 609.989 128.412C605.269 131.132 599.909 132.492 593.909 132.492Z" fill="#171E52"/><path d="M644.097 131.412C643.217 131.412 642.497 131.252 641.937 130.932C641.377 130.612 641.097 130.252 641.097 129.852C641.097 129.212 641.417 128.732 642.057 128.412C642.697 128.012 643.217 127.772 643.617 127.692C646.657 126.972 648.897 126.052 650.337 124.932C651.857 123.812 652.617 121.932 652.617 119.292V63.9725C652.617 62.0525 652.417 60.6525 652.017 59.7725C651.617 58.8125 650.857 58.0925 649.737 57.6125C648.697 57.1325 647.177 56.6925 645.177 56.2925C642.857 55.8125 641.697 55.0125 641.697 53.8925C641.697 53.3325 641.977 52.9325 642.537 52.6925C643.177 52.4525 643.937 52.3325 644.817 52.3325C646.817 52.3325 648.617 52.3725 650.217 52.4525C651.817 52.5325 653.337 52.6125 654.777 52.6925C656.217 52.7725 657.817 52.8125 659.577 52.8125C661.417 52.8125 663.177 52.8125 664.857 52.8125C666.537 52.7325 668.257 52.6525 670.017 52.5725C671.777 52.4925 673.657 52.4525 675.657 52.4525C676.617 52.4525 677.337 52.5725 677.817 52.8125C678.377 52.9725 678.657 53.3325 678.657 53.8925C678.657 54.5325 678.377 55.0525 677.817 55.4525C677.257 55.7725 676.377 56.0525 675.177 56.2925C672.137 57.0125 669.737 57.8125 667.977 58.6925C666.217 59.4925 665.337 61.0525 665.337 63.3725V118.932C665.337 121.412 665.857 123.212 666.897 124.332C668.017 125.372 670.257 125.892 673.617 125.892H687.537C689.617 125.892 691.417 125.572 692.937 124.932C694.537 124.292 695.777 123.572 696.657 122.772C698.177 121.412 699.337 120.132 700.137 118.932C701.017 117.652 701.937 115.972 702.897 113.892C703.297 113.012 703.737 112.172 704.217 111.372C704.697 110.572 705.217 110.172 705.777 110.172C706.337 110.172 706.737 110.452 706.977 111.012C707.217 111.492 707.337 111.972 707.337 112.452C707.337 112.612 707.297 112.812 707.217 113.052C707.137 113.292 707.097 113.532 707.097 113.772C706.537 115.932 706.017 117.852 705.537 119.532C705.057 121.212 704.657 122.812 704.337 124.332C704.097 125.852 703.897 127.492 703.737 129.252C703.657 129.812 703.497 130.332 703.257 130.812C703.017 131.212 702.577 131.412 701.937 131.412C698.817 131.412 695.497 131.372 691.977 131.292C688.457 131.212 684.897 131.132 681.297 131.052C677.697 131.052 674.137 131.012 670.617 130.932C667.177 130.852 663.857 130.812 660.657 130.812C658.737 130.812 656.577 130.852 654.177 130.932C651.857 131.012 649.697 131.092 647.697 131.172C645.777 131.332 644.577 131.412 644.097 131.412Z" fill="#171E52"/><path d="M715.132 131.412C714.172 131.412 713.412 131.292 712.852 131.052C712.292 130.812 712.012 130.452 712.012 129.972C712.012 128.932 713.172 128.172 715.492 127.692C718.452 127.052 720.572 126.172 721.852 125.052C723.212 123.852 723.892 121.852 723.892 119.052V64.8125C723.892 62.0925 723.332 60.1325 722.212 58.9325C721.092 57.7325 719.052 56.8525 716.092 56.2925C714.892 56.0525 714.012 55.7325 713.452 55.3325C712.892 54.9325 712.612 54.4525 712.612 53.8925C712.612 53.4125 712.892 53.0525 713.452 52.8125C714.012 52.4925 714.772 52.3325 715.732 52.3325C718.372 52.3325 720.732 52.3725 722.812 52.4525C724.972 52.5325 727.052 52.6125 729.052 52.6925C731.132 52.7725 733.372 52.8125 735.772 52.8125C738.972 52.8125 742.332 52.8125 745.852 52.8125C749.452 52.7325 752.692 52.6525 755.572 52.5725C758.292 52.5725 760.532 52.5325 762.292 52.4525C764.132 52.2925 765.212 52.2125 765.532 52.2125C766.012 52.2125 766.492 52.3325 766.972 52.5725C767.532 52.7325 767.852 53.0925 767.932 53.6525C768.332 56.1325 768.732 58.5725 769.132 60.9725C769.612 63.2925 769.852 65.3325 769.852 67.0925C769.852 67.8925 769.652 68.4525 769.252 68.7725C768.932 69.0125 768.572 69.1325 768.172 69.1325C767.772 69.1325 767.452 69.0125 767.212 68.7725C766.972 68.5325 766.732 68.1725 766.492 67.6925C765.932 66.0925 765.412 64.6525 764.932 63.3725C764.452 62.0125 763.892 61.0125 763.252 60.3725C762.212 59.2525 761.012 58.4125 759.652 57.8525C758.292 57.2925 756.772 57.0125 755.092 57.0125H741.652C740.612 57.0125 739.492 57.4125 738.292 58.2125C737.172 58.9325 736.612 59.9725 736.612 61.3325V85.8125C736.612 86.6125 736.852 87.2525 737.332 87.7325C737.812 88.2125 738.372 88.4525 739.012 88.4525H750.412C752.732 88.4525 754.332 87.9325 755.212 86.8925C756.092 85.8525 756.812 84.2525 757.372 82.0925C757.932 80.4925 758.692 79.6925 759.652 79.6925C760.052 79.6925 760.412 79.8925 760.732 80.2925C761.052 80.6125 761.212 81.1325 761.212 81.8525C761.212 82.3325 761.172 83.1325 761.092 84.2525C761.012 85.3725 760.932 86.5325 760.852 87.7325C760.772 88.9325 760.732 89.8925 760.732 90.6125C760.732 91.4925 760.732 92.5725 760.732 93.8525C760.812 95.0525 760.892 96.2525 760.972 97.4525C761.052 98.6525 761.092 99.5325 761.092 100.092C761.172 100.812 761.092 101.412 760.852 101.892C760.692 102.292 760.412 102.492 760.012 102.492C758.732 102.492 757.772 101.332 757.132 99.0125C756.652 96.9325 755.972 95.3725 755.092 94.3325C754.292 93.2925 753.092 92.7725 751.492 92.7725H740.332C739.052 92.7725 738.092 92.9725 737.452 93.3725C736.892 93.7725 736.612 94.6125 736.612 95.8925V118.812C736.612 121.612 737.212 123.572 738.412 124.692C739.612 125.732 741.452 126.252 743.932 126.252H753.412C755.652 126.252 757.612 126.092 759.292 125.772C760.972 125.452 762.412 124.852 763.612 123.972C764.972 123.012 766.172 121.772 767.212 120.252C768.252 118.732 769.332 116.852 770.452 114.612C770.772 114.132 771.092 113.772 771.412 113.532C771.732 113.212 772.092 113.092 772.492 113.172C772.972 113.172 773.292 113.372 773.452 113.772C773.692 114.092 773.812 114.532 773.812 115.092C773.812 115.972 773.612 117.292 773.212 119.052C772.812 120.812 772.292 122.652 771.652 124.572C771.092 126.492 770.572 128.132 770.092 129.492C769.852 130.052 769.572 130.492 769.252 130.812C768.932 131.212 768.532 131.412 768.052 131.412C765.172 131.412 762.172 131.372 759.052 131.292C755.932 131.212 752.732 131.132 749.452 131.052C746.172 130.972 742.892 130.892 739.612 130.812C736.332 130.732 733.092 130.692 729.892 130.692C728.212 130.692 726.612 130.732 725.092 130.812C723.572 130.972 722.012 131.092 720.412 131.172C718.892 131.332 717.132 131.412 715.132 131.412Z" fill="#171E52"/><path d="M779.495 131.412C778.535 131.412 777.735 131.252 777.095 130.932C776.455 130.692 776.135 130.292 776.135 129.732C776.135 129.092 776.455 128.572 777.095 128.172C777.735 127.772 778.615 127.372 779.735 126.972C781.895 126.332 783.855 125.372 785.615 124.092C787.375 122.812 788.815 120.852 789.935 118.212C792.095 113.332 794.095 108.692 795.935 104.292C797.775 99.8125 799.535 95.4125 801.215 91.0925C802.895 86.7725 804.615 82.3325 806.375 77.7725C808.135 73.1325 809.935 68.2125 811.775 63.0125C812.495 61.1725 813.015 59.6525 813.335 58.4525C813.655 57.1725 813.855 56.0525 813.935 55.0925C814.975 54.8525 815.935 54.6125 816.815 54.3725C817.695 54.0525 818.655 53.6125 819.695 53.0525C820.655 52.5725 821.375 51.8925 821.855 51.0125C822.415 50.0525 822.855 49.3725 823.175 48.9725C823.335 48.8925 823.495 48.8525 823.655 48.8525C823.895 48.7725 824.095 48.8925 824.255 49.2125C824.495 49.6125 824.655 50.0525 824.735 50.5325C824.895 51.0125 825.055 51.5325 825.215 52.0925C827.055 57.9325 828.935 63.8925 830.855 69.9725C832.855 75.9725 834.815 81.8525 836.735 87.6125C838.655 93.3725 840.455 98.7325 842.135 103.692C843.815 108.572 845.255 112.852 846.455 116.532C847.335 119.172 848.375 121.212 849.575 122.652C850.775 124.012 852.055 125.052 853.415 125.772C854.775 126.412 856.255 126.892 857.855 127.212C859.055 127.452 859.935 127.812 860.495 128.292C861.135 128.772 861.455 129.332 861.455 129.972C861.455 130.452 861.135 130.772 860.495 130.932C859.935 131.172 859.215 131.292 858.335 131.292C857.055 131.292 855.375 131.212 853.295 131.052C851.215 130.972 849.055 130.892 846.815 130.812C844.575 130.732 842.535 130.692 840.695 130.692C839.175 130.692 837.495 130.692 835.655 130.692C833.815 130.692 832.055 130.732 830.375 130.812C828.775 130.892 827.375 130.932 826.175 130.932C825.215 130.932 824.415 130.812 823.775 130.572C823.215 130.252 822.935 129.852 822.935 129.372C822.935 128.732 823.295 128.212 824.015 127.812C824.735 127.412 825.575 127.132 826.535 126.972C829.255 126.492 831.215 125.772 832.415 124.812C833.695 123.852 834.215 122.572 833.975 120.972C833.895 119.612 833.615 117.932 833.135 115.932C832.655 113.852 832.095 111.692 831.455 109.452C830.815 107.132 830.215 105.012 829.655 103.092C829.495 102.452 829.215 102.052 828.815 101.892C828.415 101.732 827.735 101.652 826.775 101.652H804.575C804.175 101.652 803.815 101.812 803.495 102.132C803.175 102.372 802.855 102.892 802.535 103.692C802.295 104.652 801.895 105.892 801.335 107.412C800.855 108.852 800.375 110.412 799.895 112.092C799.415 113.692 798.975 115.212 798.575 116.652C798.255 118.012 798.055 119.012 797.975 119.652C797.735 121.652 798.215 123.252 799.415 124.452C800.695 125.572 802.575 126.452 805.055 127.092C807.455 127.732 808.655 128.532 808.655 129.492C808.655 130.052 808.335 130.452 807.695 130.692C807.135 130.852 806.375 130.932 805.415 130.932C803.895 130.932 802.135 130.892 800.135 130.812C798.135 130.732 796.015 130.692 793.775 130.692C791.215 130.692 788.735 130.812 786.335 131.052C783.935 131.292 781.655 131.412 779.495 131.412ZM807.935 96.7325H825.455C826.575 96.7325 827.135 96.5325 827.135 96.1325C827.135 95.8925 827.095 95.6925 827.015 95.5325C827.015 95.3725 826.975 95.1325 826.895 94.8125L818.015 66.3725C817.615 65.0925 817.295 64.4525 817.055 64.4525C816.895 64.4525 816.615 65.0525 816.215 66.2525L805.775 94.8125C805.615 95.2925 805.535 95.6125 805.535 95.7725C805.535 96.1725 805.735 96.4525 806.135 96.6125C806.615 96.6925 807.215 96.7325 807.935 96.7325Z" fill="#171E52"/><path d="M311.653 191.097C311.159 191.097 310.76 191.04 310.456 190.926C310.152 190.85 310 190.698 310 190.47C310 190.014 310.627 189.672 311.881 189.444C313.325 189.178 314.427 188.741 315.187 188.133C315.947 187.525 316.327 186.537 316.327 185.169V159.519C316.327 158.151 316.042 157.144 315.472 156.498C314.902 155.852 313.914 155.472 312.508 155.358C311.862 155.282 311.387 155.149 311.083 154.959C310.779 154.731 310.627 154.484 310.627 154.218C310.627 153.99 310.779 153.838 311.083 153.762C311.387 153.648 311.786 153.591 312.28 153.591C313.306 153.591 314.104 153.591 314.674 153.591C315.244 153.591 315.776 153.61 316.27 153.648C316.802 153.648 317.448 153.648 318.208 153.648C318.93 153.648 319.557 153.629 320.089 153.591C320.621 153.515 321.21 153.458 321.856 153.42C322.54 153.382 323.433 153.363 324.535 153.363C328.981 153.363 332.287 154.009 334.453 155.301C336.657 156.555 337.759 158.74 337.759 161.856C337.759 163.148 337.531 164.288 337.075 165.276C336.657 166.226 336.239 166.91 335.821 167.328C335.213 167.936 334.662 168.411 334.168 168.753C333.674 169.057 332.952 169.399 332.002 169.779C331.85 169.817 331.774 169.912 331.774 170.064C331.774 170.178 331.85 170.273 332.002 170.349C332.876 170.615 333.769 170.957 334.681 171.375C335.631 171.793 336.505 172.344 337.303 173.028C338.139 173.674 338.804 174.548 339.298 175.65C339.83 176.714 340.096 178.082 340.096 179.754C340.096 181.844 339.754 183.498 339.07 184.714C338.424 185.93 337.645 186.861 336.733 187.507C335.821 188.153 334.966 188.684 334.168 189.102C332.99 189.71 331.622 190.185 330.064 190.527C328.506 190.869 326.644 191.04 324.478 191.04C323.984 191.04 323.243 191.002 322.255 190.926C321.267 190.85 320.203 190.812 319.063 190.812C318.075 190.812 317.239 190.831 316.555 190.869C315.871 190.907 315.149 190.945 314.389 190.983C313.667 191.059 312.755 191.097 311.653 191.097ZM325.276 188.703C326.948 188.703 328.506 188.323 329.95 187.563C331.394 186.803 332.553 185.777 333.427 184.485C334.301 183.155 334.738 181.673 334.738 180.039C334.738 178.557 334.491 177.341 333.997 176.391C333.503 175.403 332.933 174.605 332.287 173.997C331.641 173.389 331.052 172.952 330.52 172.686C330.026 172.382 329.247 172.078 328.183 171.774C327.119 171.432 325.732 171.261 324.022 171.261C322.806 171.261 321.951 171.508 321.457 172.002C321.001 172.496 320.773 172.933 320.773 173.313V184.656C320.773 186.252 321.153 187.335 321.913 187.905C322.711 188.437 323.832 188.703 325.276 188.703ZM323.395 169.665C324.421 169.665 325.523 169.551 326.701 169.323C327.917 169.095 329.114 168.658 330.292 168.012C330.71 167.784 331.242 167.233 331.888 166.359C332.534 165.485 332.857 164.231 332.857 162.597C332.857 161.495 332.648 160.374 332.23 159.234C331.812 158.056 331.014 157.068 329.836 156.27C328.658 155.472 326.891 155.073 324.535 155.073C322.977 155.073 321.951 155.282 321.457 155.7C321.001 156.118 320.773 156.764 320.773 157.638V167.556C320.773 168.544 321.096 169.152 321.742 169.38C322.388 169.57 322.939 169.665 323.395 169.665Z" fill="#171E52"/><path d="M344.879 190.983C344.537 190.983 344.252 190.927 344.024 190.812C343.834 190.736 343.739 190.584 343.739 190.356C343.739 190.052 343.872 189.843 344.138 189.729C344.442 189.615 344.746 189.52 345.05 189.444C345.848 189.254 346.456 189.026 346.874 188.76C347.292 188.456 347.501 187.962 347.501 187.278V174.909C347.501 173.883 347.311 172.971 346.931 172.173C346.589 171.375 345.924 170.9 344.936 170.748C344.746 170.71 344.594 170.634 344.48 170.52C344.404 170.406 344.366 170.235 344.366 170.007C344.366 169.589 344.537 169.361 344.879 169.323C346.399 168.981 347.653 168.525 348.641 167.955C349.629 167.347 350.37 166.853 350.864 166.473C351.206 166.207 351.472 166.074 351.662 166.074C351.89 166.074 352.004 166.169 352.004 166.359C352.004 166.663 351.947 167.271 351.833 168.183C351.757 169.057 351.681 170.045 351.605 171.147C351.529 172.211 351.491 173.18 351.491 174.054V187.278C351.491 187.924 351.7 188.399 352.118 188.703C352.574 189.007 353.182 189.254 353.942 189.444C354.246 189.52 354.531 189.615 354.797 189.729C355.101 189.843 355.253 190.052 355.253 190.356C355.253 190.774 354.873 190.983 354.113 190.983C353.391 190.983 352.802 190.945 352.346 190.869C351.928 190.831 351.51 190.793 351.092 190.755C350.712 190.717 350.18 190.699 349.496 190.699C348.85 190.699 348.318 190.717 347.9 190.755C347.482 190.793 347.064 190.831 346.646 190.869C346.228 190.945 345.639 190.983 344.879 190.983ZM349.439 161.4C348.641 161.4 347.957 161.134 347.387 160.602C346.855 160.032 346.589 159.348 346.589 158.55C346.589 157.714 346.855 157.03 347.387 156.498C347.957 155.928 348.641 155.643 349.439 155.643C350.275 155.643 350.959 155.928 351.491 156.498C352.061 157.03 352.346 157.714 352.346 158.55C352.346 159.348 352.061 160.032 351.491 160.602C350.959 161.134 350.275 161.4 349.439 161.4Z" fill="#171E52"/><path d="M356.4 207.171C356.21 207.171 355.963 207.114 355.659 207C355.355 206.924 355.203 206.792 355.203 206.602C355.203 206.374 355.298 206.164 355.488 205.974C355.678 205.784 355.792 205.67 355.83 205.632C356.514 205.442 357.179 205.082 357.825 204.549C358.471 204.017 359.06 203.181 359.592 202.041C360.01 201.167 360.333 200.065 360.561 198.735C360.827 197.443 361.017 196.076 361.131 194.632C361.245 193.188 361.321 191.781 361.359 190.413C361.397 189.045 361.416 187.867 361.416 186.879V174.909C361.416 173.883 361.226 172.99 360.846 172.23C360.466 171.432 359.782 170.938 358.794 170.748C358.642 170.71 358.528 170.615 358.452 170.463C358.376 170.311 358.338 170.159 358.338 170.007C358.338 169.627 358.471 169.399 358.737 169.323C360.181 168.981 361.397 168.506 362.385 167.898C363.373 167.29 364.133 166.815 364.665 166.473C364.855 166.359 365.007 166.264 365.121 166.188C365.273 166.112 365.368 166.074 365.406 166.074C365.672 166.074 365.805 166.169 365.805 166.359C365.691 167.537 365.596 168.981 365.52 170.691C365.444 172.363 365.406 173.845 365.406 175.137V185.625C365.406 186.803 365.368 188.19 365.292 189.786C365.254 191.344 365.121 192.96 364.893 194.632C364.665 196.342 364.266 197.957 363.696 199.477C363.24 200.769 362.575 202.003 361.701 203.181C360.827 204.359 359.915 205.309 358.965 206.031C358.015 206.791 357.16 207.171 356.4 207.171ZM362.955 161.4C362.157 161.4 361.473 161.134 360.903 160.602C360.371 160.032 360.105 159.348 360.105 158.55C360.105 157.714 360.371 157.03 360.903 156.498C361.473 155.928 362.157 155.643 362.955 155.643C363.791 155.643 364.475 155.928 365.007 156.498C365.577 157.03 365.862 157.714 365.862 158.55C365.862 159.348 365.577 160.032 365.007 160.602C364.475 161.134 363.791 161.4 362.955 161.4Z" fill="#171E52"/><path d="M382.539 191.61C380.411 191.61 378.492 191.116 376.782 190.128C375.072 189.14 373.704 187.791 372.678 186.081C371.69 184.333 371.196 182.357 371.196 180.153C371.196 178.557 371.5 176.999 372.108 175.479C372.754 173.959 373.647 172.572 374.787 171.318C375.927 170.064 377.257 169.076 378.777 168.354C380.297 167.594 381.931 167.214 383.679 167.214C385.883 167.214 387.859 167.746 389.607 168.81C391.393 169.874 392.799 171.28 393.825 173.028C394.889 174.738 395.421 176.619 395.421 178.671C395.421 180.875 394.927 182.965 393.939 184.941C392.989 186.917 391.564 188.532 389.664 189.786C387.764 191.002 385.389 191.61 382.539 191.61ZM383.736 189.9C385.028 189.9 386.187 189.654 387.213 189.16C388.239 188.666 389.037 187.867 389.607 186.765C390.063 185.891 390.367 184.827 390.519 183.573C390.671 182.319 390.747 181.141 390.747 180.039C390.747 178.215 390.405 176.467 389.721 174.795C389.075 173.085 388.144 171.698 386.928 170.634C385.75 169.532 384.344 168.981 382.71 168.981C381.684 168.981 380.753 169.152 379.917 169.494C379.119 169.798 378.378 170.387 377.694 171.261C376.934 172.211 376.44 173.37 376.212 174.738C375.984 176.106 375.87 177.474 375.87 178.842C375.87 180.704 376.212 182.491 376.896 184.201C377.58 185.873 378.511 187.24 379.689 188.304C380.867 189.368 382.216 189.9 383.736 189.9Z" fill="#171E52"/><path d="M418.285 191.895C418.019 191.895 417.886 191.743 417.886 191.439C417.886 191.059 417.924 190.508 418 189.786C418.114 189.026 418.171 188.399 418.171 187.905C418.171 187.829 418.171 187.772 418.171 187.734C418.171 187.658 418.171 187.601 418.171 187.563C416.689 189.007 415.188 190.053 413.668 190.699C412.186 191.307 410.552 191.61 408.766 191.61C407.55 191.61 406.448 191.345 405.46 190.812C404.472 190.318 403.693 189.577 403.123 188.589C402.553 187.563 402.268 186.309 402.268 184.827V173.256C402.268 172.42 402.078 171.755 401.698 171.261C401.318 170.767 400.691 170.349 399.817 170.007C399.627 169.931 399.456 169.836 399.304 169.722C399.152 169.608 399.076 169.399 399.076 169.095C399.076 168.753 399.152 168.525 399.304 168.411C399.494 168.297 399.703 168.221 399.931 168.183C401.223 168.107 402.211 168.012 402.895 167.898C403.617 167.746 404.51 167.537 405.574 167.271C405.688 167.233 405.764 167.214 405.802 167.214C405.878 167.214 405.954 167.214 406.03 167.214C406.448 167.214 406.638 167.48 406.6 168.012C406.486 168.886 406.391 169.627 406.315 170.235C406.277 170.805 406.258 171.527 406.258 172.401V183.516C406.258 184.428 406.486 185.283 406.942 186.081C407.398 186.841 407.987 187.468 408.709 187.962C409.469 188.456 410.248 188.703 411.046 188.703C412.034 188.703 412.889 188.647 413.611 188.533C414.371 188.419 415.112 188.095 415.834 187.563C416.252 187.259 416.784 186.765 417.43 186.081C418.076 185.397 418.399 184.466 418.399 183.288V172.857C418.399 172.059 418.152 171.47 417.658 171.09C417.202 170.672 416.67 170.387 416.062 170.235C415.454 170.083 414.96 170.007 414.58 170.007C414.238 170.007 413.953 169.95 413.725 169.836C413.497 169.684 413.383 169.418 413.383 169.038C413.383 168.696 413.497 168.468 413.725 168.354C413.991 168.24 414.276 168.183 414.58 168.183C415.758 168.145 416.727 168.107 417.487 168.069C418.285 167.993 418.988 167.898 419.596 167.784C420.242 167.632 420.907 167.461 421.591 167.271C421.667 167.233 421.762 167.214 421.876 167.214C421.99 167.176 422.085 167.157 422.161 167.157C422.655 167.157 422.902 167.366 422.902 167.784C422.902 167.822 422.883 167.898 422.845 168.012C422.845 168.088 422.826 168.183 422.788 168.297C422.75 168.411 422.693 168.734 422.617 169.266C422.579 169.798 422.522 170.349 422.446 170.919C422.408 171.489 422.389 171.926 422.389 172.23V185.397C422.389 186.423 422.484 187.164 422.674 187.62C422.902 188.038 423.149 188.247 423.415 188.247C423.719 188.247 424.156 188.228 424.726 188.19C425.334 188.114 425.771 188.076 426.037 188.076C426.227 188.076 426.417 188.114 426.607 188.19C426.797 188.266 426.892 188.475 426.892 188.817C426.892 189.121 426.816 189.33 426.664 189.444C426.512 189.52 426.322 189.577 426.094 189.615C424.612 189.805 423.339 190.09 422.275 190.47C421.211 190.85 420.261 191.211 419.425 191.553C419.311 191.591 419.14 191.648 418.912 191.724C418.684 191.838 418.475 191.895 418.285 191.895Z" fill="#171E52"/><path d="M429.191 191.04C428.963 191.04 428.716 191.002 428.45 190.926C428.184 190.888 428.051 190.755 428.051 190.527C428.051 190.223 428.184 189.995 428.45 189.843C428.754 189.691 429.058 189.577 429.362 189.501C429.932 189.311 430.502 189.007 431.072 188.589C431.68 188.133 432.383 187.354 433.181 186.252L437.57 180.153C437.836 179.849 437.95 179.621 437.912 179.469C437.912 179.279 437.836 179.07 437.684 178.842L433.01 171.717C432.554 170.957 432.136 170.406 431.756 170.064C431.414 169.722 430.958 169.475 430.388 169.323C430.084 169.247 429.78 169.133 429.476 168.981C429.21 168.829 429.077 168.601 429.077 168.297C429.077 167.993 429.248 167.841 429.59 167.841C429.97 167.803 430.236 167.784 430.388 167.784C431.148 167.784 431.661 167.803 431.927 167.841C432.231 167.879 432.573 167.917 432.953 167.955C433.333 167.993 433.979 168.012 434.891 168.012C435.575 168.012 436.069 167.993 436.373 167.955C436.677 167.917 437.152 167.898 437.798 167.898C437.95 167.898 438.197 167.917 438.539 167.955C438.919 167.955 439.109 168.107 439.109 168.411C439.109 168.639 438.995 168.81 438.767 168.924C438.577 169.038 438.349 169.133 438.083 169.209C437.817 169.285 437.551 169.399 437.285 169.551C437.019 169.665 436.886 169.874 436.886 170.178C436.886 170.368 436.943 170.634 437.057 170.976C437.209 171.28 437.399 171.622 437.627 172.002L440.249 175.935C440.401 176.201 440.572 176.201 440.762 175.935L443.669 171.546C443.821 171.356 443.935 171.147 444.011 170.919C444.087 170.691 444.125 170.482 444.125 170.292C444.125 169.836 443.878 169.532 443.384 169.38C443.08 169.266 442.776 169.133 442.472 168.981C442.206 168.829 442.073 168.62 442.073 168.354C442.073 168.05 442.244 167.898 442.586 167.898C442.966 167.86 443.232 167.841 443.384 167.841C443.688 167.841 444.125 167.879 444.695 167.955C445.265 167.993 445.778 168.012 446.234 168.012C447.298 168.012 448.039 167.974 448.457 167.898C448.875 167.784 449.331 167.727 449.825 167.727C450.053 167.727 450.3 167.765 450.566 167.841C450.832 167.879 450.965 168.012 450.965 168.24C450.965 168.506 450.813 168.715 450.509 168.867C450.243 169.019 449.958 169.152 449.654 169.266C449.084 169.418 448.4 169.722 447.602 170.178C446.804 170.596 446.139 171.185 445.607 171.945L442.016 177.36C441.978 177.436 441.94 177.55 441.902 177.702C441.902 177.816 441.959 177.949 442.073 178.101L447.602 187.107C448.058 187.829 448.495 188.361 448.913 188.703C449.331 189.045 449.825 189.311 450.395 189.501C450.699 189.577 450.984 189.691 451.25 189.843C451.554 189.995 451.706 190.223 451.706 190.527C451.706 190.755 451.573 190.888 451.307 190.926C451.041 191.002 450.794 191.04 450.566 191.04C449.806 191.04 449.255 191.021 448.913 190.983C448.571 190.945 448.191 190.907 447.773 190.869C447.393 190.831 446.728 190.812 445.778 190.812C445.094 190.812 444.391 190.831 443.669 190.869C442.947 190.907 442.263 190.926 441.617 190.926C440.743 190.926 440.306 190.736 440.306 190.356C440.306 190.014 440.42 189.767 440.648 189.615C440.914 189.463 441.275 189.33 441.731 189.216C442.149 189.102 442.51 188.95 442.814 188.76C443.156 188.532 443.327 188.228 443.327 187.848C443.327 187.696 443.289 187.544 443.213 187.392C443.175 187.202 443.099 187.012 442.985 186.822L439.622 181.35C439.508 181.236 439.394 181.236 439.28 181.35L435.518 186.993C435.48 187.069 435.423 187.221 435.347 187.449C435.271 187.639 435.233 187.848 435.233 188.076C435.233 188.342 435.29 188.608 435.404 188.874C435.556 189.102 435.765 189.254 436.031 189.33C436.335 189.444 436.62 189.577 436.886 189.729C437.19 189.843 437.342 190.052 437.342 190.356C437.342 190.622 437.152 190.774 436.772 190.812C436.43 190.851 436.183 190.869 436.031 190.869C435.727 190.869 435.252 190.851 434.606 190.812C433.998 190.774 433.466 190.755 433.01 190.755C431.946 190.755 431.167 190.793 430.673 190.869C430.217 190.983 429.723 191.04 429.191 191.04Z" fill="#171E52"/><path d="M465.893 190.983C465.551 190.983 465.266 190.927 465.038 190.812C464.848 190.736 464.753 190.584 464.753 190.356C464.753 190.052 464.886 189.843 465.152 189.729C465.456 189.615 465.76 189.52 466.064 189.444C466.862 189.254 467.47 189.026 467.888 188.76C468.306 188.456 468.515 187.962 468.515 187.278V174.909C468.515 173.883 468.325 172.971 467.945 172.173C467.603 171.375 466.938 170.9 465.95 170.748C465.76 170.71 465.608 170.634 465.494 170.52C465.418 170.406 465.38 170.235 465.38 170.007C465.38 169.589 465.551 169.361 465.893 169.323C467.413 168.981 468.667 168.525 469.655 167.955C470.643 167.347 471.384 166.853 471.878 166.473C472.22 166.207 472.486 166.074 472.676 166.074C472.904 166.074 473.018 166.169 473.018 166.359C473.018 166.663 472.961 167.271 472.847 168.183C472.771 169.057 472.695 170.045 472.619 171.147C472.543 172.211 472.505 173.18 472.505 174.054V187.278C472.505 187.924 472.714 188.399 473.132 188.703C473.588 189.007 474.196 189.254 474.956 189.444C475.26 189.52 475.545 189.615 475.811 189.729C476.115 189.843 476.267 190.052 476.267 190.356C476.267 190.774 475.887 190.983 475.127 190.983C474.405 190.983 473.816 190.945 473.36 190.869C472.942 190.831 472.524 190.793 472.106 190.755C471.726 190.717 471.194 190.699 470.51 190.699C469.864 190.699 469.332 190.717 468.914 190.755C468.496 190.793 468.078 190.831 467.66 190.869C467.242 190.945 466.653 190.983 465.893 190.983ZM470.453 161.4C469.655 161.4 468.971 161.134 468.401 160.602C467.869 160.032 467.603 159.348 467.603 158.55C467.603 157.714 467.869 157.03 468.401 156.498C468.971 155.928 469.655 155.643 470.453 155.643C471.289 155.643 471.973 155.928 472.505 156.498C473.075 157.03 473.36 157.714 473.36 158.55C473.36 159.348 473.075 160.032 472.505 160.602C471.973 161.134 471.289 161.4 470.453 161.4Z" fill="#171E52"/><path d="M479.864 190.983C479.522 190.983 479.237 190.927 479.009 190.812C478.819 190.736 478.724 190.584 478.724 190.356C478.724 190.052 478.838 189.862 479.066 189.786C479.294 189.672 479.617 189.558 480.035 189.444C480.605 189.292 481.156 189.083 481.688 188.817C482.22 188.551 482.486 188.038 482.486 187.278V175.023C482.486 173.997 482.372 173.123 482.144 172.401C481.954 171.679 481.365 171.185 480.377 170.919C480.225 170.843 480.092 170.767 479.978 170.691C479.864 170.577 479.807 170.406 479.807 170.178C479.807 169.76 479.978 169.532 480.32 169.494C481.65 169.152 482.733 168.734 483.569 168.24C484.405 167.746 485.222 167.195 486.02 166.587C486.134 166.511 486.229 166.454 486.305 166.416C486.419 166.34 486.533 166.302 486.647 166.302C486.723 166.302 486.78 166.34 486.818 166.416C486.894 166.492 486.932 166.587 486.932 166.701C486.932 166.967 486.875 167.518 486.761 168.354C486.685 169.152 486.647 169.817 486.647 170.349C486.647 170.501 486.647 170.653 486.647 170.805C486.685 170.919 486.723 170.995 486.761 171.033C488.091 169.779 489.497 168.829 490.979 168.183C492.499 167.537 494.152 167.214 495.938 167.214C497.8 167.214 499.339 167.974 500.555 169.494C501.771 171.014 502.379 172.895 502.379 175.137V187.278C502.379 188.038 502.645 188.551 503.177 188.817C503.709 189.045 504.26 189.254 504.83 189.444C505.134 189.558 505.419 189.691 505.685 189.843C505.989 189.957 506.141 190.166 506.141 190.47C506.141 190.698 506.008 190.831 505.742 190.869C505.476 190.945 505.229 190.983 505.001 190.983C504.241 190.983 503.652 190.945 503.234 190.869C502.816 190.831 502.417 190.793 502.037 190.755C501.657 190.717 501.125 190.699 500.441 190.699C499.795 190.699 499.263 190.717 498.845 190.755C498.427 190.793 497.99 190.831 497.534 190.869C497.116 190.945 496.527 190.983 495.767 190.983C495.577 190.983 495.33 190.945 495.026 190.869C494.76 190.831 494.627 190.698 494.627 190.47C494.627 190.166 494.76 189.957 495.026 189.843C495.33 189.691 495.634 189.558 495.938 189.444C496.508 189.254 497.059 189.045 497.591 188.817C498.123 188.551 498.389 188.038 498.389 187.278V175.308C498.389 173.636 497.914 172.344 496.964 171.432C496.052 170.482 494.817 169.988 493.259 169.95C491.891 169.95 490.694 170.178 489.668 170.634C488.642 171.052 487.73 171.584 486.932 172.23C486.78 172.382 486.666 172.591 486.59 172.857C486.514 173.085 486.476 173.313 486.476 173.541V187.278C486.476 188.038 486.742 188.551 487.274 188.817C487.806 189.083 488.357 189.292 488.927 189.444C489.801 189.672 490.238 189.976 490.238 190.356C490.238 190.584 490.143 190.736 489.953 190.812C489.763 190.927 489.478 190.983 489.098 190.983C488.338 190.983 487.73 190.945 487.274 190.869C486.856 190.831 486.457 190.793 486.077 190.755C485.697 190.717 485.165 190.699 484.481 190.699C483.835 190.699 483.303 190.717 482.885 190.755C482.505 190.793 482.087 190.831 481.631 190.869C481.213 190.945 480.624 190.983 479.864 190.983Z" fill="#171E52"/><path d="M515.679 191.61C514.501 191.61 513.399 191.42 512.373 191.04C511.347 190.698 510.473 190.204 509.751 189.558C509.561 189.14 509.409 188.437 509.295 187.449C509.219 186.461 509.162 185.644 509.124 184.998C509.124 184.656 509.371 184.485 509.865 184.485C510.017 184.485 510.15 184.523 510.264 184.599C510.416 184.637 510.511 184.732 510.549 184.884C511.043 186.746 511.822 188.076 512.886 188.874C513.988 189.672 515.09 190.071 516.192 190.071C517.294 190.071 518.225 189.71 518.985 188.988C519.783 188.228 520.182 187.297 520.182 186.195C520.182 185.169 519.84 184.295 519.156 183.573C518.472 182.813 517.275 181.901 515.565 180.837C514.273 180.039 513.228 179.279 512.43 178.557C511.632 177.835 511.043 177.094 510.663 176.334C510.321 175.574 510.15 174.719 510.15 173.769C510.15 172.553 510.435 171.451 511.005 170.463C511.575 169.475 512.43 168.696 513.57 168.126C514.71 167.518 516.135 167.214 517.845 167.214C518.985 167.214 519.935 167.328 520.695 167.556C521.455 167.784 522.025 168.031 522.405 168.297C522.709 168.715 522.956 169.38 523.146 170.292C523.374 171.166 523.488 172.002 523.488 172.8C523.488 173.066 523.298 173.199 522.918 173.199C522.69 173.199 522.462 173.161 522.234 173.085C522.044 172.971 521.911 172.838 521.835 172.686C521.341 171.432 520.714 170.482 519.954 169.836C519.232 169.152 518.32 168.81 517.218 168.81C516.268 168.81 515.413 169.095 514.653 169.665C513.931 170.235 513.57 171.071 513.57 172.173C513.57 173.047 513.836 173.826 514.368 174.51C514.938 175.194 515.983 175.973 517.503 176.847C519.707 178.101 521.341 179.28 522.405 180.382C523.507 181.446 524.058 182.87 524.058 184.656C524.058 186.708 523.279 188.381 521.721 189.673C520.163 190.965 518.149 191.61 515.679 191.61Z" fill="#171E52"/><path d="M528.176 207.057C527.986 207.057 527.739 207.019 527.435 206.943C527.131 206.905 526.979 206.772 526.979 206.544C526.979 206.24 527.112 206.012 527.378 205.86C527.682 205.746 527.986 205.632 528.29 205.518C528.86 205.328 529.411 205.1 529.943 204.834C530.475 204.606 530.741 204.112 530.741 203.352V174.453C530.741 174.149 530.646 173.693 530.456 173.085C530.304 172.477 530.038 171.888 529.658 171.318C529.278 170.748 528.765 170.406 528.119 170.292C527.967 170.254 527.853 170.159 527.777 170.007C527.701 169.855 527.663 169.703 527.663 169.551C527.663 169.361 527.701 169.209 527.777 169.095C527.853 168.981 527.948 168.905 528.062 168.867C529.506 168.525 530.741 168.164 531.767 167.784C532.793 167.366 533.762 166.967 534.674 166.587C534.712 166.587 534.731 166.587 534.731 166.587C534.731 166.549 534.75 166.53 534.788 166.53C534.864 166.53 534.94 166.587 535.016 166.701C535.092 166.815 535.13 166.929 535.13 167.043C535.13 167.385 535.073 167.936 534.959 168.696C534.883 169.418 534.845 170.007 534.845 170.463C534.845 170.767 534.864 170.938 534.902 170.976C535.282 170.596 535.966 170.121 536.954 169.551C537.98 168.943 539.139 168.411 540.431 167.955C541.723 167.461 542.958 167.214 544.136 167.214C546.112 167.214 547.784 167.746 549.152 168.81C550.558 169.836 551.622 171.185 552.344 172.857C553.104 174.491 553.484 176.201 553.484 177.987C553.484 179.697 553.161 181.369 552.515 183.003C551.869 184.599 550.957 186.043 549.779 187.335C548.601 188.627 547.233 189.672 545.675 190.47C544.117 191.23 542.445 191.61 540.659 191.61C540.127 191.61 539.481 191.516 538.721 191.326C537.999 191.174 537.277 190.965 536.555 190.699C535.871 190.433 535.339 190.128 534.959 189.786C534.921 189.786 534.883 190.014 534.845 190.47C534.807 190.888 534.769 191.325 534.731 191.781C534.731 192.275 534.731 192.579 534.731 192.693V203.352C534.731 203.846 534.921 204.226 535.301 204.492C535.719 204.796 536.175 205.005 536.669 205.119C537.201 205.271 537.657 205.404 538.037 205.518C538.341 205.632 538.626 205.746 538.892 205.86C539.196 206.012 539.348 206.24 539.348 206.544C539.348 206.772 539.196 206.905 538.892 206.943C538.588 207.019 538.322 207.057 538.094 207.057C536.992 207.057 536.061 207 535.301 206.886C534.579 206.81 533.724 206.772 532.736 206.772C532.09 206.772 531.558 206.791 531.14 206.829C530.76 206.867 530.361 206.905 529.943 206.943C529.525 207.019 528.936 207.057 528.176 207.057ZM541.514 189.843C542.084 189.843 542.768 189.672 543.566 189.33C544.402 188.988 545.219 188.437 546.017 187.677C546.853 186.917 547.537 185.891 548.069 184.599C548.639 183.307 548.924 181.711 548.924 179.811C548.924 177.607 548.639 175.84 548.069 174.51C547.499 173.18 546.796 172.173 545.96 171.489C545.124 170.805 544.269 170.349 543.395 170.121C542.521 169.893 541.78 169.779 541.172 169.779C540.26 169.779 539.31 169.969 538.322 170.349C537.372 170.729 536.555 171.166 535.871 171.66C535.225 172.116 534.902 172.477 534.902 172.743C534.902 173.579 534.883 174.434 534.845 175.308C534.845 176.144 534.826 176.961 534.788 177.759C534.788 178.557 534.769 179.279 534.731 179.925C534.731 180.533 534.731 181.008 534.731 181.35C534.731 182.87 535.073 184.276 535.757 185.568C536.479 186.86 537.353 187.905 538.379 188.703C539.443 189.463 540.488 189.843 541.514 189.843Z" fill="#171E52"/><path d="M557.961 190.983C557.619 190.983 557.334 190.927 557.106 190.812C556.916 190.736 556.821 190.584 556.821 190.356C556.821 190.052 556.954 189.843 557.22 189.729C557.524 189.615 557.828 189.52 558.132 189.444C558.93 189.254 559.538 189.026 559.956 188.76C560.374 188.456 560.583 187.962 560.583 187.278V174.909C560.583 173.883 560.393 172.971 560.013 172.173C559.671 171.375 559.006 170.9 558.018 170.748C557.828 170.71 557.676 170.634 557.562 170.52C557.486 170.406 557.448 170.235 557.448 170.007C557.448 169.589 557.619 169.361 557.961 169.323C559.481 168.981 560.735 168.525 561.723 167.955C562.711 167.347 563.452 166.853 563.946 166.473C564.288 166.207 564.554 166.074 564.744 166.074C564.972 166.074 565.086 166.169 565.086 166.359C565.086 166.663 565.029 167.271 564.915 168.183C564.839 169.057 564.763 170.045 564.687 171.147C564.611 172.211 564.573 173.18 564.573 174.054V187.278C564.573 187.924 564.782 188.399 565.2 188.703C565.656 189.007 566.264 189.254 567.024 189.444C567.328 189.52 567.613 189.615 567.879 189.729C568.183 189.843 568.335 190.052 568.335 190.356C568.335 190.774 567.955 190.983 567.195 190.983C566.473 190.983 565.884 190.945 565.428 190.869C565.01 190.831 564.592 190.793 564.174 190.755C563.794 190.717 563.262 190.699 562.578 190.699C561.932 190.699 561.4 190.717 560.982 190.755C560.564 190.793 560.146 190.831 559.728 190.869C559.31 190.945 558.721 190.983 557.961 190.983ZM562.521 161.4C561.723 161.4 561.039 161.134 560.469 160.602C559.937 160.032 559.671 159.348 559.671 158.55C559.671 157.714 559.937 157.03 560.469 156.498C561.039 155.928 561.723 155.643 562.521 155.643C563.357 155.643 564.041 155.928 564.573 156.498C565.143 157.03 565.428 157.714 565.428 158.55C565.428 159.348 565.143 160.032 564.573 160.602C564.041 161.134 563.357 161.4 562.521 161.4Z" fill="#171E52"/><path d="M572.218 190.983C571.838 190.983 571.553 190.927 571.363 190.812C571.173 190.736 571.078 190.584 571.078 190.356C571.078 190.052 571.192 189.862 571.42 189.786C571.648 189.672 571.971 189.558 572.389 189.444C573.111 189.254 573.643 188.988 573.985 188.646C574.365 188.266 574.555 187.81 574.555 187.278V175.023C574.555 173.997 574.403 173.104 574.099 172.344C573.795 171.584 573.168 171.109 572.218 170.919C572.066 170.881 571.933 170.786 571.819 170.634C571.705 170.482 571.648 170.33 571.648 170.178C571.648 169.798 571.819 169.57 572.161 169.494C573.149 169.19 574.175 168.753 575.239 168.183C576.341 167.575 577.196 167.081 577.804 166.701C578.032 166.549 578.203 166.454 578.317 166.416C578.469 166.34 578.583 166.302 578.659 166.302C578.849 166.302 578.944 166.435 578.944 166.701C578.944 166.815 578.925 167.1 578.887 167.556C578.887 168.012 578.868 168.544 578.83 169.152C578.83 169.76 578.811 170.368 578.773 170.976C578.773 171.052 578.811 171.09 578.887 171.09C579.495 170.33 580.16 169.665 580.882 169.095C581.642 168.525 582.402 168.069 583.162 167.727C583.96 167.385 584.72 167.214 585.442 167.214C586.24 167.214 586.886 167.385 587.38 167.727C587.912 168.069 588.178 168.506 588.178 169.038C588.178 169.418 588.064 169.836 587.836 170.292C587.646 170.748 587.38 171.147 587.038 171.489C586.696 171.831 586.335 172.002 585.955 172.002C585.727 172.002 585.48 171.964 585.214 171.888C584.948 171.774 584.663 171.641 584.359 171.489C584.055 171.375 583.751 171.261 583.447 171.147C583.143 171.033 582.839 170.976 582.535 170.976C581.623 170.976 580.73 171.299 579.856 171.945C579.02 172.591 578.602 173.864 578.602 175.764V187.278C578.602 187.772 578.868 188.191 579.4 188.533C579.932 188.837 580.673 189.14 581.623 189.444C582.041 189.558 582.364 189.672 582.592 189.786C582.82 189.9 582.934 190.09 582.934 190.356C582.934 190.774 582.554 190.983 581.794 190.983C580.654 190.983 579.78 190.927 579.172 190.812C578.602 190.736 577.823 190.699 576.835 190.699C576.189 190.699 575.657 190.717 575.239 190.755C574.859 190.793 574.441 190.831 573.985 190.869C573.567 190.945 572.978 190.983 572.218 190.983Z" fill="#171E52"/><path d="M600.603 191.667C598.513 191.667 596.689 191.154 595.131 190.128C593.573 189.102 592.357 187.658 591.483 185.796C590.609 183.896 590.172 181.712 590.172 179.242C590.172 177.038 590.666 175.042 591.654 173.256C592.68 171.432 594.029 169.969 595.701 168.867C597.373 167.765 599.197 167.214 601.173 167.214C602.693 167.214 604.042 167.518 605.22 168.126C606.398 168.734 607.31 169.589 607.956 170.691C608.64 171.755 608.982 172.99 608.982 174.396C608.982 175.574 608.412 176.163 607.272 176.163H595.245C594.713 176.163 594.333 176.315 594.105 176.619C593.915 176.885 593.82 177.436 593.82 178.272C593.82 180.096 594.219 181.768 595.017 183.288C595.815 184.77 596.879 185.967 598.209 186.879C599.539 187.753 601.002 188.19 602.598 188.19C603.738 188.19 604.764 187.981 605.676 187.563C606.626 187.107 607.462 186.461 608.184 185.625C608.336 185.435 608.45 185.321 608.526 185.283C608.602 185.207 608.697 185.169 608.811 185.169C609.115 185.169 609.267 185.359 609.267 185.739C609.267 186.461 608.925 187.259 608.241 188.133C607.671 188.855 606.987 189.482 606.189 190.014C605.391 190.546 604.517 190.945 603.567 191.211C602.617 191.515 601.629 191.667 600.603 191.667ZM595.359 174.396H600.546C601.458 174.396 602.237 174.377 602.883 174.339C603.529 174.301 604.156 174.225 604.764 174.111C604.954 174.073 605.068 173.959 605.106 173.769C605.182 173.541 605.22 173.237 605.22 172.857C605.22 171.755 604.726 170.824 603.738 170.064C602.788 169.266 601.648 168.867 600.318 168.867C599.444 168.867 598.57 169.133 597.696 169.665C596.822 170.159 596.1 170.786 595.53 171.546C594.96 172.306 594.675 173.066 594.675 173.826C594.675 174.206 594.903 174.396 595.359 174.396ZM599.748 164.763C599.444 164.763 599.292 164.592 599.292 164.25C599.292 164.136 599.311 164.003 599.349 163.851C599.387 163.661 599.444 163.452 599.52 163.224C599.786 162.502 600.204 161.59 600.774 160.488C601.382 159.348 601.971 158.246 602.541 157.182C603.149 156.118 603.605 155.339 603.909 154.845C604.099 154.541 604.327 154.294 604.593 154.104C604.897 153.914 605.182 153.819 605.448 153.819C606.17 153.819 606.816 153.914 607.386 154.104C607.956 154.294 608.241 154.598 608.241 155.016C608.241 155.244 608.184 155.434 608.07 155.586C607.994 155.738 607.861 155.947 607.671 156.213C607.215 156.859 606.588 157.676 605.79 158.664C605.03 159.614 604.251 160.545 603.453 161.457C602.655 162.369 602.009 163.072 601.515 163.566C600.717 164.364 600.128 164.763 599.748 164.763Z" fill="#171E52"/><path d="M618.88 191.61C617.702 191.61 616.6 191.42 615.574 191.04C614.548 190.698 613.674 190.204 612.952 189.558C612.762 189.14 612.61 188.437 612.496 187.449C612.42 186.461 612.363 185.644 612.325 184.998C612.325 184.656 612.572 184.485 613.066 184.485C613.218 184.485 613.351 184.523 613.465 184.599C613.617 184.637 613.712 184.732 613.75 184.884C614.244 186.746 615.023 188.076 616.087 188.874C617.189 189.672 618.291 190.071 619.393 190.071C620.495 190.071 621.426 189.71 622.186 188.988C622.984 188.228 623.383 187.297 623.383 186.195C623.383 185.169 623.041 184.295 622.357 183.573C621.673 182.813 620.476 181.901 618.766 180.837C617.474 180.039 616.429 179.279 615.631 178.557C614.833 177.835 614.244 177.094 613.864 176.334C613.522 175.574 613.351 174.719 613.351 173.769C613.351 172.553 613.636 171.451 614.206 170.463C614.776 169.475 615.631 168.696 616.771 168.126C617.911 167.518 619.336 167.214 621.046 167.214C622.186 167.214 623.136 167.328 623.896 167.556C624.656 167.784 625.226 168.031 625.606 168.297C625.91 168.715 626.157 169.38 626.347 170.292C626.575 171.166 626.689 172.002 626.689 172.8C626.689 173.066 626.499 173.199 626.119 173.199C625.891 173.199 625.663 173.161 625.435 173.085C625.245 172.971 625.112 172.838 625.036 172.686C624.542 171.432 623.915 170.482 623.155 169.836C622.433 169.152 621.521 168.81 620.419 168.81C619.469 168.81 618.614 169.095 617.854 169.665C617.132 170.235 616.771 171.071 616.771 172.173C616.771 173.047 617.037 173.826 617.569 174.51C618.139 175.194 619.184 175.973 620.704 176.847C622.908 178.101 624.542 179.28 625.606 180.382C626.708 181.446 627.259 182.87 627.259 184.656C627.259 186.708 626.48 188.381 624.922 189.673C623.364 190.965 621.35 191.61 618.88 191.61Z" fill="#171E52"/><path d="M642.788 207.057C642.598 207.057 642.351 207.019 642.047 206.943C641.743 206.905 641.591 206.772 641.591 206.544C641.591 206.24 641.724 206.012 641.99 205.86C642.294 205.746 642.598 205.632 642.902 205.518C643.472 205.328 644.023 205.1 644.555 204.834C645.087 204.606 645.353 204.112 645.353 203.352V174.453C645.353 174.149 645.258 173.693 645.068 173.085C644.916 172.477 644.65 171.888 644.27 171.318C643.89 170.748 643.377 170.406 642.731 170.292C642.579 170.254 642.465 170.159 642.389 170.007C642.313 169.855 642.275 169.703 642.275 169.551C642.275 169.361 642.313 169.209 642.389 169.095C642.465 168.981 642.56 168.905 642.674 168.867C644.118 168.525 645.353 168.164 646.379 167.784C647.405 167.366 648.374 166.967 649.286 166.587C649.324 166.587 649.343 166.587 649.343 166.587C649.343 166.549 649.362 166.53 649.4 166.53C649.476 166.53 649.552 166.587 649.628 166.701C649.704 166.815 649.742 166.929 649.742 167.043C649.742 167.385 649.685 167.936 649.571 168.696C649.495 169.418 649.457 170.007 649.457 170.463C649.457 170.767 649.476 170.938 649.514 170.976C649.894 170.596 650.578 170.121 651.566 169.551C652.592 168.943 653.751 168.411 655.043 167.955C656.335 167.461 657.57 167.214 658.748 167.214C660.724 167.214 662.396 167.746 663.764 168.81C665.17 169.836 666.234 171.185 666.956 172.857C667.716 174.491 668.096 176.201 668.096 177.987C668.096 179.697 667.773 181.369 667.127 183.003C666.481 184.599 665.569 186.043 664.391 187.335C663.213 188.627 661.845 189.672 660.287 190.47C658.729 191.23 657.057 191.61 655.271 191.61C654.739 191.61 654.093 191.516 653.333 191.326C652.611 191.174 651.889 190.965 651.167 190.699C650.483 190.433 649.951 190.128 649.571 189.786C649.533 189.786 649.495 190.014 649.457 190.47C649.419 190.888 649.381 191.325 649.343 191.781C649.343 192.275 649.343 192.579 649.343 192.693V203.352C649.343 203.846 649.533 204.226 649.913 204.492C650.331 204.796 650.787 205.005 651.281 205.119C651.813 205.271 652.269 205.404 652.649 205.518C652.953 205.632 653.238 205.746 653.504 205.86C653.808 206.012 653.96 206.24 653.96 206.544C653.96 206.772 653.808 206.905 653.504 206.943C653.2 207.019 652.934 207.057 652.706 207.057C651.604 207.057 650.673 207 649.913 206.886C649.191 206.81 648.336 206.772 647.348 206.772C646.702 206.772 646.17 206.791 645.752 206.829C645.372 206.867 644.973 206.905 644.555 206.943C644.137 207.019 643.548 207.057 642.788 207.057ZM656.126 189.843C656.696 189.843 657.38 189.672 658.178 189.33C659.014 188.988 659.831 188.437 660.629 187.677C661.465 186.917 662.149 185.891 662.681 184.599C663.251 183.307 663.536 181.711 663.536 179.811C663.536 177.607 663.251 175.84 662.681 174.51C662.111 173.18 661.408 172.173 660.572 171.489C659.736 170.805 658.881 170.349 658.007 170.121C657.133 169.893 656.392 169.779 655.784 169.779C654.872 169.779 653.922 169.969 652.934 170.349C651.984 170.729 651.167 171.166 650.483 171.66C649.837 172.116 649.514 172.477 649.514 172.743C649.514 173.579 649.495 174.434 649.457 175.308C649.457 176.144 649.438 176.961 649.4 177.759C649.4 178.557 649.381 179.279 649.343 179.925C649.343 180.533 649.343 181.008 649.343 181.35C649.343 182.87 649.685 184.276 650.369 185.568C651.091 186.86 651.965 187.905 652.991 188.703C654.055 189.463 655.1 189.843 656.126 189.843Z" fill="#171E52"/><path d="M675.621 191.61C674.937 191.61 674.234 191.345 673.512 190.812C672.828 190.28 672.239 189.634 671.745 188.874C671.289 188.114 671.061 187.392 671.061 186.708C671.061 185.492 671.384 184.542 672.03 183.858C672.676 183.174 673.702 182.547 675.108 181.977L680.922 179.583C681.682 179.279 682.119 179.013 682.233 178.785C682.385 178.557 682.48 178.063 682.518 177.303L682.632 173.655C682.67 172.667 682.385 171.812 681.777 171.09C681.207 170.368 680.371 170.007 679.269 170.007C678.699 170.007 678.129 170.102 677.559 170.292C676.989 170.482 676.514 170.729 676.134 171.033C675.906 171.185 675.754 171.413 675.678 171.717C675.602 172.021 675.564 172.344 675.564 172.686C675.564 172.838 675.564 173.009 675.564 173.199C675.602 173.389 675.621 173.56 675.621 173.712C675.621 173.902 675.374 174.168 674.88 174.51C674.424 174.814 673.892 175.099 673.284 175.365C672.714 175.593 672.239 175.707 671.859 175.707C671.669 175.707 671.517 175.669 671.403 175.593C671.289 175.479 671.232 175.346 671.232 175.194C671.232 174.586 671.422 173.94 671.802 173.256C672.22 172.534 672.79 171.869 673.512 171.261C674.386 170.463 675.336 169.76 676.362 169.152C677.388 168.544 678.395 168.069 679.383 167.727C680.371 167.385 681.245 167.214 682.005 167.214C683.373 167.214 684.494 167.708 685.368 168.696C686.28 169.646 686.717 170.843 686.679 172.287L686.394 185.967C686.356 186.765 686.527 187.411 686.907 187.905C687.325 188.399 687.838 188.646 688.446 188.646C689.396 188.646 690.099 188.438 690.555 188.02C690.745 187.83 690.897 187.734 691.011 187.734C691.201 187.734 691.353 187.791 691.467 187.905C691.581 188.019 691.638 188.171 691.638 188.361C691.638 188.779 691.429 189.197 691.011 189.615C690.403 190.223 689.738 190.698 689.016 191.04C688.332 191.42 687.686 191.61 687.078 191.61C685.33 191.61 683.943 190.622 682.917 188.646H682.746C681.492 189.672 680.295 190.413 679.155 190.869C678.015 191.363 676.837 191.61 675.621 191.61ZM678.3 188.874C679.06 188.874 679.706 188.761 680.238 188.533C680.77 188.267 681.245 187.925 681.663 187.507C681.853 187.317 682.005 187.069 682.119 186.765C682.271 186.423 682.366 185.891 682.404 185.169L682.518 182.376C682.556 181.958 682.537 181.654 682.461 181.464C682.385 181.274 682.233 181.179 682.005 181.179C681.929 181.179 681.796 181.198 681.606 181.236C681.416 181.274 681.169 181.35 680.865 181.464C678.851 182.186 677.445 182.946 676.647 183.744C675.887 184.504 675.507 185.208 675.507 185.854C675.507 186.842 675.792 187.601 676.362 188.133C676.97 188.627 677.616 188.874 678.3 188.874Z" fill="#171E52"/><path d="M694.512 190.983C694.132 190.983 693.847 190.927 693.657 190.812C693.467 190.736 693.372 190.584 693.372 190.356C693.372 190.052 693.486 189.862 693.714 189.786C693.942 189.672 694.265 189.558 694.683 189.444C695.405 189.254 695.937 188.988 696.279 188.646C696.659 188.266 696.849 187.81 696.849 187.278V175.023C696.849 173.997 696.697 173.104 696.393 172.344C696.089 171.584 695.462 171.109 694.512 170.919C694.36 170.881 694.227 170.786 694.113 170.634C693.999 170.482 693.942 170.33 693.942 170.178C693.942 169.798 694.113 169.57 694.455 169.494C695.443 169.19 696.469 168.753 697.533 168.183C698.635 167.575 699.49 167.081 700.098 166.701C700.326 166.549 700.497 166.454 700.611 166.416C700.763 166.34 700.877 166.302 700.953 166.302C701.143 166.302 701.238 166.435 701.238 166.701C701.238 166.815 701.219 167.1 701.181 167.556C701.181 168.012 701.162 168.544 701.124 169.152C701.124 169.76 701.105 170.368 701.067 170.976C701.067 171.052 701.105 171.09 701.181 171.09C701.789 170.33 702.454 169.665 703.176 169.095C703.936 168.525 704.696 168.069 705.456 167.727C706.254 167.385 707.014 167.214 707.736 167.214C708.534 167.214 709.18 167.385 709.674 167.727C710.206 168.069 710.472 168.506 710.472 169.038C710.472 169.418 710.358 169.836 710.13 170.292C709.94 170.748 709.674 171.147 709.332 171.489C708.99 171.831 708.629 172.002 708.249 172.002C708.021 172.002 707.774 171.964 707.508 171.888C707.242 171.774 706.957 171.641 706.653 171.489C706.349 171.375 706.045 171.261 705.741 171.147C705.437 171.033 705.133 170.976 704.829 170.976C703.917 170.976 703.024 171.299 702.15 171.945C701.314 172.591 700.896 173.864 700.896 175.764V187.278C700.896 187.772 701.162 188.191 701.694 188.533C702.226 188.837 702.967 189.14 703.917 189.444C704.335 189.558 704.658 189.672 704.886 189.786C705.114 189.9 705.228 190.09 705.228 190.356C705.228 190.774 704.848 190.983 704.088 190.983C702.948 190.983 702.074 190.927 701.466 190.812C700.896 190.736 700.117 190.699 699.129 190.699C698.483 190.699 697.951 190.717 697.533 190.755C697.153 190.793 696.735 190.831 696.279 190.869C695.861 190.945 695.272 190.983 694.512 190.983Z" fill="#171E52"/><path d="M724.675 190.983C724.333 190.983 724.048 190.927 723.82 190.812C723.63 190.736 723.535 190.584 723.535 190.356C723.535 190.052 723.649 189.862 723.877 189.786C724.105 189.672 724.428 189.558 724.846 189.444C725.416 189.292 725.967 189.083 726.499 188.817C727.031 188.551 727.297 188.038 727.297 187.278V175.023C727.297 173.997 727.183 173.123 726.955 172.401C726.765 171.679 726.176 171.185 725.188 170.919C725.036 170.843 724.903 170.767 724.789 170.691C724.675 170.577 724.618 170.406 724.618 170.178C724.618 169.76 724.789 169.532 725.131 169.494C726.461 169.152 727.544 168.734 728.38 168.24C729.216 167.746 730.033 167.195 730.831 166.587C730.945 166.511 731.04 166.454 731.116 166.416C731.23 166.34 731.344 166.302 731.458 166.302C731.534 166.302 731.591 166.34 731.629 166.416C731.705 166.492 731.743 166.587 731.743 166.701C731.743 166.967 731.686 167.518 731.572 168.354C731.496 169.152 731.458 169.817 731.458 170.349C731.458 170.501 731.458 170.653 731.458 170.805C731.496 170.919 731.534 170.995 731.572 171.033C732.902 169.779 734.308 168.829 735.79 168.183C737.31 167.537 738.963 167.214 740.749 167.214C742.611 167.214 744.15 167.974 745.366 169.494C746.582 171.014 747.19 172.895 747.19 175.137V187.278C747.19 188.038 747.456 188.551 747.988 188.817C748.52 189.045 749.071 189.254 749.641 189.444C749.945 189.558 750.23 189.691 750.496 189.843C750.8 189.957 750.952 190.166 750.952 190.47C750.952 190.698 750.819 190.831 750.553 190.869C750.287 190.945 750.04 190.983 749.812 190.983C749.052 190.983 748.463 190.945 748.045 190.869C747.627 190.831 747.228 190.793 746.848 190.755C746.468 190.717 745.936 190.699 745.252 190.699C744.606 190.699 744.074 190.717 743.656 190.755C743.238 190.793 742.801 190.831 742.345 190.869C741.927 190.945 741.338 190.983 740.578 190.983C740.388 190.983 740.141 190.945 739.837 190.869C739.571 190.831 739.438 190.698 739.438 190.47C739.438 190.166 739.571 189.957 739.837 189.843C740.141 189.691 740.445 189.558 740.749 189.444C741.319 189.254 741.87 189.045 742.402 188.817C742.934 188.551 743.2 188.038 743.2 187.278V175.308C743.2 173.636 742.725 172.344 741.775 171.432C740.863 170.482 739.628 169.988 738.07 169.95C736.702 169.95 735.505 170.178 734.479 170.634C733.453 171.052 732.541 171.584 731.743 172.23C731.591 172.382 731.477 172.591 731.401 172.857C731.325 173.085 731.287 173.313 731.287 173.541V187.278C731.287 188.038 731.553 188.551 732.085 188.817C732.617 189.083 733.168 189.292 733.738 189.444C734.612 189.672 735.049 189.976 735.049 190.356C735.049 190.584 734.954 190.736 734.764 190.812C734.574 190.927 734.289 190.983 733.909 190.983C733.149 190.983 732.541 190.945 732.085 190.869C731.667 190.831 731.268 190.793 730.888 190.755C730.508 190.717 729.976 190.699 729.292 190.699C728.646 190.699 728.114 190.717 727.696 190.755C727.316 190.793 726.898 190.831 726.442 190.869C726.024 190.945 725.435 190.983 724.675 190.983Z" fill="#171E52"/><path d="M758.95 191.61C758.266 191.61 757.563 191.345 756.841 190.812C756.157 190.28 755.568 189.634 755.074 188.874C754.618 188.114 754.39 187.392 754.39 186.708C754.39 185.492 754.713 184.542 755.359 183.858C756.005 183.174 757.031 182.547 758.437 181.977L764.251 179.583C765.011 179.279 765.448 179.013 765.562 178.785C765.714 178.557 765.809 178.063 765.847 177.303L765.961 173.655C765.999 172.667 765.714 171.812 765.106 171.09C764.536 170.368 763.7 170.007 762.598 170.007C762.028 170.007 761.458 170.102 760.888 170.292C760.318 170.482 759.843 170.729 759.463 171.033C759.235 171.185 759.083 171.413 759.007 171.717C758.931 172.021 758.893 172.344 758.893 172.686C758.893 172.838 758.893 173.009 758.893 173.199C758.931 173.389 758.95 173.56 758.95 173.712C758.95 173.902 758.703 174.168 758.209 174.51C757.753 174.814 757.221 175.099 756.613 175.365C756.043 175.593 755.568 175.707 755.188 175.707C754.998 175.707 754.846 175.669 754.732 175.593C754.618 175.479 754.561 175.346 754.561 175.194C754.561 174.586 754.751 173.94 755.131 173.256C755.549 172.534 756.119 171.869 756.841 171.261C757.715 170.463 758.665 169.76 759.691 169.152C760.717 168.544 761.724 168.069 762.712 167.727C763.7 167.385 764.574 167.214 765.334 167.214C766.702 167.214 767.823 167.708 768.697 168.696C769.609 169.646 770.046 170.843 770.008 172.287L769.723 185.967C769.685 186.765 769.856 187.411 770.236 187.905C770.654 188.399 771.167 188.646 771.775 188.646C772.725 188.646 773.428 188.438 773.884 188.02C774.074 187.83 774.226 187.734 774.34 187.734C774.53 187.734 774.682 187.791 774.796 187.905C774.91 188.019 774.967 188.171 774.967 188.361C774.967 188.779 774.758 189.197 774.34 189.615C773.732 190.223 773.067 190.698 772.345 191.04C771.661 191.42 771.015 191.61 770.407 191.61C768.659 191.61 767.272 190.622 766.246 188.646H766.075C764.821 189.672 763.624 190.413 762.484 190.869C761.344 191.363 760.166 191.61 758.95 191.61ZM761.629 188.874C762.389 188.874 763.035 188.761 763.567 188.533C764.099 188.267 764.574 187.925 764.992 187.507C765.182 187.317 765.334 187.069 765.448 186.765C765.6 186.423 765.695 185.891 765.733 185.169L765.847 182.376C765.885 181.958 765.866 181.654 765.79 181.464C765.714 181.274 765.562 181.179 765.334 181.179C765.258 181.179 765.125 181.198 764.935 181.236C764.745 181.274 764.498 181.35 764.194 181.464C762.18 182.186 760.774 182.946 759.976 183.744C759.216 184.504 758.836 185.208 758.836 185.854C758.836 186.842 759.121 187.601 759.691 188.133C760.299 188.627 760.945 188.874 761.629 188.874Z" fill="#171E52"/><path d="M785.821 191.61C783.959 191.61 782.496 191.04 781.432 189.9C780.406 188.76 779.893 187.069 779.893 184.827V171.603C779.893 171.299 779.779 171.09 779.551 170.976C779.323 170.824 778.829 170.748 778.069 170.748H777.727C777.537 170.748 777.366 170.634 777.214 170.406C777.1 170.14 777.043 169.874 777.043 169.608C777.043 169.532 777.1 169.418 777.214 169.266C777.328 169.114 777.404 169.019 777.442 168.981C778.202 168.449 778.886 167.917 779.494 167.385C780.14 166.853 780.71 166.34 781.204 165.846C781.736 165.314 782.173 164.839 782.515 164.421C782.705 164.231 782.857 164.079 782.971 163.965C783.123 163.813 783.294 163.737 783.484 163.737C783.674 163.737 783.845 163.775 783.997 163.851C784.187 163.927 784.263 164.098 784.225 164.364L783.94 166.929C783.902 167.347 783.997 167.632 784.225 167.784C784.453 167.936 784.814 168.012 785.308 168.012H791.806C791.958 168.012 792.091 168.145 792.205 168.411C792.319 168.639 792.376 168.924 792.376 169.266C792.376 169.608 792.319 169.95 792.205 170.292C792.091 170.596 791.958 170.748 791.806 170.748H786.163C785.213 170.748 784.586 170.824 784.282 170.976C784.016 171.128 783.883 171.584 783.883 172.344V183.573C783.883 185.093 784.206 186.29 784.852 187.164C785.498 188.038 786.429 188.475 787.645 188.475C788.747 188.475 789.602 188.399 790.21 188.247C790.818 188.057 791.369 187.791 791.863 187.449C791.939 187.373 792.015 187.335 792.091 187.335C792.243 187.335 792.338 187.43 792.376 187.62C792.452 187.772 792.49 187.943 792.49 188.133C792.49 188.323 792.167 188.703 791.521 189.273C790.913 189.843 790.096 190.375 789.07 190.869C788.082 191.363 786.999 191.61 785.821 191.61Z" fill="#171E52"/><path d="M813.834 191.895C813.568 191.895 813.435 191.743 813.435 191.439C813.435 191.059 813.473 190.508 813.549 189.786C813.663 189.026 813.72 188.399 813.72 187.905C813.72 187.829 813.72 187.772 813.72 187.734C813.72 187.658 813.72 187.601 813.72 187.563C812.238 189.007 810.737 190.053 809.217 190.699C807.735 191.307 806.101 191.61 804.315 191.61C803.099 191.61 801.997 191.345 801.009 190.812C800.021 190.318 799.242 189.577 798.672 188.589C798.102 187.563 797.817 186.309 797.817 184.827V173.256C797.817 172.42 797.627 171.755 797.247 171.261C796.867 170.767 796.24 170.349 795.366 170.007C795.176 169.931 795.005 169.836 794.853 169.722C794.701 169.608 794.625 169.399 794.625 169.095C794.625 168.753 794.701 168.525 794.853 168.411C795.043 168.297 795.252 168.221 795.48 168.183C796.772 168.107 797.76 168.012 798.444 167.898C799.166 167.746 800.059 167.537 801.123 167.271C801.237 167.233 801.313 167.214 801.351 167.214C801.427 167.214 801.503 167.214 801.579 167.214C801.997 167.214 802.187 167.48 802.149 168.012C802.035 168.886 801.94 169.627 801.864 170.235C801.826 170.805 801.807 171.527 801.807 172.401V183.516C801.807 184.428 802.035 185.283 802.491 186.081C802.947 186.841 803.536 187.468 804.258 187.962C805.018 188.456 805.797 188.703 806.595 188.703C807.583 188.703 808.438 188.647 809.16 188.533C809.92 188.419 810.661 188.095 811.383 187.563C811.801 187.259 812.333 186.765 812.979 186.081C813.625 185.397 813.948 184.466 813.948 183.288V172.857C813.948 172.059 813.701 171.47 813.207 171.09C812.751 170.672 812.219 170.387 811.611 170.235C811.003 170.083 810.509 170.007 810.129 170.007C809.787 170.007 809.502 169.95 809.274 169.836C809.046 169.684 808.932 169.418 808.932 169.038C808.932 168.696 809.046 168.468 809.274 168.354C809.54 168.24 809.825 168.183 810.129 168.183C811.307 168.145 812.276 168.107 813.036 168.069C813.834 167.993 814.537 167.898 815.145 167.784C815.791 167.632 816.456 167.461 817.14 167.271C817.216 167.233 817.311 167.214 817.425 167.214C817.539 167.176 817.634 167.157 817.71 167.157C818.204 167.157 818.451 167.366 818.451 167.784C818.451 167.822 818.432 167.898 818.394 168.012C818.394 168.088 818.375 168.183 818.337 168.297C818.299 168.411 818.242 168.734 818.166 169.266C818.128 169.798 818.071 170.349 817.995 170.919C817.957 171.489 817.938 171.926 817.938 172.23V185.397C817.938 186.423 818.033 187.164 818.223 187.62C818.451 188.038 818.698 188.247 818.964 188.247C819.268 188.247 819.705 188.228 820.275 188.19C820.883 188.114 821.32 188.076 821.586 188.076C821.776 188.076 821.966 188.114 822.156 188.19C822.346 188.266 822.441 188.475 822.441 188.817C822.441 189.121 822.365 189.33 822.213 189.444C822.061 189.52 821.871 189.577 821.643 189.615C820.161 189.805 818.888 190.09 817.824 190.47C816.76 190.85 815.81 191.211 814.974 191.553C814.86 191.591 814.689 191.648 814.461 191.724C814.233 191.838 814.024 191.895 813.834 191.895Z" fill="#171E52"/><path d="M825.823 190.983C825.443 190.983 825.158 190.927 824.968 190.812C824.778 190.736 824.683 190.584 824.683 190.356C824.683 190.052 824.797 189.862 825.025 189.786C825.253 189.672 825.576 189.558 825.994 189.444C826.716 189.254 827.248 188.988 827.59 188.646C827.97 188.266 828.16 187.81 828.16 187.278V175.023C828.16 173.997 828.008 173.104 827.704 172.344C827.4 171.584 826.773 171.109 825.823 170.919C825.671 170.881 825.538 170.786 825.424 170.634C825.31 170.482 825.253 170.33 825.253 170.178C825.253 169.798 825.424 169.57 825.766 169.494C826.754 169.19 827.78 168.753 828.844 168.183C829.946 167.575 830.801 167.081 831.409 166.701C831.637 166.549 831.808 166.454 831.922 166.416C832.074 166.34 832.188 166.302 832.264 166.302C832.454 166.302 832.549 166.435 832.549 166.701C832.549 166.815 832.53 167.1 832.492 167.556C832.492 168.012 832.473 168.544 832.435 169.152C832.435 169.76 832.416 170.368 832.378 170.976C832.378 171.052 832.416 171.09 832.492 171.09C833.1 170.33 833.765 169.665 834.487 169.095C835.247 168.525 836.007 168.069 836.767 167.727C837.565 167.385 838.325 167.214 839.047 167.214C839.845 167.214 840.491 167.385 840.985 167.727C841.517 168.069 841.783 168.506 841.783 169.038C841.783 169.418 841.669 169.836 841.441 170.292C841.251 170.748 840.985 171.147 840.643 171.489C840.301 171.831 839.94 172.002 839.56 172.002C839.332 172.002 839.085 171.964 838.819 171.888C838.553 171.774 838.268 171.641 837.964 171.489C837.66 171.375 837.356 171.261 837.052 171.147C836.748 171.033 836.444 170.976 836.14 170.976C835.228 170.976 834.335 171.299 833.461 171.945C832.625 172.591 832.207 173.864 832.207 175.764V187.278C832.207 187.772 832.473 188.191 833.005 188.533C833.537 188.837 834.278 189.14 835.228 189.444C835.646 189.558 835.969 189.672 836.197 189.786C836.425 189.9 836.539 190.09 836.539 190.356C836.539 190.774 836.159 190.983 835.399 190.983C834.259 190.983 833.385 190.927 832.777 190.812C832.207 190.736 831.428 190.699 830.44 190.699C829.794 190.699 829.262 190.717 828.844 190.755C828.464 190.793 828.046 190.831 827.59 190.869C827.172 190.945 826.583 190.983 825.823 190.983Z" fill="#171E52"/><path d="M854.208 191.667C852.118 191.667 850.294 191.154 848.736 190.128C847.178 189.102 845.962 187.658 845.088 185.796C844.214 183.896 843.777 181.712 843.777 179.242C843.777 177.038 844.271 175.042 845.259 173.256C846.285 171.432 847.634 169.969 849.306 168.867C850.978 167.765 852.802 167.214 854.778 167.214C856.298 167.214 857.647 167.518 858.825 168.126C860.003 168.734 860.915 169.589 861.561 170.691C862.245 171.755 862.587 172.99 862.587 174.396C862.587 175.574 862.017 176.163 860.877 176.163H848.85C848.318 176.163 847.938 176.315 847.71 176.619C847.52 176.885 847.425 177.436 847.425 178.272C847.425 180.096 847.824 181.768 848.622 183.288C849.42 184.77 850.484 185.967 851.814 186.879C853.144 187.753 854.607 188.19 856.203 188.19C857.343 188.19 858.369 187.981 859.281 187.563C860.231 187.107 861.067 186.461 861.789 185.625C861.941 185.435 862.055 185.321 862.131 185.283C862.207 185.207 862.302 185.169 862.416 185.169C862.72 185.169 862.872 185.359 862.872 185.739C862.872 186.461 862.53 187.259 861.846 188.133C861.276 188.855 860.592 189.482 859.794 190.014C858.996 190.546 858.122 190.945 857.172 191.211C856.222 191.515 855.234 191.667 854.208 191.667ZM848.964 174.396H854.151C855.063 174.396 855.842 174.377 856.488 174.339C857.134 174.301 857.761 174.225 858.369 174.111C858.559 174.073 858.673 173.959 858.711 173.769C858.787 173.541 858.825 173.237 858.825 172.857C858.825 171.755 858.331 170.824 857.343 170.064C856.393 169.266 855.253 168.867 853.923 168.867C853.049 168.867 852.175 169.133 851.301 169.665C850.427 170.159 849.705 170.786 849.135 171.546C848.565 172.306 848.28 173.066 848.28 173.826C848.28 174.206 848.508 174.396 848.964 174.396Z" fill="#171E52"/></svg>