<svg width="256" height="256" viewBox="0 0 256 256" fill="none" xmlns="http://www.w3.org/2000/svg">
<path d="M251.87 98.0653H185.432H177.174H168.488C166.585 88.9841 158.52 82.1316 148.868 82.0767C146.941 72.345 138.316 64.9836 127.999 64.9836C117.682 64.9836 109.057 72.3455 107.13 82.0767C97.4785 82.1321 89.4132 88.9841 87.51 98.0653H78.8258H70.5678H4.12902C1.8487 98.0653 0 99.9086 0 102.182C0 132.111 24.4196 156.461 54.4359 156.461H70.7219C72.3719 179.581 87.8139 199.503 110.2 206.795C110.626 206.934 111.058 207 111.483 207C113.221 207 114.838 205.897 115.407 204.16C116.115 201.999 114.932 199.674 112.765 198.968C93.7855 192.786 80.6316 176.006 78.9998 156.461H87.2914C89.368 177.031 106.832 193.142 128 193.142C149.167 193.142 166.631 177.031 168.708 156.461H177C175.368 176.006 162.214 192.786 143.235 198.968C141.067 199.675 139.884 201.999 140.592 204.16C141.161 205.897 142.778 207 144.516 207C144.941 207 145.374 206.934 145.8 206.795C168.186 199.503 183.628 179.581 185.278 156.461H201.564C231.58 156.461 256 132.112 256 102.182C255.999 99.9086 254.151 98.0653 251.87 98.0653ZM107.248 90.3103H110.858H128.626C130.907 90.3103 132.755 88.467 132.755 86.1932C132.755 83.9195 130.907 82.0761 128.626 82.0761H115.662C117.393 76.9342 122.268 73.2173 128 73.2173C135.176 73.2173 141.013 79.0383 141.013 86.1932C141.013 88.467 142.862 90.3103 145.142 90.3103H148.752C155.317 90.3103 160.658 95.6362 160.658 102.182C160.658 108.729 155.317 114.054 148.752 114.054H139.004C134.797 114.054 130.88 115.719 128 118.518C125.12 115.719 121.202 114.054 116.995 114.054H107.248C100.683 114.054 95.3419 108.728 95.3419 102.182C95.3419 95.6362 100.683 90.3103 107.248 90.3103ZM27.7625 139.741H53.8287C56.109 139.741 57.9577 137.897 57.9577 135.624C57.9577 133.35 56.109 131.506 53.8287 131.506H18.8592C16.6972 128.903 14.8215 126.057 13.269 123.02H43.8805C46.1608 123.02 48.0095 121.177 48.0095 118.903C48.0095 116.629 46.1608 114.786 43.8805 114.786H10.017C9.2358 112.052 8.70068 109.215 8.44082 106.3H87.0839V148.227H54.4359C44.5054 148.227 35.3015 145.079 27.7625 139.741ZM95.3419 152.344V118.395C98.6809 120.84 102.797 122.288 107.248 122.288H116.995C119.995 122.288 122.685 124.068 123.871 126.774V184.638C107.807 182.607 95.3419 168.904 95.3419 152.344ZM132.129 184.638V126.775C133.314 124.068 136.004 122.289 139.004 122.289H148.752C153.202 122.289 157.319 120.84 160.658 118.396V152.344C160.658 168.904 148.193 182.607 132.129 184.638ZM168.916 148.227V106.299H247.558C247.298 109.214 246.763 112.051 245.982 114.786H212.118C209.838 114.786 207.989 116.629 207.989 118.903C207.989 121.176 209.838 123.02 212.118 123.02H242.73C241.177 126.057 239.302 128.903 237.14 131.506H202.17C199.89 131.506 198.041 133.349 198.041 135.623C198.041 137.897 199.89 139.74 202.17 139.74H228.236C220.697 145.079 211.494 148.226 201.563 148.226L168.916 148.227Z" fill="white"/>
<path d="M110.176 48.2047C87.7897 55.4968 72.3477 75.4191 70.6978 98.5391L78.9756 98.5385C80.6074 78.9944 93.7614 62.2137 112.741 56.0315C114.908 55.3256 116.091 53.0013 115.383 50.8396C114.814 49.1027 113.197 47.9999 111.459 47.9999C111.034 47.9999 110.602 48.0663 110.176 48.2047Z" fill="white"/>
<path d="M143.211 56.0315C162.19 62.2137 175.344 78.9944 176.975 98.5385L185.254 98.5391C183.603 75.4191 168.162 55.4968 145.775 48.2047C145.349 48.0658 144.917 47.9999 144.492 47.9999C142.754 47.9999 141.137 49.1027 140.568 50.8396C139.86 53.0008 141.043 55.325 143.211 56.0315Z" fill="white"/>
</svg>
