<svg width="863" height="256" viewBox="0 0 863 256" fill="none" xmlns="http://www.w3.org/2000/svg">
<path d="M251.87 98.0653H185.432H177.174H168.488C166.585 88.9841 158.52 82.1316 148.868 82.0767C146.941 72.345 138.316 64.9836 127.999 64.9836C117.682 64.9836 109.057 72.3455 107.13 82.0767C97.4785 82.1321 89.4132 88.9841 87.51 98.0653H78.8258H70.5678H4.12902C1.8487 98.0653 0 99.9086 0 102.182C0 132.111 24.4196 156.461 54.4359 156.461H70.7219C72.3719 179.581 87.8139 199.503 110.2 206.795C110.626 206.934 111.058 207 111.483 207C113.221 207 114.838 205.897 115.407 204.16C116.115 201.999 114.932 199.674 112.765 198.968C93.7855 192.786 80.6316 176.006 78.9998 156.461H87.2914C89.368 177.031 106.832 193.142 128 193.142C149.167 193.142 166.631 177.031 168.708 156.461H177C175.368 176.006 162.214 192.786 143.235 198.968C141.067 199.675 139.884 201.999 140.592 204.16C141.161 205.897 142.778 207 144.516 207C144.941 207 145.374 206.934 145.8 206.795C168.186 199.503 183.628 179.581 185.278 156.461H201.564C231.58 156.461 256 132.112 256 102.182C255.999 99.9086 254.151 98.0653 251.87 98.0653ZM107.248 90.3103H110.858H128.626C130.907 90.3103 132.755 88.467 132.755 86.1932C132.755 83.9195 130.907 82.0761 128.626 82.0761H115.662C117.393 76.9342 122.268 73.2173 128 73.2173C135.176 73.2173 141.013 79.0383 141.013 86.1932C141.013 88.467 142.862 90.3103 145.142 90.3103H148.752C155.317 90.3103 160.658 95.6362 160.658 102.182C160.658 108.729 155.317 114.054 148.752 114.054H139.004C134.797 114.054 130.88 115.719 128 118.518C125.12 115.719 121.202 114.054 116.995 114.054H107.248C100.683 114.054 95.3419 108.728 95.3419 102.182C95.3419 95.6362 100.683 90.3103 107.248 90.3103ZM27.7625 139.741H53.8287C56.109 139.741 57.9577 137.897 57.9577 135.624C57.9577 133.35 56.109 131.506 53.8287 131.506H18.8592C16.6972 128.903 14.8215 126.057 13.269 123.02H43.8805C46.1608 123.02 48.0095 121.177 48.0095 118.903C48.0095 116.629 46.1608 114.786 43.8805 114.786H10.017C9.2358 112.052 8.70068 109.215 8.44082 106.3H87.0839V148.227H54.4359C44.5054 148.227 35.3015 145.079 27.7625 139.741ZM95.3419 152.344V118.395C98.6809 120.84 102.797 122.288 107.248 122.288H116.995C119.995 122.288 122.685 124.068 123.871 126.774V184.638C107.807 182.607 95.3419 168.904 95.3419 152.344ZM132.129 184.638V126.775C133.314 124.068 136.004 122.289 139.004 122.289H148.752C153.202 122.289 157.319 120.84 160.658 118.396V152.344C160.658 168.904 148.193 182.607 132.129 184.638ZM168.916 148.227V106.299H247.558C247.298 109.214 246.763 112.051 245.982 114.786H212.118C209.838 114.786 207.989 116.629 207.989 118.903C207.989 121.176 209.838 123.02 212.118 123.02H242.73C241.177 126.057 239.302 128.903 237.14 131.506H202.17C199.89 131.506 198.041 133.349 198.041 135.623C198.041 137.897 199.89 139.74 202.17 139.74H228.236C220.697 145.079 211.494 148.226 201.563 148.226L168.916 148.227Z" fill="#171E52"/>
<path d="M110.176 48.2047C87.7897 55.4968 72.3477 75.4191 70.6978 98.5391L78.9756 98.5385C80.6074 78.9944 93.7614 62.2137 112.741 56.0315C114.908 55.3256 116.091 53.0013 115.383 50.8396C114.814 49.1027 113.197 47.9999 111.459 47.9999C111.034 47.9999 110.602 48.0663 110.176 48.2047Z" fill="#171E52"/>
<path d="M143.211 56.0315C162.19 62.2137 175.344 78.9944 176.975 98.5385L185.254 98.5391C183.603 75.4191 168.162 55.4968 145.775 48.2047C145.349 48.0658 144.917 47.9999 144.492 47.9999C142.754 47.9999 141.137 49.1027 140.568 50.8396C139.86 53.0008 141.043 55.325 143.211 56.0315Z" fill="#171E52"/>
<path d="M357.637 132.613C351.877 132.613 346.317 131.653 340.957 129.733C335.677 127.813 330.997 125.093 326.917 121.573C322.837 118.053 319.597 113.813 317.197 108.853C314.877 103.893 313.717 98.3726 313.717 92.2926C313.717 86.6126 314.917 81.2926 317.317 76.3326C319.717 71.2926 323.037 66.9326 327.277 63.2526C331.597 59.4926 336.597 56.5726 342.277 54.4926C347.957 52.3326 354.117 51.2526 360.757 51.2526C363.717 51.2526 366.357 51.4126 368.677 51.7326C370.997 51.9726 373.237 52.3326 375.397 52.8126C377.557 53.2926 379.877 53.9326 382.357 54.7326C383.397 55.0526 384.157 55.4926 384.637 56.0526C385.197 56.6126 385.517 57.4526 385.597 58.5726C385.837 60.6526 386.037 62.8126 386.197 65.0526C386.437 67.2926 386.597 69.7726 386.677 72.4926C386.677 73.2126 386.357 73.7326 385.717 74.0526C385.157 74.3726 384.517 74.4526 383.797 74.2926C383.077 74.0526 382.597 73.4926 382.357 72.6126C381.637 69.9726 380.797 67.6126 379.837 65.5326C378.877 63.4526 377.477 61.7326 375.637 60.3726C373.797 58.9326 371.437 57.8126 368.557 57.0126C365.757 56.2126 362.597 55.8126 359.077 55.8126C354.597 55.8126 350.477 56.7326 346.717 58.5726C342.957 60.4126 339.757 62.9326 337.117 66.1326C334.477 69.2526 332.397 72.8126 330.877 76.8126C329.437 80.8126 328.717 84.9726 328.717 89.2926C328.717 94.3326 329.397 99.1726 330.757 103.813C332.197 108.453 334.237 112.573 336.877 116.173C339.597 119.773 342.877 122.653 346.717 124.813C350.557 126.893 354.877 127.933 359.677 127.933C365.437 127.933 370.197 126.653 373.957 124.093C377.717 121.453 380.877 117.693 383.437 112.813C383.997 111.693 384.837 111.133 385.957 111.133C387.077 111.133 387.637 111.773 387.637 113.053C387.637 113.853 387.477 114.973 387.157 116.413C386.917 117.773 386.557 119.293 386.077 120.973C385.597 122.573 385.117 124.053 384.637 125.413C384.157 126.453 383.717 127.173 383.317 127.573C382.917 127.973 382.157 128.373 381.037 128.773C377.997 130.053 374.397 131.013 370.237 131.653C366.157 132.293 361.957 132.613 357.637 132.613Z" fill="#171E52"/>
<path d="M400.952 131.413C399.992 131.413 399.232 131.293 398.672 131.053C398.112 130.813 397.832 130.453 397.832 129.973C397.832 128.933 398.992 128.173 401.312 127.693C404.272 127.053 406.392 126.173 407.672 125.053C409.032 123.853 409.712 121.853 409.712 119.053V64.8126C409.712 62.0926 409.152 60.1326 408.032 58.9326C406.912 57.7326 404.872 56.8526 401.912 56.2926C400.712 56.0526 399.832 55.7326 399.272 55.3326C398.712 54.9326 398.432 54.4526 398.432 53.8926C398.432 53.4126 398.712 53.0526 399.272 52.8126C399.832 52.4926 400.592 52.3326 401.552 52.3326C404.192 52.3326 406.552 52.3726 408.632 52.4526C410.792 52.5326 412.872 52.6126 414.872 52.6926C416.952 52.7726 419.192 52.8126 421.592 52.8126C424.792 52.8126 428.152 52.8126 431.672 52.8126C435.272 52.7326 438.512 52.6526 441.392 52.5726C444.112 52.5726 446.352 52.5326 448.112 52.4526C449.952 52.2926 451.032 52.2126 451.352 52.2126C451.832 52.2126 452.312 52.3326 452.792 52.5726C453.352 52.7326 453.672 53.0926 453.752 53.6526C454.152 56.1326 454.552 58.5726 454.952 60.9726C455.432 63.2926 455.672 65.3326 455.672 67.0926C455.672 67.8926 455.472 68.4526 455.072 68.7726C454.752 69.0126 454.392 69.1326 453.992 69.1326C453.592 69.1326 453.272 69.0126 453.032 68.7726C452.792 68.5326 452.552 68.1726 452.312 67.6926C451.752 66.0926 451.232 64.6526 450.752 63.3726C450.272 62.0126 449.712 61.0126 449.072 60.3726C448.032 59.2526 446.832 58.4126 445.472 57.8526C444.112 57.2926 442.592 57.0126 440.912 57.0126H427.472C426.432 57.0126 425.312 57.4126 424.112 58.2126C422.992 58.9326 422.432 59.9726 422.432 61.3326V85.8126C422.432 86.6126 422.672 87.2526 423.152 87.7326C423.632 88.2126 424.192 88.4526 424.832 88.4526H436.232C438.552 88.4526 440.152 87.9326 441.032 86.8926C441.912 85.8526 442.632 84.2526 443.192 82.0926C443.752 80.4926 444.512 79.6926 445.472 79.6926C445.872 79.6926 446.232 79.8926 446.552 80.2926C446.872 80.6126 447.032 81.1326 447.032 81.8526C447.032 82.3326 446.992 83.1326 446.912 84.2526C446.832 85.3726 446.752 86.5326 446.672 87.7326C446.592 88.9326 446.552 89.8926 446.552 90.6126C446.552 91.4926 446.552 92.5726 446.552 93.8526C446.632 95.0526 446.712 96.2526 446.792 97.4526C446.872 98.6526 446.912 99.5326 446.912 100.093C446.992 100.813 446.912 101.413 446.672 101.893C446.512 102.293 446.232 102.493 445.832 102.493C444.552 102.493 443.592 101.333 442.952 99.0126C442.472 96.9326 441.792 95.3726 440.912 94.3326C440.112 93.2926 438.912 92.7726 437.312 92.7726H426.152C424.872 92.7726 423.912 92.9726 423.272 93.3726C422.712 93.7726 422.432 94.6126 422.432 95.8926V118.813C422.432 121.613 423.032 123.573 424.232 124.693C425.432 125.733 427.272 126.253 429.752 126.253H439.232C441.472 126.253 443.432 126.093 445.112 125.773C446.792 125.453 448.232 124.853 449.432 123.973C450.792 123.013 451.992 121.773 453.032 120.253C454.072 118.733 455.152 116.853 456.272 114.613C456.592 114.133 456.912 113.773 457.232 113.533C457.552 113.213 457.912 113.093 458.312 113.173C458.792 113.173 459.112 113.373 459.272 113.773C459.512 114.093 459.632 114.533 459.632 115.093C459.632 115.973 459.432 117.293 459.032 119.053C458.632 120.813 458.112 122.653 457.472 124.573C456.912 126.493 456.392 128.133 455.912 129.493C455.672 130.053 455.392 130.493 455.072 130.813C454.752 131.213 454.352 131.413 453.872 131.413C450.992 131.413 447.992 131.373 444.872 131.293C441.752 131.213 438.552 131.133 435.272 131.053C431.992 130.973 428.712 130.893 425.432 130.813C422.152 130.733 418.912 130.693 415.712 130.693C414.032 130.693 412.432 130.733 410.912 130.813C409.392 130.973 407.832 131.093 406.232 131.173C404.712 131.333 402.952 131.413 400.952 131.413Z" fill="#171E52"/>
<path d="M539.115 133.333C536.235 133.333 533.635 133.013 531.315 132.373C529.075 131.813 527.035 130.933 525.195 129.733C523.435 128.533 521.835 127.053 520.395 125.293C518.555 122.893 516.755 120.573 514.995 118.333C513.315 116.093 511.555 113.573 509.715 110.773C507.875 107.893 505.715 104.413 503.235 100.333C502.195 98.3326 500.715 96.8526 498.795 95.8926C497.435 95.1726 496.035 94.6926 494.595 94.4526C493.235 94.1326 492.115 93.9326 491.235 93.8526C490.675 93.8526 490.235 94.0926 489.915 94.5726C489.675 94.9726 489.555 95.5326 489.555 96.2526V117.973C489.555 120.533 490.195 122.653 491.475 124.333C492.755 125.933 494.955 127.013 498.075 127.573C499.195 127.813 500.035 128.093 500.595 128.413C501.235 128.733 501.555 129.213 501.555 129.853C501.555 130.333 501.275 130.693 500.715 130.933C500.155 131.173 499.395 131.293 498.435 131.293C496.435 131.293 494.635 131.213 493.035 131.053C491.515 130.973 490.035 130.893 488.595 130.813C487.235 130.653 485.795 130.573 484.275 130.573C482.355 130.573 480.515 130.653 478.755 130.813C477.075 130.893 475.355 130.973 473.595 131.053C471.915 131.213 470.035 131.293 467.955 131.293C467.075 131.293 466.315 131.173 465.675 130.933C465.115 130.773 464.835 130.413 464.835 129.853C464.835 128.813 465.995 128.053 468.315 127.573C471.355 127.013 473.515 126.133 474.795 124.933C476.155 123.733 476.835 121.733 476.835 118.933V66.8526C476.835 64.1326 476.675 62.0926 476.355 60.7326C476.035 59.2926 475.355 58.2926 474.315 57.7326C473.355 57.0926 471.795 56.6126 469.635 56.2926C468.355 56.1326 467.435 55.8526 466.875 55.4526C466.315 54.9726 466.035 54.4526 466.035 53.8926C466.035 53.4126 466.315 53.0526 466.875 52.8126C467.515 52.4926 468.275 52.3326 469.155 52.3326C471.475 52.3326 473.275 52.3726 474.555 52.4526C475.835 52.5326 477.035 52.6126 478.155 52.6926C479.355 52.6926 480.835 52.6926 482.595 52.6926C484.195 52.6926 485.635 52.6526 486.915 52.5726C488.195 52.4126 489.635 52.2926 491.235 52.2126C492.835 52.0526 494.875 51.9726 497.355 51.9726C506.315 51.9726 513.155 53.6126 517.875 56.8926C522.675 60.0926 525.075 64.9726 525.075 71.5326C525.075 75.1326 524.315 78.2126 522.795 80.7726C521.355 83.3326 519.515 85.4526 517.275 87.1326C515.035 88.8126 512.795 90.1326 510.555 91.0926C510.235 91.1726 510.075 91.3726 510.075 91.6926C510.155 91.9326 510.275 92.2526 510.435 92.6526C512.915 96.3326 515.275 99.8526 517.515 103.213C519.835 106.493 522.275 109.693 524.835 112.813C527.475 115.853 530.475 118.933 533.835 122.053C536.075 124.133 538.395 125.373 540.795 125.773C543.275 126.173 545.915 126.373 548.715 126.373C549.915 126.373 550.515 126.933 550.515 128.053C550.515 129.413 549.875 130.453 548.595 131.173C547.395 131.973 545.915 132.533 544.155 132.853C542.395 133.173 540.715 133.333 539.115 133.333ZM495.315 90.7326C498.755 90.7326 501.675 89.9726 504.075 88.4526C506.555 86.8526 508.435 84.7726 509.715 82.2126C511.075 79.5726 511.755 76.7326 511.755 73.6926C511.755 70.2526 511.315 67.2126 510.435 64.5726C509.555 61.9326 507.955 59.8926 505.635 58.4526C503.315 56.9326 499.995 56.1726 495.675 56.1726C493.435 56.1726 491.915 56.9726 491.115 58.5726C490.315 60.0926 489.875 63.0126 489.795 67.3326C489.715 69.2526 489.635 71.8126 489.555 75.0126C489.555 78.2126 489.555 82.0126 489.555 86.4126C489.555 88.3326 490.075 89.5326 491.115 90.0126C492.155 90.4926 493.555 90.7326 495.315 90.7326Z" fill="#171E52"/>
<path d="M593.909 132.493C586.709 132.493 580.669 131.213 575.789 128.653C570.909 126.093 567.229 122.493 564.749 117.853C562.269 113.133 561.029 107.653 561.029 101.413V65.5326C561.029 62.8926 560.469 60.8126 559.349 59.2926C558.309 57.7726 556.989 56.8526 555.389 56.5326C552.829 55.8126 551.549 54.9326 551.549 53.8926C551.549 53.3326 551.869 52.9326 552.509 52.6926C553.149 52.4526 553.949 52.3326 554.909 52.3326C556.989 52.3326 559.109 52.4126 561.269 52.5726C563.429 52.7326 565.629 52.8126 567.869 52.8126C569.869 52.8126 571.949 52.7726 574.109 52.6926C576.269 52.5326 578.189 52.4526 579.869 52.4526C580.909 52.4526 581.709 52.5726 582.269 52.8126C582.909 53.0526 583.229 53.4526 583.229 54.0126C583.229 54.6526 582.789 55.1726 581.909 55.5726C581.109 55.8926 580.029 56.2926 578.669 56.7726C577.629 57.1726 576.549 58.1326 575.429 59.6526C574.389 61.0926 573.869 63.0926 573.869 65.6526V98.5326C573.869 104.613 574.869 109.613 576.869 113.533C578.869 117.453 581.629 120.333 585.149 122.173C588.669 124.013 592.629 124.933 597.029 124.933C604.949 124.933 610.749 122.333 614.429 117.133C618.189 111.853 620.069 104.613 620.069 95.4126C620.069 93.5726 620.069 91.2526 620.069 88.4526C620.069 85.6526 620.029 82.6926 619.949 79.5726C619.949 76.4526 619.909 73.4926 619.829 70.6926C619.749 68.0526 619.509 65.8126 619.109 63.9726C618.789 62.0526 618.229 60.4526 617.429 59.1726C616.629 57.8926 615.589 57.0526 614.309 56.6526C613.509 56.3326 612.589 55.9726 611.549 55.5726C610.589 55.1726 610.109 54.6526 610.109 54.0126C610.109 53.5326 610.429 53.1726 611.069 52.9326C611.709 52.6926 612.549 52.5726 613.589 52.5726C615.829 52.5726 617.589 52.6126 618.869 52.6926C620.149 52.7726 621.709 52.8126 623.549 52.8126C624.909 52.8126 626.109 52.7726 627.149 52.6926C628.269 52.6126 629.349 52.5326 630.389 52.4526C631.429 52.3726 632.509 52.3326 633.629 52.3326C634.589 52.3326 635.389 52.4526 636.029 52.6926C636.669 52.9326 636.989 53.3326 636.989 53.8926C636.989 54.9326 635.749 55.7326 633.269 56.2926C630.949 56.8526 629.309 57.9326 628.349 59.5326C627.469 61.1326 626.949 63.2526 626.789 65.8926C626.389 72.4526 626.149 78.4926 626.069 84.0126C625.989 89.4526 625.869 94.8926 625.709 100.333C625.629 106.573 624.149 112.133 621.269 117.013C618.469 121.893 614.709 125.693 609.989 128.413C605.269 131.133 599.909 132.493 593.909 132.493Z" fill="#171E52"/>
<path d="M644.097 131.413C643.217 131.413 642.497 131.253 641.937 130.933C641.377 130.613 641.097 130.253 641.097 129.853C641.097 129.213 641.417 128.733 642.057 128.413C642.697 128.013 643.217 127.773 643.617 127.693C646.657 126.973 648.897 126.053 650.337 124.933C651.857 123.813 652.617 121.933 652.617 119.293V63.9726C652.617 62.0526 652.417 60.6526 652.017 59.7726C651.617 58.8126 650.857 58.0926 649.737 57.6126C648.697 57.1326 647.177 56.6926 645.177 56.2926C642.857 55.8126 641.697 55.0126 641.697 53.8926C641.697 53.3326 641.977 52.9326 642.537 52.6926C643.177 52.4526 643.937 52.3326 644.817 52.3326C646.817 52.3326 648.617 52.3726 650.217 52.4526C651.817 52.5326 653.337 52.6126 654.777 52.6926C656.217 52.7726 657.817 52.8126 659.577 52.8126C661.417 52.8126 663.177 52.8126 664.857 52.8126C666.537 52.7326 668.257 52.6526 670.017 52.5726C671.777 52.4926 673.657 52.4526 675.657 52.4526C676.617 52.4526 677.337 52.5726 677.817 52.8126C678.377 52.9726 678.657 53.3326 678.657 53.8926C678.657 54.5326 678.377 55.0526 677.817 55.4526C677.257 55.7726 676.377 56.0526 675.177 56.2926C672.137 57.0126 669.737 57.8126 667.977 58.6926C666.217 59.4926 665.337 61.0526 665.337 63.3726V118.933C665.337 121.413 665.857 123.213 666.897 124.333C668.017 125.373 670.257 125.893 673.617 125.893H687.537C689.617 125.893 691.417 125.573 692.937 124.933C694.537 124.293 695.777 123.573 696.657 122.773C698.177 121.413 699.337 120.133 700.137 118.933C701.017 117.653 701.937 115.973 702.897 113.893C703.297 113.013 703.737 112.173 704.217 111.373C704.697 110.573 705.217 110.173 705.777 110.173C706.337 110.173 706.737 110.453 706.977 111.013C707.217 111.493 707.337 111.973 707.337 112.453C707.337 112.613 707.297 112.813 707.217 113.053C707.137 113.293 707.097 113.533 707.097 113.773C706.537 115.933 706.017 117.853 705.537 119.533C705.057 121.213 704.657 122.813 704.337 124.333C704.097 125.853 703.897 127.493 703.737 129.253C703.657 129.813 703.497 130.333 703.257 130.813C703.017 131.213 702.577 131.413 701.937 131.413C698.817 131.413 695.497 131.373 691.977 131.293C688.457 131.213 684.897 131.133 681.297 131.053C677.697 131.053 674.137 131.013 670.617 130.933C667.177 130.853 663.857 130.813 660.657 130.813C658.737 130.813 656.577 130.853 654.177 130.933C651.857 131.013 649.697 131.093 647.697 131.173C645.777 131.333 644.577 131.413 644.097 131.413Z" fill="#171E52"/>
<path d="M715.132 131.413C714.172 131.413 713.412 131.293 712.852 131.053C712.292 130.813 712.012 130.453 712.012 129.973C712.012 128.933 713.172 128.173 715.492 127.693C718.452 127.053 720.572 126.173 721.852 125.053C723.212 123.853 723.892 121.853 723.892 119.053V64.8126C723.892 62.0926 723.332 60.1326 722.212 58.9326C721.092 57.7326 719.052 56.8526 716.092 56.2926C714.892 56.0526 714.012 55.7326 713.452 55.3326C712.892 54.9326 712.612 54.4526 712.612 53.8926C712.612 53.4126 712.892 53.0526 713.452 52.8126C714.012 52.4926 714.772 52.3326 715.732 52.3326C718.372 52.3326 720.732 52.3726 722.812 52.4526C724.972 52.5326 727.052 52.6126 729.052 52.6926C731.132 52.7726 733.372 52.8126 735.772 52.8126C738.972 52.8126 742.332 52.8126 745.852 52.8126C749.452 52.7326 752.692 52.6526 755.572 52.5726C758.292 52.5726 760.532 52.5326 762.292 52.4526C764.132 52.2926 765.212 52.2126 765.532 52.2126C766.012 52.2126 766.492 52.3326 766.972 52.5726C767.532 52.7326 767.852 53.0926 767.932 53.6526C768.332 56.1326 768.732 58.5726 769.132 60.9726C769.612 63.2926 769.852 65.3326 769.852 67.0926C769.852 67.8926 769.652 68.4526 769.252 68.7726C768.932 69.0126 768.572 69.1326 768.172 69.1326C767.772 69.1326 767.452 69.0126 767.212 68.7726C766.972 68.5326 766.732 68.1726 766.492 67.6926C765.932 66.0926 765.412 64.6526 764.932 63.3726C764.452 62.0126 763.892 61.0126 763.252 60.3726C762.212 59.2526 761.012 58.4126 759.652 57.8526C758.292 57.2926 756.772 57.0126 755.092 57.0126H741.652C740.612 57.0126 739.492 57.4126 738.292 58.2126C737.172 58.9326 736.612 59.9726 736.612 61.3326V85.8126C736.612 86.6126 736.852 87.2526 737.332 87.7326C737.812 88.2126 738.372 88.4526 739.012 88.4526H750.412C752.732 88.4526 754.332 87.9326 755.212 86.8926C756.092 85.8526 756.812 84.2526 757.372 82.0926C757.932 80.4926 758.692 79.6926 759.652 79.6926C760.052 79.6926 760.412 79.8926 760.732 80.2926C761.052 80.6126 761.212 81.1326 761.212 81.8526C761.212 82.3326 761.172 83.1326 761.092 84.2526C761.012 85.3726 760.932 86.5326 760.852 87.7326C760.772 88.9326 760.732 89.8926 760.732 90.6126C760.732 91.4926 760.732 92.5726 760.732 93.8526C760.812 95.0526 760.892 96.2526 760.972 97.4526C761.052 98.6526 761.092 99.5326 761.092 100.093C761.172 100.813 761.092 101.413 760.852 101.893C760.692 102.293 760.412 102.493 760.012 102.493C758.732 102.493 757.772 101.333 757.132 99.0126C756.652 96.9326 755.972 95.3726 755.092 94.3326C754.292 93.2926 753.092 92.7726 751.492 92.7726H740.332C739.052 92.7726 738.092 92.9726 737.452 93.3726C736.892 93.7726 736.612 94.6126 736.612 95.8926V118.813C736.612 121.613 737.212 123.573 738.412 124.693C739.612 125.733 741.452 126.253 743.932 126.253H753.412C755.652 126.253 757.612 126.093 759.292 125.773C760.972 125.453 762.412 124.853 763.612 123.973C764.972 123.013 766.172 121.773 767.212 120.253C768.252 118.733 769.332 116.853 770.452 114.613C770.772 114.133 771.092 113.773 771.412 113.533C771.732 113.213 772.092 113.093 772.492 113.173C772.972 113.173 773.292 113.373 773.452 113.773C773.692 114.093 773.812 114.533 773.812 115.093C773.812 115.973 773.612 117.293 773.212 119.053C772.812 120.813 772.292 122.653 771.652 124.573C771.092 126.493 770.572 128.133 770.092 129.493C769.852 130.053 769.572 130.493 769.252 130.813C768.932 131.213 768.532 131.413 768.052 131.413C765.172 131.413 762.172 131.373 759.052 131.293C755.932 131.213 752.732 131.133 749.452 131.053C746.172 130.973 742.892 130.893 739.612 130.813C736.332 130.733 733.092 130.693 729.892 130.693C728.212 130.693 726.612 130.733 725.092 130.813C723.572 130.973 722.012 131.093 720.412 131.173C718.892 131.333 717.132 131.413 715.132 131.413Z" fill="#171E52"/>
<path d="M779.495 131.413C778.535 131.413 777.735 131.253 777.095 130.933C776.455 130.693 776.135 130.293 776.135 129.733C776.135 129.093 776.455 128.573 777.095 128.173C777.735 127.773 778.615 127.373 779.735 126.973C781.895 126.333 783.855 125.373 785.615 124.093C787.375 122.813 788.815 120.853 789.935 118.213C792.095 113.333 794.095 108.693 795.935 104.293C797.775 99.8126 799.535 95.4126 801.215 91.0926C802.895 86.7726 804.615 82.3326 806.375 77.7726C808.135 73.1326 809.935 68.2126 811.775 63.0126C812.495 61.1726 813.015 59.6526 813.335 58.4526C813.655 57.1726 813.855 56.0526 813.935 55.0926C814.975 54.8526 815.935 54.6126 816.815 54.3726C817.695 54.0526 818.655 53.6126 819.695 53.0526C820.655 52.5726 821.375 51.8926 821.855 51.0126C822.415 50.0526 822.855 49.3726 823.175 48.9726C823.335 48.8926 823.495 48.8526 823.655 48.8526C823.895 48.7726 824.095 48.8926 824.255 49.2126C824.495 49.6126 824.655 50.0526 824.735 50.5326C824.895 51.0126 825.055 51.5326 825.215 52.0926C827.055 57.9326 828.935 63.8926 830.855 69.9726C832.855 75.9726 834.815 81.8526 836.735 87.6126C838.655 93.3726 840.455 98.7326 842.135 103.693C843.815 108.573 845.255 112.853 846.455 116.533C847.335 119.173 848.375 121.213 849.575 122.653C850.775 124.013 852.055 125.053 853.415 125.773C854.775 126.413 856.255 126.893 857.855 127.213C859.055 127.453 859.935 127.813 860.495 128.293C861.135 128.773 861.455 129.333 861.455 129.973C861.455 130.453 861.135 130.773 860.495 130.933C859.935 131.173 859.215 131.293 858.335 131.293C857.055 131.293 855.375 131.213 853.295 131.053C851.215 130.973 849.055 130.893 846.815 130.813C844.575 130.733 842.535 130.693 840.695 130.693C839.175 130.693 837.495 130.693 835.655 130.693C833.815 130.693 832.055 130.733 830.375 130.813C828.775 130.893 827.375 130.933 826.175 130.933C825.215 130.933 824.415 130.813 823.775 130.573C823.215 130.253 822.935 129.853 822.935 129.373C822.935 128.733 823.295 128.213 824.015 127.813C824.735 127.413 825.575 127.133 826.535 126.973C829.255 126.493 831.215 125.773 832.415 124.813C833.695 123.853 834.215 122.573 833.975 120.973C833.895 119.613 833.615 117.933 833.135 115.933C832.655 113.853 832.095 111.693 831.455 109.453C830.815 107.133 830.215 105.013 829.655 103.093C829.495 102.453 829.215 102.053 828.815 101.893C828.415 101.733 827.735 101.653 826.775 101.653H804.575C804.175 101.653 803.815 101.813 803.495 102.133C803.175 102.373 802.855 102.893 802.535 103.693C802.295 104.653 801.895 105.893 801.335 107.413C800.855 108.853 800.375 110.413 799.895 112.093C799.415 113.693 798.975 115.213 798.575 116.653C798.255 118.013 798.055 119.013 797.975 119.653C797.735 121.653 798.215 123.253 799.415 124.453C800.695 125.573 802.575 126.453 805.055 127.093C807.455 127.733 808.655 128.533 808.655 129.493C808.655 130.053 808.335 130.453 807.695 130.693C807.135 130.853 806.375 130.933 805.415 130.933C803.895 130.933 802.135 130.893 800.135 130.813C798.135 130.733 796.015 130.693 793.775 130.693C791.215 130.693 788.735 130.813 786.335 131.053C783.935 131.293 781.655 131.413 779.495 131.413ZM807.935 96.7326H825.455C826.575 96.7326 827.135 96.5326 827.135 96.1326C827.135 95.8926 827.095 95.6926 827.015 95.5326C827.015 95.3726 826.975 95.1326 826.895 94.8126L818.015 66.3726C817.615 65.0926 817.295 64.4526 817.055 64.4526C816.895 64.4526 816.615 65.0526 816.215 66.2526L805.775 94.8126C805.615 95.2926 805.535 95.6126 805.535 95.7726C805.535 96.1726 805.735 96.4526 806.135 96.6126C806.615 96.6926 807.215 96.7326 807.935 96.7326Z" fill="#171E52"/>
<path d="M311.653 191.098C311.159 191.098 310.76 191.041 310.456 190.927C310.152 190.851 310 190.699 310 190.471C310 190.015 310.627 189.673 311.881 189.445C313.325 189.179 314.427 188.742 315.187 188.134C315.947 187.526 316.327 186.538 316.327 185.17V159.52C316.327 158.152 316.042 157.145 315.472 156.499C314.902 155.853 313.914 155.473 312.508 155.359C311.862 155.283 311.387 155.15 311.083 154.96C310.779 154.732 310.627 154.485 310.627 154.219C310.627 153.991 310.779 153.839 311.083 153.763C311.387 153.649 311.786 153.592 312.28 153.592C313.306 153.592 314.104 153.592 314.674 153.592C315.244 153.592 315.776 153.611 316.27 153.649C316.802 153.649 317.448 153.649 318.208 153.649C318.93 153.649 319.557 153.63 320.089 153.592C320.621 153.516 321.21 153.459 321.856 153.421C322.54 153.383 323.433 153.364 324.535 153.364C328.981 153.364 332.287 154.01 334.453 155.302C336.657 156.556 337.759 158.741 337.759 161.857C337.759 163.149 337.531 164.289 337.075 165.277C336.657 166.227 336.239 166.911 335.821 167.329C335.213 167.937 334.662 168.412 334.168 168.754C333.674 169.058 332.952 169.4 332.002 169.78C331.85 169.818 331.774 169.913 331.774 170.065C331.774 170.179 331.85 170.274 332.002 170.35C332.876 170.616 333.769 170.958 334.681 171.376C335.631 171.794 336.505 172.345 337.303 173.029C338.139 173.675 338.804 174.549 339.298 175.651C339.83 176.715 340.096 178.083 340.096 179.755C340.096 181.845 339.754 183.498 339.07 184.714C338.424 185.93 337.645 186.861 336.733 187.507C335.821 188.153 334.966 188.685 334.168 189.103C332.99 189.711 331.622 190.186 330.064 190.528C328.506 190.87 326.644 191.041 324.478 191.041C323.984 191.041 323.243 191.003 322.255 190.927C321.267 190.851 320.203 190.813 319.063 190.813C318.075 190.813 317.239 190.832 316.555 190.87C315.871 190.908 315.149 190.946 314.389 190.984C313.667 191.06 312.755 191.098 311.653 191.098ZM325.276 188.704C326.948 188.704 328.506 188.324 329.95 187.564C331.394 186.804 332.553 185.778 333.427 184.486C334.301 183.156 334.738 181.674 334.738 180.04C334.738 178.558 334.491 177.342 333.997 176.392C333.503 175.404 332.933 174.606 332.287 173.998C331.641 173.39 331.052 172.953 330.52 172.687C330.026 172.383 329.247 172.079 328.183 171.775C327.119 171.433 325.732 171.262 324.022 171.262C322.806 171.262 321.951 171.509 321.457 172.003C321.001 172.497 320.773 172.934 320.773 173.314V184.657C320.773 186.253 321.153 187.336 321.913 187.906C322.711 188.438 323.832 188.704 325.276 188.704ZM323.395 169.666C324.421 169.666 325.523 169.552 326.701 169.324C327.917 169.096 329.114 168.659 330.292 168.013C330.71 167.785 331.242 167.234 331.888 166.36C332.534 165.486 332.857 164.232 332.857 162.598C332.857 161.496 332.648 160.375 332.23 159.235C331.812 158.057 331.014 157.069 329.836 156.271C328.658 155.473 326.891 155.074 324.535 155.074C322.977 155.074 321.951 155.283 321.457 155.701C321.001 156.119 320.773 156.765 320.773 157.639V167.557C320.773 168.545 321.096 169.153 321.742 169.381C322.388 169.571 322.939 169.666 323.395 169.666Z" fill="#171E52"/>
<path d="M344.879 190.984C344.537 190.984 344.252 190.927 344.024 190.813C343.834 190.737 343.739 190.585 343.739 190.357C343.739 190.053 343.872 189.844 344.138 189.73C344.442 189.616 344.746 189.521 345.05 189.445C345.848 189.255 346.456 189.027 346.874 188.761C347.292 188.457 347.501 187.963 347.501 187.279V174.91C347.501 173.884 347.311 172.972 346.931 172.174C346.589 171.376 345.924 170.901 344.936 170.749C344.746 170.711 344.594 170.635 344.48 170.521C344.404 170.407 344.366 170.236 344.366 170.008C344.366 169.59 344.537 169.362 344.879 169.324C346.399 168.982 347.653 168.526 348.641 167.956C349.629 167.348 350.37 166.854 350.864 166.474C351.206 166.208 351.472 166.075 351.662 166.075C351.89 166.075 352.004 166.17 352.004 166.36C352.004 166.664 351.947 167.272 351.833 168.184C351.757 169.058 351.681 170.046 351.605 171.148C351.529 172.212 351.491 173.181 351.491 174.055V187.279C351.491 187.925 351.7 188.4 352.118 188.704C352.574 189.008 353.182 189.255 353.942 189.445C354.246 189.521 354.531 189.616 354.797 189.73C355.101 189.844 355.253 190.053 355.253 190.357C355.253 190.775 354.873 190.984 354.113 190.984C353.391 190.984 352.802 190.946 352.346 190.87C351.928 190.832 351.51 190.794 351.092 190.756C350.712 190.718 350.18 190.699 349.496 190.699C348.85 190.699 348.318 190.718 347.9 190.756C347.482 190.794 347.064 190.832 346.646 190.87C346.228 190.946 345.639 190.984 344.879 190.984ZM349.439 161.401C348.641 161.401 347.957 161.135 347.387 160.603C346.855 160.033 346.589 159.349 346.589 158.551C346.589 157.715 346.855 157.031 347.387 156.499C347.957 155.929 348.641 155.644 349.439 155.644C350.275 155.644 350.959 155.929 351.491 156.499C352.061 157.031 352.346 157.715 352.346 158.551C352.346 159.349 352.061 160.033 351.491 160.603C350.959 161.135 350.275 161.401 349.439 161.401Z" fill="#171E52"/>
<path d="M356.4 207.172C356.21 207.172 355.963 207.115 355.659 207.001C355.355 206.925 355.203 206.792 355.203 206.602C355.203 206.374 355.298 206.165 355.488 205.975C355.678 205.785 355.792 205.671 355.83 205.633C356.514 205.443 357.179 205.082 357.825 204.55C358.471 204.018 359.06 203.182 359.592 202.042C360.01 201.168 360.333 200.066 360.561 198.736C360.827 197.444 361.017 196.076 361.131 194.632C361.245 193.188 361.321 191.782 361.359 190.414C361.397 189.046 361.416 187.868 361.416 186.88V174.91C361.416 173.884 361.226 172.991 360.846 172.231C360.466 171.433 359.782 170.939 358.794 170.749C358.642 170.711 358.528 170.616 358.452 170.464C358.376 170.312 358.338 170.16 358.338 170.008C358.338 169.628 358.471 169.4 358.737 169.324C360.181 168.982 361.397 168.507 362.385 167.899C363.373 167.291 364.133 166.816 364.665 166.474C364.855 166.36 365.007 166.265 365.121 166.189C365.273 166.113 365.368 166.075 365.406 166.075C365.672 166.075 365.805 166.17 365.805 166.36C365.691 167.538 365.596 168.982 365.52 170.692C365.444 172.364 365.406 173.846 365.406 175.138V185.626C365.406 186.804 365.368 188.191 365.292 189.787C365.254 191.345 365.121 192.96 364.893 194.632C364.665 196.342 364.266 197.957 363.696 199.477C363.24 200.769 362.575 202.004 361.701 203.182C360.827 204.36 359.915 205.31 358.965 206.032C358.015 206.792 357.16 207.172 356.4 207.172ZM362.955 161.401C362.157 161.401 361.473 161.135 360.903 160.603C360.371 160.033 360.105 159.349 360.105 158.551C360.105 157.715 360.371 157.031 360.903 156.499C361.473 155.929 362.157 155.644 362.955 155.644C363.791 155.644 364.475 155.929 365.007 156.499C365.577 157.031 365.862 157.715 365.862 158.551C365.862 159.349 365.577 160.033 365.007 160.603C364.475 161.135 363.791 161.401 362.955 161.401Z" fill="#171E52"/>
<path d="M382.539 191.611C380.411 191.611 378.492 191.117 376.782 190.129C375.072 189.141 373.704 187.792 372.678 186.082C371.69 184.334 371.196 182.358 371.196 180.154C371.196 178.558 371.5 177 372.108 175.48C372.754 173.96 373.647 172.573 374.787 171.319C375.927 170.065 377.257 169.077 378.777 168.355C380.297 167.595 381.931 167.215 383.679 167.215C385.883 167.215 387.859 167.747 389.607 168.811C391.393 169.875 392.799 171.281 393.825 173.029C394.889 174.739 395.421 176.62 395.421 178.672C395.421 180.876 394.927 182.966 393.939 184.942C392.989 186.918 391.564 188.533 389.664 189.787C387.764 191.003 385.389 191.611 382.539 191.611ZM383.736 189.901C385.028 189.901 386.187 189.654 387.213 189.16C388.239 188.666 389.037 187.868 389.607 186.766C390.063 185.892 390.367 184.828 390.519 183.574C390.671 182.32 390.747 181.142 390.747 180.04C390.747 178.216 390.405 176.468 389.721 174.796C389.075 173.086 388.144 171.699 386.928 170.635C385.75 169.533 384.344 168.982 382.71 168.982C381.684 168.982 380.753 169.153 379.917 169.495C379.119 169.799 378.378 170.388 377.694 171.262C376.934 172.212 376.44 173.371 376.212 174.739C375.984 176.107 375.87 177.475 375.87 178.843C375.87 180.705 376.212 182.491 376.896 184.201C377.58 185.873 378.511 187.241 379.689 188.305C380.867 189.369 382.216 189.901 383.736 189.901Z" fill="#171E52"/>
<path d="M418.285 191.896C418.019 191.896 417.886 191.744 417.886 191.44C417.886 191.06 417.924 190.509 418 189.787C418.114 189.027 418.171 188.4 418.171 187.906C418.171 187.83 418.171 187.773 418.171 187.735C418.171 187.659 418.171 187.602 418.171 187.564C416.689 189.008 415.188 190.053 413.668 190.699C412.186 191.307 410.552 191.611 408.766 191.611C407.55 191.611 406.448 191.345 405.46 190.813C404.472 190.319 403.693 189.578 403.123 188.59C402.553 187.564 402.268 186.31 402.268 184.828V173.257C402.268 172.421 402.078 171.756 401.698 171.262C401.318 170.768 400.691 170.35 399.817 170.008C399.627 169.932 399.456 169.837 399.304 169.723C399.152 169.609 399.076 169.4 399.076 169.096C399.076 168.754 399.152 168.526 399.304 168.412C399.494 168.298 399.703 168.222 399.931 168.184C401.223 168.108 402.211 168.013 402.895 167.899C403.617 167.747 404.51 167.538 405.574 167.272C405.688 167.234 405.764 167.215 405.802 167.215C405.878 167.215 405.954 167.215 406.03 167.215C406.448 167.215 406.638 167.481 406.6 168.013C406.486 168.887 406.391 169.628 406.315 170.236C406.277 170.806 406.258 171.528 406.258 172.402V183.517C406.258 184.429 406.486 185.284 406.942 186.082C407.398 186.842 407.987 187.469 408.709 187.963C409.469 188.457 410.248 188.704 411.046 188.704C412.034 188.704 412.889 188.647 413.611 188.533C414.371 188.419 415.112 188.096 415.834 187.564C416.252 187.26 416.784 186.766 417.43 186.082C418.076 185.398 418.399 184.467 418.399 183.289V172.858C418.399 172.06 418.152 171.471 417.658 171.091C417.202 170.673 416.67 170.388 416.062 170.236C415.454 170.084 414.96 170.008 414.58 170.008C414.238 170.008 413.953 169.951 413.725 169.837C413.497 169.685 413.383 169.419 413.383 169.039C413.383 168.697 413.497 168.469 413.725 168.355C413.991 168.241 414.276 168.184 414.58 168.184C415.758 168.146 416.727 168.108 417.487 168.07C418.285 167.994 418.988 167.899 419.596 167.785C420.242 167.633 420.907 167.462 421.591 167.272C421.667 167.234 421.762 167.215 421.876 167.215C421.99 167.177 422.085 167.158 422.161 167.158C422.655 167.158 422.902 167.367 422.902 167.785C422.902 167.823 422.883 167.899 422.845 168.013C422.845 168.089 422.826 168.184 422.788 168.298C422.75 168.412 422.693 168.735 422.617 169.267C422.579 169.799 422.522 170.35 422.446 170.92C422.408 171.49 422.389 171.927 422.389 172.231V185.398C422.389 186.424 422.484 187.165 422.674 187.621C422.902 188.039 423.149 188.248 423.415 188.248C423.719 188.248 424.156 188.229 424.726 188.191C425.334 188.115 425.771 188.077 426.037 188.077C426.227 188.077 426.417 188.115 426.607 188.191C426.797 188.267 426.892 188.476 426.892 188.818C426.892 189.122 426.816 189.331 426.664 189.445C426.512 189.521 426.322 189.578 426.094 189.616C424.612 189.806 423.339 190.091 422.275 190.471C421.211 190.851 420.261 191.212 419.425 191.554C419.311 191.592 419.14 191.649 418.912 191.725C418.684 191.839 418.475 191.896 418.285 191.896Z" fill="#171E52"/>
<path d="M429.191 191.041C428.963 191.041 428.716 191.003 428.45 190.927C428.184 190.889 428.051 190.756 428.051 190.528C428.051 190.224 428.184 189.996 428.45 189.844C428.754 189.692 429.058 189.578 429.362 189.502C429.932 189.312 430.502 189.008 431.072 188.59C431.68 188.134 432.383 187.355 433.181 186.253L437.57 180.154C437.836 179.85 437.95 179.622 437.912 179.47C437.912 179.28 437.836 179.071 437.684 178.843L433.01 171.718C432.554 170.958 432.136 170.407 431.756 170.065C431.414 169.723 430.958 169.476 430.388 169.324C430.084 169.248 429.78 169.134 429.476 168.982C429.21 168.83 429.077 168.602 429.077 168.298C429.077 167.994 429.248 167.842 429.59 167.842C429.97 167.804 430.236 167.785 430.388 167.785C431.148 167.785 431.661 167.804 431.927 167.842C432.231 167.88 432.573 167.918 432.953 167.956C433.333 167.994 433.979 168.013 434.891 168.013C435.575 168.013 436.069 167.994 436.373 167.956C436.677 167.918 437.152 167.899 437.798 167.899C437.95 167.899 438.197 167.918 438.539 167.956C438.919 167.956 439.109 168.108 439.109 168.412C439.109 168.64 438.995 168.811 438.767 168.925C438.577 169.039 438.349 169.134 438.083 169.21C437.817 169.286 437.551 169.4 437.285 169.552C437.019 169.666 436.886 169.875 436.886 170.179C436.886 170.369 436.943 170.635 437.057 170.977C437.209 171.281 437.399 171.623 437.627 172.003L440.249 175.936C440.401 176.202 440.572 176.202 440.762 175.936L443.669 171.547C443.821 171.357 443.935 171.148 444.011 170.92C444.087 170.692 444.125 170.483 444.125 170.293C444.125 169.837 443.878 169.533 443.384 169.381C443.08 169.267 442.776 169.134 442.472 168.982C442.206 168.83 442.073 168.621 442.073 168.355C442.073 168.051 442.244 167.899 442.586 167.899C442.966 167.861 443.232 167.842 443.384 167.842C443.688 167.842 444.125 167.88 444.695 167.956C445.265 167.994 445.778 168.013 446.234 168.013C447.298 168.013 448.039 167.975 448.457 167.899C448.875 167.785 449.331 167.728 449.825 167.728C450.053 167.728 450.3 167.766 450.566 167.842C450.832 167.88 450.965 168.013 450.965 168.241C450.965 168.507 450.813 168.716 450.509 168.868C450.243 169.02 449.958 169.153 449.654 169.267C449.084 169.419 448.4 169.723 447.602 170.179C446.804 170.597 446.139 171.186 445.607 171.946L442.016 177.361C441.978 177.437 441.94 177.551 441.902 177.703C441.902 177.817 441.959 177.95 442.073 178.102L447.602 187.108C448.058 187.83 448.495 188.362 448.913 188.704C449.331 189.046 449.825 189.312 450.395 189.502C450.699 189.578 450.984 189.692 451.25 189.844C451.554 189.996 451.706 190.224 451.706 190.528C451.706 190.756 451.573 190.889 451.307 190.927C451.041 191.003 450.794 191.041 450.566 191.041C449.806 191.041 449.255 191.022 448.913 190.984C448.571 190.946 448.191 190.908 447.773 190.87C447.393 190.832 446.728 190.813 445.778 190.813C445.094 190.813 444.391 190.832 443.669 190.87C442.947 190.908 442.263 190.927 441.617 190.927C440.743 190.927 440.306 190.737 440.306 190.357C440.306 190.015 440.42 189.768 440.648 189.616C440.914 189.464 441.275 189.331 441.731 189.217C442.149 189.103 442.51 188.951 442.814 188.761C443.156 188.533 443.327 188.229 443.327 187.849C443.327 187.697 443.289 187.545 443.213 187.393C443.175 187.203 443.099 187.013 442.985 186.823L439.622 181.351C439.508 181.237 439.394 181.237 439.28 181.351L435.518 186.994C435.48 187.07 435.423 187.222 435.347 187.45C435.271 187.64 435.233 187.849 435.233 188.077C435.233 188.343 435.29 188.609 435.404 188.875C435.556 189.103 435.765 189.255 436.031 189.331C436.335 189.445 436.62 189.578 436.886 189.73C437.19 189.844 437.342 190.053 437.342 190.357C437.342 190.623 437.152 190.775 436.772 190.813C436.43 190.851 436.183 190.87 436.031 190.87C435.727 190.87 435.252 190.851 434.606 190.813C433.998 190.775 433.466 190.756 433.01 190.756C431.946 190.756 431.167 190.794 430.673 190.87C430.217 190.984 429.723 191.041 429.191 191.041Z" fill="#171E52"/>
<path d="M465.893 190.984C465.551 190.984 465.266 190.927 465.038 190.813C464.848 190.737 464.753 190.585 464.753 190.357C464.753 190.053 464.886 189.844 465.152 189.73C465.456 189.616 465.76 189.521 466.064 189.445C466.862 189.255 467.47 189.027 467.888 188.761C468.306 188.457 468.515 187.963 468.515 187.279V174.91C468.515 173.884 468.325 172.972 467.945 172.174C467.603 171.376 466.938 170.901 465.95 170.749C465.76 170.711 465.608 170.635 465.494 170.521C465.418 170.407 465.38 170.236 465.38 170.008C465.38 169.59 465.551 169.362 465.893 169.324C467.413 168.982 468.667 168.526 469.655 167.956C470.643 167.348 471.384 166.854 471.878 166.474C472.22 166.208 472.486 166.075 472.676 166.075C472.904 166.075 473.018 166.17 473.018 166.36C473.018 166.664 472.961 167.272 472.847 168.184C472.771 169.058 472.695 170.046 472.619 171.148C472.543 172.212 472.505 173.181 472.505 174.055V187.279C472.505 187.925 472.714 188.4 473.132 188.704C473.588 189.008 474.196 189.255 474.956 189.445C475.26 189.521 475.545 189.616 475.811 189.73C476.115 189.844 476.267 190.053 476.267 190.357C476.267 190.775 475.887 190.984 475.127 190.984C474.405 190.984 473.816 190.946 473.36 190.87C472.942 190.832 472.524 190.794 472.106 190.756C471.726 190.718 471.194 190.699 470.51 190.699C469.864 190.699 469.332 190.718 468.914 190.756C468.496 190.794 468.078 190.832 467.66 190.87C467.242 190.946 466.653 190.984 465.893 190.984ZM470.453 161.401C469.655 161.401 468.971 161.135 468.401 160.603C467.869 160.033 467.603 159.349 467.603 158.551C467.603 157.715 467.869 157.031 468.401 156.499C468.971 155.929 469.655 155.644 470.453 155.644C471.289 155.644 471.973 155.929 472.505 156.499C473.075 157.031 473.36 157.715 473.36 158.551C473.36 159.349 473.075 160.033 472.505 160.603C471.973 161.135 471.289 161.401 470.453 161.401Z" fill="#171E52"/>
<path d="M479.864 190.984C479.522 190.984 479.237 190.927 479.009 190.813C478.819 190.737 478.724 190.585 478.724 190.357C478.724 190.053 478.838 189.863 479.066 189.787C479.294 189.673 479.617 189.559 480.035 189.445C480.605 189.293 481.156 189.084 481.688 188.818C482.22 188.552 482.486 188.039 482.486 187.279V175.024C482.486 173.998 482.372 173.124 482.144 172.402C481.954 171.68 481.365 171.186 480.377 170.92C480.225 170.844 480.092 170.768 479.978 170.692C479.864 170.578 479.807 170.407 479.807 170.179C479.807 169.761 479.978 169.533 480.32 169.495C481.65 169.153 482.733 168.735 483.569 168.241C484.405 167.747 485.222 167.196 486.02 166.588C486.134 166.512 486.229 166.455 486.305 166.417C486.419 166.341 486.533 166.303 486.647 166.303C486.723 166.303 486.78 166.341 486.818 166.417C486.894 166.493 486.932 166.588 486.932 166.702C486.932 166.968 486.875 167.519 486.761 168.355C486.685 169.153 486.647 169.818 486.647 170.35C486.647 170.502 486.647 170.654 486.647 170.806C486.685 170.92 486.723 170.996 486.761 171.034C488.091 169.78 489.497 168.83 490.979 168.184C492.499 167.538 494.152 167.215 495.938 167.215C497.8 167.215 499.339 167.975 500.555 169.495C501.771 171.015 502.379 172.896 502.379 175.138V187.279C502.379 188.039 502.645 188.552 503.177 188.818C503.709 189.046 504.26 189.255 504.83 189.445C505.134 189.559 505.419 189.692 505.685 189.844C505.989 189.958 506.141 190.167 506.141 190.471C506.141 190.699 506.008 190.832 505.742 190.87C505.476 190.946 505.229 190.984 505.001 190.984C504.241 190.984 503.652 190.946 503.234 190.87C502.816 190.832 502.417 190.794 502.037 190.756C501.657 190.718 501.125 190.699 500.441 190.699C499.795 190.699 499.263 190.718 498.845 190.756C498.427 190.794 497.99 190.832 497.534 190.87C497.116 190.946 496.527 190.984 495.767 190.984C495.577 190.984 495.33 190.946 495.026 190.87C494.76 190.832 494.627 190.699 494.627 190.471C494.627 190.167 494.76 189.958 495.026 189.844C495.33 189.692 495.634 189.559 495.938 189.445C496.508 189.255 497.059 189.046 497.591 188.818C498.123 188.552 498.389 188.039 498.389 187.279V175.309C498.389 173.637 497.914 172.345 496.964 171.433C496.052 170.483 494.817 169.989 493.259 169.951C491.891 169.951 490.694 170.179 489.668 170.635C488.642 171.053 487.73 171.585 486.932 172.231C486.78 172.383 486.666 172.592 486.59 172.858C486.514 173.086 486.476 173.314 486.476 173.542V187.279C486.476 188.039 486.742 188.552 487.274 188.818C487.806 189.084 488.357 189.293 488.927 189.445C489.801 189.673 490.238 189.977 490.238 190.357C490.238 190.585 490.143 190.737 489.953 190.813C489.763 190.927 489.478 190.984 489.098 190.984C488.338 190.984 487.73 190.946 487.274 190.87C486.856 190.832 486.457 190.794 486.077 190.756C485.697 190.718 485.165 190.699 484.481 190.699C483.835 190.699 483.303 190.718 482.885 190.756C482.505 190.794 482.087 190.832 481.631 190.87C481.213 190.946 480.624 190.984 479.864 190.984Z" fill="#171E52"/>
<path d="M515.679 191.611C514.501 191.611 513.399 191.421 512.373 191.041C511.347 190.699 510.473 190.205 509.751 189.559C509.561 189.141 509.409 188.438 509.295 187.45C509.219 186.462 509.162 185.645 509.124 184.999C509.124 184.657 509.371 184.486 509.865 184.486C510.017 184.486 510.15 184.524 510.264 184.6C510.416 184.638 510.511 184.733 510.549 184.885C511.043 186.747 511.822 188.077 512.886 188.875C513.988 189.673 515.09 190.072 516.192 190.072C517.294 190.072 518.225 189.711 518.985 188.989C519.783 188.229 520.182 187.298 520.182 186.196C520.182 185.17 519.84 184.296 519.156 183.574C518.472 182.814 517.275 181.902 515.565 180.838C514.273 180.04 513.228 179.28 512.43 178.558C511.632 177.836 511.043 177.095 510.663 176.335C510.321 175.575 510.15 174.72 510.15 173.77C510.15 172.554 510.435 171.452 511.005 170.464C511.575 169.476 512.43 168.697 513.57 168.127C514.71 167.519 516.135 167.215 517.845 167.215C518.985 167.215 519.935 167.329 520.695 167.557C521.455 167.785 522.025 168.032 522.405 168.298C522.709 168.716 522.956 169.381 523.146 170.293C523.374 171.167 523.488 172.003 523.488 172.801C523.488 173.067 523.298 173.2 522.918 173.2C522.69 173.2 522.462 173.162 522.234 173.086C522.044 172.972 521.911 172.839 521.835 172.687C521.341 171.433 520.714 170.483 519.954 169.837C519.232 169.153 518.32 168.811 517.218 168.811C516.268 168.811 515.413 169.096 514.653 169.666C513.931 170.236 513.57 171.072 513.57 172.174C513.57 173.048 513.836 173.827 514.368 174.511C514.938 175.195 515.983 175.974 517.503 176.848C519.707 178.102 521.341 179.28 522.405 180.382C523.507 181.446 524.058 182.871 524.058 184.657C524.058 186.709 523.279 188.381 521.721 189.673C520.163 190.965 518.149 191.611 515.679 191.611Z" fill="#171E52"/>
<path d="M528.176 207.058C527.986 207.058 527.739 207.02 527.435 206.944C527.131 206.906 526.979 206.773 526.979 206.545C526.979 206.241 527.112 206.013 527.378 205.861C527.682 205.747 527.986 205.633 528.29 205.519C528.86 205.329 529.411 205.101 529.943 204.835C530.475 204.607 530.741 204.113 530.741 203.353V174.454C530.741 174.15 530.646 173.694 530.456 173.086C530.304 172.478 530.038 171.889 529.658 171.319C529.278 170.749 528.765 170.407 528.119 170.293C527.967 170.255 527.853 170.16 527.777 170.008C527.701 169.856 527.663 169.704 527.663 169.552C527.663 169.362 527.701 169.21 527.777 169.096C527.853 168.982 527.948 168.906 528.062 168.868C529.506 168.526 530.741 168.165 531.767 167.785C532.793 167.367 533.762 166.968 534.674 166.588C534.712 166.588 534.731 166.588 534.731 166.588C534.731 166.55 534.75 166.531 534.788 166.531C534.864 166.531 534.94 166.588 535.016 166.702C535.092 166.816 535.13 166.93 535.13 167.044C535.13 167.386 535.073 167.937 534.959 168.697C534.883 169.419 534.845 170.008 534.845 170.464C534.845 170.768 534.864 170.939 534.902 170.977C535.282 170.597 535.966 170.122 536.954 169.552C537.98 168.944 539.139 168.412 540.431 167.956C541.723 167.462 542.958 167.215 544.136 167.215C546.112 167.215 547.784 167.747 549.152 168.811C550.558 169.837 551.622 171.186 552.344 172.858C553.104 174.492 553.484 176.202 553.484 177.988C553.484 179.698 553.161 181.37 552.515 183.004C551.869 184.6 550.957 186.044 549.779 187.336C548.601 188.628 547.233 189.673 545.675 190.471C544.117 191.231 542.445 191.611 540.659 191.611C540.127 191.611 539.481 191.516 538.721 191.326C537.999 191.174 537.277 190.965 536.555 190.699C535.871 190.433 535.339 190.129 534.959 189.787C534.921 189.787 534.883 190.015 534.845 190.471C534.807 190.889 534.769 191.326 534.731 191.782C534.731 192.276 534.731 192.58 534.731 192.694V203.353C534.731 203.847 534.921 204.227 535.301 204.493C535.719 204.797 536.175 205.006 536.669 205.12C537.201 205.272 537.657 205.405 538.037 205.519C538.341 205.633 538.626 205.747 538.892 205.861C539.196 206.013 539.348 206.241 539.348 206.545C539.348 206.773 539.196 206.906 538.892 206.944C538.588 207.02 538.322 207.058 538.094 207.058C536.992 207.058 536.061 207.001 535.301 206.887C534.579 206.811 533.724 206.773 532.736 206.773C532.09 206.773 531.558 206.792 531.14 206.83C530.76 206.868 530.361 206.906 529.943 206.944C529.525 207.02 528.936 207.058 528.176 207.058ZM541.514 189.844C542.084 189.844 542.768 189.673 543.566 189.331C544.402 188.989 545.219 188.438 546.017 187.678C546.853 186.918 547.537 185.892 548.069 184.6C548.639 183.308 548.924 181.712 548.924 179.812C548.924 177.608 548.639 175.841 548.069 174.511C547.499 173.181 546.796 172.174 545.96 171.49C545.124 170.806 544.269 170.35 543.395 170.122C542.521 169.894 541.78 169.78 541.172 169.78C540.26 169.78 539.31 169.97 538.322 170.35C537.372 170.73 536.555 171.167 535.871 171.661C535.225 172.117 534.902 172.478 534.902 172.744C534.902 173.58 534.883 174.435 534.845 175.309C534.845 176.145 534.826 176.962 534.788 177.76C534.788 178.558 534.769 179.28 534.731 179.926C534.731 180.534 534.731 181.009 534.731 181.351C534.731 182.871 535.073 184.277 535.757 185.569C536.479 186.861 537.353 187.906 538.379 188.704C539.443 189.464 540.488 189.844 541.514 189.844Z" fill="#171E52"/>
<path d="M557.961 190.984C557.619 190.984 557.334 190.927 557.106 190.813C556.916 190.737 556.821 190.585 556.821 190.357C556.821 190.053 556.954 189.844 557.22 189.73C557.524 189.616 557.828 189.521 558.132 189.445C558.93 189.255 559.538 189.027 559.956 188.761C560.374 188.457 560.583 187.963 560.583 187.279V174.91C560.583 173.884 560.393 172.972 560.013 172.174C559.671 171.376 559.006 170.901 558.018 170.749C557.828 170.711 557.676 170.635 557.562 170.521C557.486 170.407 557.448 170.236 557.448 170.008C557.448 169.59 557.619 169.362 557.961 169.324C559.481 168.982 560.735 168.526 561.723 167.956C562.711 167.348 563.452 166.854 563.946 166.474C564.288 166.208 564.554 166.075 564.744 166.075C564.972 166.075 565.086 166.17 565.086 166.36C565.086 166.664 565.029 167.272 564.915 168.184C564.839 169.058 564.763 170.046 564.687 171.148C564.611 172.212 564.573 173.181 564.573 174.055V187.279C564.573 187.925 564.782 188.4 565.2 188.704C565.656 189.008 566.264 189.255 567.024 189.445C567.328 189.521 567.613 189.616 567.879 189.73C568.183 189.844 568.335 190.053 568.335 190.357C568.335 190.775 567.955 190.984 567.195 190.984C566.473 190.984 565.884 190.946 565.428 190.87C565.01 190.832 564.592 190.794 564.174 190.756C563.794 190.718 563.262 190.699 562.578 190.699C561.932 190.699 561.4 190.718 560.982 190.756C560.564 190.794 560.146 190.832 559.728 190.87C559.31 190.946 558.721 190.984 557.961 190.984ZM562.521 161.401C561.723 161.401 561.039 161.135 560.469 160.603C559.937 160.033 559.671 159.349 559.671 158.551C559.671 157.715 559.937 157.031 560.469 156.499C561.039 155.929 561.723 155.644 562.521 155.644C563.357 155.644 564.041 155.929 564.573 156.499C565.143 157.031 565.428 157.715 565.428 158.551C565.428 159.349 565.143 160.033 564.573 160.603C564.041 161.135 563.357 161.401 562.521 161.401Z" fill="#171E52"/>
<path d="M572.218 190.984C571.838 190.984 571.553 190.927 571.363 190.813C571.173 190.737 571.078 190.585 571.078 190.357C571.078 190.053 571.192 189.863 571.42 189.787C571.648 189.673 571.971 189.559 572.389 189.445C573.111 189.255 573.643 188.989 573.985 188.647C574.365 188.267 574.555 187.811 574.555 187.279V175.024C574.555 173.998 574.403 173.105 574.099 172.345C573.795 171.585 573.168 171.11 572.218 170.92C572.066 170.882 571.933 170.787 571.819 170.635C571.705 170.483 571.648 170.331 571.648 170.179C571.648 169.799 571.819 169.571 572.161 169.495C573.149 169.191 574.175 168.754 575.239 168.184C576.341 167.576 577.196 167.082 577.804 166.702C578.032 166.55 578.203 166.455 578.317 166.417C578.469 166.341 578.583 166.303 578.659 166.303C578.849 166.303 578.944 166.436 578.944 166.702C578.944 166.816 578.925 167.101 578.887 167.557C578.887 168.013 578.868 168.545 578.83 169.153C578.83 169.761 578.811 170.369 578.773 170.977C578.773 171.053 578.811 171.091 578.887 171.091C579.495 170.331 580.16 169.666 580.882 169.096C581.642 168.526 582.402 168.07 583.162 167.728C583.96 167.386 584.72 167.215 585.442 167.215C586.24 167.215 586.886 167.386 587.38 167.728C587.912 168.07 588.178 168.507 588.178 169.039C588.178 169.419 588.064 169.837 587.836 170.293C587.646 170.749 587.38 171.148 587.038 171.49C586.696 171.832 586.335 172.003 585.955 172.003C585.727 172.003 585.48 171.965 585.214 171.889C584.948 171.775 584.663 171.642 584.359 171.49C584.055 171.376 583.751 171.262 583.447 171.148C583.143 171.034 582.839 170.977 582.535 170.977C581.623 170.977 580.73 171.3 579.856 171.946C579.02 172.592 578.602 173.865 578.602 175.765V187.279C578.602 187.773 578.868 188.191 579.4 188.533C579.932 188.837 580.673 189.141 581.623 189.445C582.041 189.559 582.364 189.673 582.592 189.787C582.82 189.901 582.934 190.091 582.934 190.357C582.934 190.775 582.554 190.984 581.794 190.984C580.654 190.984 579.78 190.927 579.172 190.813C578.602 190.737 577.823 190.699 576.835 190.699C576.189 190.699 575.657 190.718 575.239 190.756C574.859 190.794 574.441 190.832 573.985 190.87C573.567 190.946 572.978 190.984 572.218 190.984Z" fill="#171E52"/>
<path d="M600.603 191.668C598.513 191.668 596.689 191.155 595.131 190.129C593.573 189.103 592.357 187.659 591.483 185.797C590.609 183.897 590.172 181.712 590.172 179.242C590.172 177.038 590.666 175.043 591.654 173.257C592.68 171.433 594.029 169.97 595.701 168.868C597.373 167.766 599.197 167.215 601.173 167.215C602.693 167.215 604.042 167.519 605.22 168.127C606.398 168.735 607.31 169.59 607.956 170.692C608.64 171.756 608.982 172.991 608.982 174.397C608.982 175.575 608.412 176.164 607.272 176.164H595.245C594.713 176.164 594.333 176.316 594.105 176.62C593.915 176.886 593.82 177.437 593.82 178.273C593.82 180.097 594.219 181.769 595.017 183.289C595.815 184.771 596.879 185.968 598.209 186.88C599.539 187.754 601.002 188.191 602.598 188.191C603.738 188.191 604.764 187.982 605.676 187.564C606.626 187.108 607.462 186.462 608.184 185.626C608.336 185.436 608.45 185.322 608.526 185.284C608.602 185.208 608.697 185.17 608.811 185.17C609.115 185.17 609.267 185.36 609.267 185.74C609.267 186.462 608.925 187.26 608.241 188.134C607.671 188.856 606.987 189.483 606.189 190.015C605.391 190.547 604.517 190.946 603.567 191.212C602.617 191.516 601.629 191.668 600.603 191.668ZM595.359 174.397H600.546C601.458 174.397 602.237 174.378 602.883 174.34C603.529 174.302 604.156 174.226 604.764 174.112C604.954 174.074 605.068 173.96 605.106 173.77C605.182 173.542 605.22 173.238 605.22 172.858C605.22 171.756 604.726 170.825 603.738 170.065C602.788 169.267 601.648 168.868 600.318 168.868C599.444 168.868 598.57 169.134 597.696 169.666C596.822 170.16 596.1 170.787 595.53 171.547C594.96 172.307 594.675 173.067 594.675 173.827C594.675 174.207 594.903 174.397 595.359 174.397ZM599.748 164.764C599.444 164.764 599.292 164.593 599.292 164.251C599.292 164.137 599.311 164.004 599.349 163.852C599.387 163.662 599.444 163.453 599.52 163.225C599.786 162.503 600.204 161.591 600.774 160.489C601.382 159.349 601.971 158.247 602.541 157.183C603.149 156.119 603.605 155.34 603.909 154.846C604.099 154.542 604.327 154.295 604.593 154.105C604.897 153.915 605.182 153.82 605.448 153.82C606.17 153.82 606.816 153.915 607.386 154.105C607.956 154.295 608.241 154.599 608.241 155.017C608.241 155.245 608.184 155.435 608.07 155.587C607.994 155.739 607.861 155.948 607.671 156.214C607.215 156.86 606.588 157.677 605.79 158.665C605.03 159.615 604.251 160.546 603.453 161.458C602.655 162.37 602.009 163.073 601.515 163.567C600.717 164.365 600.128 164.764 599.748 164.764Z" fill="#171E52"/>
<path d="M618.88 191.611C617.702 191.611 616.6 191.421 615.574 191.041C614.548 190.699 613.674 190.205 612.952 189.559C612.762 189.141 612.61 188.438 612.496 187.45C612.42 186.462 612.363 185.645 612.325 184.999C612.325 184.657 612.572 184.486 613.066 184.486C613.218 184.486 613.351 184.524 613.465 184.6C613.617 184.638 613.712 184.733 613.75 184.885C614.244 186.747 615.023 188.077 616.087 188.875C617.189 189.673 618.291 190.072 619.393 190.072C620.495 190.072 621.426 189.711 622.186 188.989C622.984 188.229 623.383 187.298 623.383 186.196C623.383 185.17 623.041 184.296 622.357 183.574C621.673 182.814 620.476 181.902 618.766 180.838C617.474 180.04 616.429 179.28 615.631 178.558C614.833 177.836 614.244 177.095 613.864 176.335C613.522 175.575 613.351 174.72 613.351 173.77C613.351 172.554 613.636 171.452 614.206 170.464C614.776 169.476 615.631 168.697 616.771 168.127C617.911 167.519 619.336 167.215 621.046 167.215C622.186 167.215 623.136 167.329 623.896 167.557C624.656 167.785 625.226 168.032 625.606 168.298C625.91 168.716 626.157 169.381 626.347 170.293C626.575 171.167 626.689 172.003 626.689 172.801C626.689 173.067 626.499 173.2 626.119 173.2C625.891 173.2 625.663 173.162 625.435 173.086C625.245 172.972 625.112 172.839 625.036 172.687C624.542 171.433 623.915 170.483 623.155 169.837C622.433 169.153 621.521 168.811 620.419 168.811C619.469 168.811 618.614 169.096 617.854 169.666C617.132 170.236 616.771 171.072 616.771 172.174C616.771 173.048 617.037 173.827 617.569 174.511C618.139 175.195 619.184 175.974 620.704 176.848C622.908 178.102 624.542 179.28 625.606 180.382C626.708 181.446 627.259 182.871 627.259 184.657C627.259 186.709 626.48 188.381 624.922 189.673C623.364 190.965 621.35 191.611 618.88 191.611Z" fill="#171E52"/>
<path d="M642.788 207.058C642.598 207.058 642.351 207.02 642.047 206.944C641.743 206.906 641.591 206.773 641.591 206.545C641.591 206.241 641.724 206.013 641.99 205.861C642.294 205.747 642.598 205.633 642.902 205.519C643.472 205.329 644.023 205.101 644.555 204.835C645.087 204.607 645.353 204.113 645.353 203.353V174.454C645.353 174.15 645.258 173.694 645.068 173.086C644.916 172.478 644.65 171.889 644.27 171.319C643.89 170.749 643.377 170.407 642.731 170.293C642.579 170.255 642.465 170.16 642.389 170.008C642.313 169.856 642.275 169.704 642.275 169.552C642.275 169.362 642.313 169.21 642.389 169.096C642.465 168.982 642.56 168.906 642.674 168.868C644.118 168.526 645.353 168.165 646.379 167.785C647.405 167.367 648.374 166.968 649.286 166.588C649.324 166.588 649.343 166.588 649.343 166.588C649.343 166.55 649.362 166.531 649.4 166.531C649.476 166.531 649.552 166.588 649.628 166.702C649.704 166.816 649.742 166.93 649.742 167.044C649.742 167.386 649.685 167.937 649.571 168.697C649.495 169.419 649.457 170.008 649.457 170.464C649.457 170.768 649.476 170.939 649.514 170.977C649.894 170.597 650.578 170.122 651.566 169.552C652.592 168.944 653.751 168.412 655.043 167.956C656.335 167.462 657.57 167.215 658.748 167.215C660.724 167.215 662.396 167.747 663.764 168.811C665.17 169.837 666.234 171.186 666.956 172.858C667.716 174.492 668.096 176.202 668.096 177.988C668.096 179.698 667.773 181.37 667.127 183.004C666.481 184.6 665.569 186.044 664.391 187.336C663.213 188.628 661.845 189.673 660.287 190.471C658.729 191.231 657.057 191.611 655.271 191.611C654.739 191.611 654.093 191.516 653.333 191.326C652.611 191.174 651.889 190.965 651.167 190.699C650.483 190.433 649.951 190.129 649.571 189.787C649.533 189.787 649.495 190.015 649.457 190.471C649.419 190.889 649.381 191.326 649.343 191.782C649.343 192.276 649.343 192.58 649.343 192.694V203.353C649.343 203.847 649.533 204.227 649.913 204.493C650.331 204.797 650.787 205.006 651.281 205.12C651.813 205.272 652.269 205.405 652.649 205.519C652.953 205.633 653.238 205.747 653.504 205.861C653.808 206.013 653.96 206.241 653.96 206.545C653.96 206.773 653.808 206.906 653.504 206.944C653.2 207.02 652.934 207.058 652.706 207.058C651.604 207.058 650.673 207.001 649.913 206.887C649.191 206.811 648.336 206.773 647.348 206.773C646.702 206.773 646.17 206.792 645.752 206.83C645.372 206.868 644.973 206.906 644.555 206.944C644.137 207.02 643.548 207.058 642.788 207.058ZM656.126 189.844C656.696 189.844 657.38 189.673 658.178 189.331C659.014 188.989 659.831 188.438 660.629 187.678C661.465 186.918 662.149 185.892 662.681 184.6C663.251 183.308 663.536 181.712 663.536 179.812C663.536 177.608 663.251 175.841 662.681 174.511C662.111 173.181 661.408 172.174 660.572 171.49C659.736 170.806 658.881 170.35 658.007 170.122C657.133 169.894 656.392 169.78 655.784 169.78C654.872 169.78 653.922 169.97 652.934 170.35C651.984 170.73 651.167 171.167 650.483 171.661C649.837 172.117 649.514 172.478 649.514 172.744C649.514 173.58 649.495 174.435 649.457 175.309C649.457 176.145 649.438 176.962 649.4 177.76C649.4 178.558 649.381 179.28 649.343 179.926C649.343 180.534 649.343 181.009 649.343 181.351C649.343 182.871 649.685 184.277 650.369 185.569C651.091 186.861 651.965 187.906 652.991 188.704C654.055 189.464 655.1 189.844 656.126 189.844Z" fill="#171E52"/>
<path d="M675.621 191.611C674.937 191.611 674.234 191.345 673.512 190.813C672.828 190.281 672.239 189.635 671.745 188.875C671.289 188.115 671.061 187.393 671.061 186.709C671.061 185.493 671.384 184.543 672.03 183.859C672.676 183.175 673.702 182.548 675.108 181.978L680.922 179.584C681.682 179.28 682.119 179.014 682.233 178.786C682.385 178.558 682.48 178.064 682.518 177.304L682.632 173.656C682.67 172.668 682.385 171.813 681.777 171.091C681.207 170.369 680.371 170.008 679.269 170.008C678.699 170.008 678.129 170.103 677.559 170.293C676.989 170.483 676.514 170.73 676.134 171.034C675.906 171.186 675.754 171.414 675.678 171.718C675.602 172.022 675.564 172.345 675.564 172.687C675.564 172.839 675.564 173.01 675.564 173.2C675.602 173.39 675.621 173.561 675.621 173.713C675.621 173.903 675.374 174.169 674.88 174.511C674.424 174.815 673.892 175.1 673.284 175.366C672.714 175.594 672.239 175.708 671.859 175.708C671.669 175.708 671.517 175.67 671.403 175.594C671.289 175.48 671.232 175.347 671.232 175.195C671.232 174.587 671.422 173.941 671.802 173.257C672.22 172.535 672.79 171.87 673.512 171.262C674.386 170.464 675.336 169.761 676.362 169.153C677.388 168.545 678.395 168.07 679.383 167.728C680.371 167.386 681.245 167.215 682.005 167.215C683.373 167.215 684.494 167.709 685.368 168.697C686.28 169.647 686.717 170.844 686.679 172.288L686.394 185.968C686.356 186.766 686.527 187.412 686.907 187.906C687.325 188.4 687.838 188.647 688.446 188.647C689.396 188.647 690.099 188.438 690.555 188.02C690.745 187.83 690.897 187.735 691.011 187.735C691.201 187.735 691.353 187.792 691.467 187.906C691.581 188.02 691.638 188.172 691.638 188.362C691.638 188.78 691.429 189.198 691.011 189.616C690.403 190.224 689.738 190.699 689.016 191.041C688.332 191.421 687.686 191.611 687.078 191.611C685.33 191.611 683.943 190.623 682.917 188.647H682.746C681.492 189.673 680.295 190.414 679.155 190.87C678.015 191.364 676.837 191.611 675.621 191.611ZM678.3 188.875C679.06 188.875 679.706 188.761 680.238 188.533C680.77 188.267 681.245 187.925 681.663 187.507C681.853 187.317 682.005 187.07 682.119 186.766C682.271 186.424 682.366 185.892 682.404 185.17L682.518 182.377C682.556 181.959 682.537 181.655 682.461 181.465C682.385 181.275 682.233 181.18 682.005 181.18C681.929 181.18 681.796 181.199 681.606 181.237C681.416 181.275 681.169 181.351 680.865 181.465C678.851 182.187 677.445 182.947 676.647 183.745C675.887 184.505 675.507 185.208 675.507 185.854C675.507 186.842 675.792 187.602 676.362 188.134C676.97 188.628 677.616 188.875 678.3 188.875Z" fill="#171E52"/>
<path d="M694.512 190.984C694.132 190.984 693.847 190.927 693.657 190.813C693.467 190.737 693.372 190.585 693.372 190.357C693.372 190.053 693.486 189.863 693.714 189.787C693.942 189.673 694.265 189.559 694.683 189.445C695.405 189.255 695.937 188.989 696.279 188.647C696.659 188.267 696.849 187.811 696.849 187.279V175.024C696.849 173.998 696.697 173.105 696.393 172.345C696.089 171.585 695.462 171.11 694.512 170.92C694.36 170.882 694.227 170.787 694.113 170.635C693.999 170.483 693.942 170.331 693.942 170.179C693.942 169.799 694.113 169.571 694.455 169.495C695.443 169.191 696.469 168.754 697.533 168.184C698.635 167.576 699.49 167.082 700.098 166.702C700.326 166.55 700.497 166.455 700.611 166.417C700.763 166.341 700.877 166.303 700.953 166.303C701.143 166.303 701.238 166.436 701.238 166.702C701.238 166.816 701.219 167.101 701.181 167.557C701.181 168.013 701.162 168.545 701.124 169.153C701.124 169.761 701.105 170.369 701.067 170.977C701.067 171.053 701.105 171.091 701.181 171.091C701.789 170.331 702.454 169.666 703.176 169.096C703.936 168.526 704.696 168.07 705.456 167.728C706.254 167.386 707.014 167.215 707.736 167.215C708.534 167.215 709.18 167.386 709.674 167.728C710.206 168.07 710.472 168.507 710.472 169.039C710.472 169.419 710.358 169.837 710.13 170.293C709.94 170.749 709.674 171.148 709.332 171.49C708.99 171.832 708.629 172.003 708.249 172.003C708.021 172.003 707.774 171.965 707.508 171.889C707.242 171.775 706.957 171.642 706.653 171.49C706.349 171.376 706.045 171.262 705.741 171.148C705.437 171.034 705.133 170.977 704.829 170.977C703.917 170.977 703.024 171.3 702.15 171.946C701.314 172.592 700.896 173.865 700.896 175.765V187.279C700.896 187.773 701.162 188.191 701.694 188.533C702.226 188.837 702.967 189.141 703.917 189.445C704.335 189.559 704.658 189.673 704.886 189.787C705.114 189.901 705.228 190.091 705.228 190.357C705.228 190.775 704.848 190.984 704.088 190.984C702.948 190.984 702.074 190.927 701.466 190.813C700.896 190.737 700.117 190.699 699.129 190.699C698.483 190.699 697.951 190.718 697.533 190.756C697.153 190.794 696.735 190.832 696.279 190.87C695.861 190.946 695.272 190.984 694.512 190.984Z" fill="#171E52"/>
<path d="M724.675 190.984C724.333 190.984 724.048 190.927 723.82 190.813C723.63 190.737 723.535 190.585 723.535 190.357C723.535 190.053 723.649 189.863 723.877 189.787C724.105 189.673 724.428 189.559 724.846 189.445C725.416 189.293 725.967 189.084 726.499 188.818C727.031 188.552 727.297 188.039 727.297 187.279V175.024C727.297 173.998 727.183 173.124 726.955 172.402C726.765 171.68 726.176 171.186 725.188 170.92C725.036 170.844 724.903 170.768 724.789 170.692C724.675 170.578 724.618 170.407 724.618 170.179C724.618 169.761 724.789 169.533 725.131 169.495C726.461 169.153 727.544 168.735 728.38 168.241C729.216 167.747 730.033 167.196 730.831 166.588C730.945 166.512 731.04 166.455 731.116 166.417C731.23 166.341 731.344 166.303 731.458 166.303C731.534 166.303 731.591 166.341 731.629 166.417C731.705 166.493 731.743 166.588 731.743 166.702C731.743 166.968 731.686 167.519 731.572 168.355C731.496 169.153 731.458 169.818 731.458 170.35C731.458 170.502 731.458 170.654 731.458 170.806C731.496 170.92 731.534 170.996 731.572 171.034C732.902 169.78 734.308 168.83 735.79 168.184C737.31 167.538 738.963 167.215 740.749 167.215C742.611 167.215 744.15 167.975 745.366 169.495C746.582 171.015 747.19 172.896 747.19 175.138V187.279C747.19 188.039 747.456 188.552 747.988 188.818C748.52 189.046 749.071 189.255 749.641 189.445C749.945 189.559 750.23 189.692 750.496 189.844C750.8 189.958 750.952 190.167 750.952 190.471C750.952 190.699 750.819 190.832 750.553 190.87C750.287 190.946 750.04 190.984 749.812 190.984C749.052 190.984 748.463 190.946 748.045 190.87C747.627 190.832 747.228 190.794 746.848 190.756C746.468 190.718 745.936 190.699 745.252 190.699C744.606 190.699 744.074 190.718 743.656 190.756C743.238 190.794 742.801 190.832 742.345 190.87C741.927 190.946 741.338 190.984 740.578 190.984C740.388 190.984 740.141 190.946 739.837 190.87C739.571 190.832 739.438 190.699 739.438 190.471C739.438 190.167 739.571 189.958 739.837 189.844C740.141 189.692 740.445 189.559 740.749 189.445C741.319 189.255 741.87 189.046 742.402 188.818C742.934 188.552 743.2 188.039 743.2 187.279V175.309C743.2 173.637 742.725 172.345 741.775 171.433C740.863 170.483 739.628 169.989 738.07 169.951C736.702 169.951 735.505 170.179 734.479 170.635C733.453 171.053 732.541 171.585 731.743 172.231C731.591 172.383 731.477 172.592 731.401 172.858C731.325 173.086 731.287 173.314 731.287 173.542V187.279C731.287 188.039 731.553 188.552 732.085 188.818C732.617 189.084 733.168 189.293 733.738 189.445C734.612 189.673 735.049 189.977 735.049 190.357C735.049 190.585 734.954 190.737 734.764 190.813C734.574 190.927 734.289 190.984 733.909 190.984C733.149 190.984 732.541 190.946 732.085 190.87C731.667 190.832 731.268 190.794 730.888 190.756C730.508 190.718 729.976 190.699 729.292 190.699C728.646 190.699 728.114 190.718 727.696 190.756C727.316 190.794 726.898 190.832 726.442 190.87C726.024 190.946 725.435 190.984 724.675 190.984Z" fill="#171E52"/>
<path d="M758.95 191.611C758.266 191.611 757.563 191.345 756.841 190.813C756.157 190.281 755.568 189.635 755.074 188.875C754.618 188.115 754.39 187.393 754.39 186.709C754.39 185.493 754.713 184.543 755.359 183.859C756.005 183.175 757.031 182.548 758.437 181.978L764.251 179.584C765.011 179.28 765.448 179.014 765.562 178.786C765.714 178.558 765.809 178.064 765.847 177.304L765.961 173.656C765.999 172.668 765.714 171.813 765.106 171.091C764.536 170.369 763.7 170.008 762.598 170.008C762.028 170.008 761.458 170.103 760.888 170.293C760.318 170.483 759.843 170.73 759.463 171.034C759.235 171.186 759.083 171.414 759.007 171.718C758.931 172.022 758.893 172.345 758.893 172.687C758.893 172.839 758.893 173.01 758.893 173.2C758.931 173.39 758.95 173.561 758.95 173.713C758.95 173.903 758.703 174.169 758.209 174.511C757.753 174.815 757.221 175.1 756.613 175.366C756.043 175.594 755.568 175.708 755.188 175.708C754.998 175.708 754.846 175.67 754.732 175.594C754.618 175.48 754.561 175.347 754.561 175.195C754.561 174.587 754.751 173.941 755.131 173.257C755.549 172.535 756.119 171.87 756.841 171.262C757.715 170.464 758.665 169.761 759.691 169.153C760.717 168.545 761.724 168.07 762.712 167.728C763.7 167.386 764.574 167.215 765.334 167.215C766.702 167.215 767.823 167.709 768.697 168.697C769.609 169.647 770.046 170.844 770.008 172.288L769.723 185.968C769.685 186.766 769.856 187.412 770.236 187.906C770.654 188.4 771.167 188.647 771.775 188.647C772.725 188.647 773.428 188.438 773.884 188.02C774.074 187.83 774.226 187.735 774.34 187.735C774.53 187.735 774.682 187.792 774.796 187.906C774.91 188.02 774.967 188.172 774.967 188.362C774.967 188.78 774.758 189.198 774.34 189.616C773.732 190.224 773.067 190.699 772.345 191.041C771.661 191.421 771.015 191.611 770.407 191.611C768.659 191.611 767.272 190.623 766.246 188.647H766.075C764.821 189.673 763.624 190.414 762.484 190.87C761.344 191.364 760.166 191.611 758.95 191.611ZM761.629 188.875C762.389 188.875 763.035 188.761 763.567 188.533C764.099 188.267 764.574 187.925 764.992 187.507C765.182 187.317 765.334 187.07 765.448 186.766C765.6 186.424 765.695 185.892 765.733 185.17L765.847 182.377C765.885 181.959 765.866 181.655 765.79 181.465C765.714 181.275 765.562 181.18 765.334 181.18C765.258 181.18 765.125 181.199 764.935 181.237C764.745 181.275 764.498 181.351 764.194 181.465C762.18 182.187 760.774 182.947 759.976 183.745C759.216 184.505 758.836 185.208 758.836 185.854C758.836 186.842 759.121 187.602 759.691 188.134C760.299 188.628 760.945 188.875 761.629 188.875Z" fill="#171E52"/>
<path d="M785.821 191.611C783.959 191.611 782.496 191.041 781.432 189.901C780.406 188.761 779.893 187.07 779.893 184.828V171.604C779.893 171.3 779.779 171.091 779.551 170.977C779.323 170.825 778.829 170.749 778.069 170.749H777.727C777.537 170.749 777.366 170.635 777.214 170.407C777.1 170.141 777.043 169.875 777.043 169.609C777.043 169.533 777.1 169.419 777.214 169.267C777.328 169.115 777.404 169.02 777.442 168.982C778.202 168.45 778.886 167.918 779.494 167.386C780.14 166.854 780.71 166.341 781.204 165.847C781.736 165.315 782.173 164.84 782.515 164.422C782.705 164.232 782.857 164.08 782.971 163.966C783.123 163.814 783.294 163.738 783.484 163.738C783.674 163.738 783.845 163.776 783.997 163.852C784.187 163.928 784.263 164.099 784.225 164.365L783.94 166.93C783.902 167.348 783.997 167.633 784.225 167.785C784.453 167.937 784.814 168.013 785.308 168.013H791.806C791.958 168.013 792.091 168.146 792.205 168.412C792.319 168.64 792.376 168.925 792.376 169.267C792.376 169.609 792.319 169.951 792.205 170.293C792.091 170.597 791.958 170.749 791.806 170.749H786.163C785.213 170.749 784.586 170.825 784.282 170.977C784.016 171.129 783.883 171.585 783.883 172.345V183.574C783.883 185.094 784.206 186.291 784.852 187.165C785.498 188.039 786.429 188.476 787.645 188.476C788.747 188.476 789.602 188.4 790.21 188.248C790.818 188.058 791.369 187.792 791.863 187.45C791.939 187.374 792.015 187.336 792.091 187.336C792.243 187.336 792.338 187.431 792.376 187.621C792.452 187.773 792.49 187.944 792.49 188.134C792.49 188.324 792.167 188.704 791.521 189.274C790.913 189.844 790.096 190.376 789.07 190.87C788.082 191.364 786.999 191.611 785.821 191.611Z" fill="#171E52"/>
<path d="M813.834 191.896C813.568 191.896 813.435 191.744 813.435 191.44C813.435 191.06 813.473 190.509 813.549 189.787C813.663 189.027 813.72 188.4 813.72 187.906C813.72 187.83 813.72 187.773 813.72 187.735C813.72 187.659 813.72 187.602 813.72 187.564C812.238 189.008 810.737 190.053 809.217 190.699C807.735 191.307 806.101 191.611 804.315 191.611C803.099 191.611 801.997 191.345 801.009 190.813C800.021 190.319 799.242 189.578 798.672 188.59C798.102 187.564 797.817 186.31 797.817 184.828V173.257C797.817 172.421 797.627 171.756 797.247 171.262C796.867 170.768 796.24 170.35 795.366 170.008C795.176 169.932 795.005 169.837 794.853 169.723C794.701 169.609 794.625 169.4 794.625 169.096C794.625 168.754 794.701 168.526 794.853 168.412C795.043 168.298 795.252 168.222 795.48 168.184C796.772 168.108 797.76 168.013 798.444 167.899C799.166 167.747 800.059 167.538 801.123 167.272C801.237 167.234 801.313 167.215 801.351 167.215C801.427 167.215 801.503 167.215 801.579 167.215C801.997 167.215 802.187 167.481 802.149 168.013C802.035 168.887 801.94 169.628 801.864 170.236C801.826 170.806 801.807 171.528 801.807 172.402V183.517C801.807 184.429 802.035 185.284 802.491 186.082C802.947 186.842 803.536 187.469 804.258 187.963C805.018 188.457 805.797 188.704 806.595 188.704C807.583 188.704 808.438 188.647 809.16 188.533C809.92 188.419 810.661 188.096 811.383 187.564C811.801 187.26 812.333 186.766 812.979 186.082C813.625 185.398 813.948 184.467 813.948 183.289V172.858C813.948 172.06 813.701 171.471 813.207 171.091C812.751 170.673 812.219 170.388 811.611 170.236C811.003 170.084 810.509 170.008 810.129 170.008C809.787 170.008 809.502 169.951 809.274 169.837C809.046 169.685 808.932 169.419 808.932 169.039C808.932 168.697 809.046 168.469 809.274 168.355C809.54 168.241 809.825 168.184 810.129 168.184C811.307 168.146 812.276 168.108 813.036 168.07C813.834 167.994 814.537 167.899 815.145 167.785C815.791 167.633 816.456 167.462 817.14 167.272C817.216 167.234 817.311 167.215 817.425 167.215C817.539 167.177 817.634 167.158 817.71 167.158C818.204 167.158 818.451 167.367 818.451 167.785C818.451 167.823 818.432 167.899 818.394 168.013C818.394 168.089 818.375 168.184 818.337 168.298C818.299 168.412 818.242 168.735 818.166 169.267C818.128 169.799 818.071 170.35 817.995 170.92C817.957 171.49 817.938 171.927 817.938 172.231V185.398C817.938 186.424 818.033 187.165 818.223 187.621C818.451 188.039 818.698 188.248 818.964 188.248C819.268 188.248 819.705 188.229 820.275 188.191C820.883 188.115 821.32 188.077 821.586 188.077C821.776 188.077 821.966 188.115 822.156 188.191C822.346 188.267 822.441 188.476 822.441 188.818C822.441 189.122 822.365 189.331 822.213 189.445C822.061 189.521 821.871 189.578 821.643 189.616C820.161 189.806 818.888 190.091 817.824 190.471C816.76 190.851 815.81 191.212 814.974 191.554C814.86 191.592 814.689 191.649 814.461 191.725C814.233 191.839 814.024 191.896 813.834 191.896Z" fill="#171E52"/>
<path d="M825.823 190.984C825.443 190.984 825.158 190.927 824.968 190.813C824.778 190.737 824.683 190.585 824.683 190.357C824.683 190.053 824.797 189.863 825.025 189.787C825.253 189.673 825.576 189.559 825.994 189.445C826.716 189.255 827.248 188.989 827.59 188.647C827.97 188.267 828.16 187.811 828.16 187.279V175.024C828.16 173.998 828.008 173.105 827.704 172.345C827.4 171.585 826.773 171.11 825.823 170.92C825.671 170.882 825.538 170.787 825.424 170.635C825.31 170.483 825.253 170.331 825.253 170.179C825.253 169.799 825.424 169.571 825.766 169.495C826.754 169.191 827.78 168.754 828.844 168.184C829.946 167.576 830.801 167.082 831.409 166.702C831.637 166.55 831.808 166.455 831.922 166.417C832.074 166.341 832.188 166.303 832.264 166.303C832.454 166.303 832.549 166.436 832.549 166.702C832.549 166.816 832.53 167.101 832.492 167.557C832.492 168.013 832.473 168.545 832.435 169.153C832.435 169.761 832.416 170.369 832.378 170.977C832.378 171.053 832.416 171.091 832.492 171.091C833.1 170.331 833.765 169.666 834.487 169.096C835.247 168.526 836.007 168.07 836.767 167.728C837.565 167.386 838.325 167.215 839.047 167.215C839.845 167.215 840.491 167.386 840.985 167.728C841.517 168.07 841.783 168.507 841.783 169.039C841.783 169.419 841.669 169.837 841.441 170.293C841.251 170.749 840.985 171.148 840.643 171.49C840.301 171.832 839.94 172.003 839.56 172.003C839.332 172.003 839.085 171.965 838.819 171.889C838.553 171.775 838.268 171.642 837.964 171.49C837.66 171.376 837.356 171.262 837.052 171.148C836.748 171.034 836.444 170.977 836.14 170.977C835.228 170.977 834.335 171.3 833.461 171.946C832.625 172.592 832.207 173.865 832.207 175.765V187.279C832.207 187.773 832.473 188.191 833.005 188.533C833.537 188.837 834.278 189.141 835.228 189.445C835.646 189.559 835.969 189.673 836.197 189.787C836.425 189.901 836.539 190.091 836.539 190.357C836.539 190.775 836.159 190.984 835.399 190.984C834.259 190.984 833.385 190.927 832.777 190.813C832.207 190.737 831.428 190.699 830.44 190.699C829.794 190.699 829.262 190.718 828.844 190.756C828.464 190.794 828.046 190.832 827.59 190.87C827.172 190.946 826.583 190.984 825.823 190.984Z" fill="#171E52"/>
<path d="M854.208 191.668C852.118 191.668 850.294 191.155 848.736 190.129C847.178 189.103 845.962 187.659 845.088 185.797C844.214 183.897 843.777 181.712 843.777 179.242C843.777 177.038 844.271 175.043 845.259 173.257C846.285 171.433 847.634 169.97 849.306 168.868C850.978 167.766 852.802 167.215 854.778 167.215C856.298 167.215 857.647 167.519 858.825 168.127C860.003 168.735 860.915 169.59 861.561 170.692C862.245 171.756 862.587 172.991 862.587 174.397C862.587 175.575 862.017 176.164 860.877 176.164H848.85C848.318 176.164 847.938 176.316 847.71 176.62C847.52 176.886 847.425 177.437 847.425 178.273C847.425 180.097 847.824 181.769 848.622 183.289C849.42 184.771 850.484 185.968 851.814 186.88C853.144 187.754 854.607 188.191 856.203 188.191C857.343 188.191 858.369 187.982 859.281 187.564C860.231 187.108 861.067 186.462 861.789 185.626C861.941 185.436 862.055 185.322 862.131 185.284C862.207 185.208 862.302 185.17 862.416 185.17C862.72 185.17 862.872 185.36 862.872 185.74C862.872 186.462 862.53 187.26 861.846 188.134C861.276 188.856 860.592 189.483 859.794 190.015C858.996 190.547 858.122 190.946 857.172 191.212C856.222 191.516 855.234 191.668 854.208 191.668ZM848.964 174.397H854.151C855.063 174.397 855.842 174.378 856.488 174.34C857.134 174.302 857.761 174.226 858.369 174.112C858.559 174.074 858.673 173.96 858.711 173.77C858.787 173.542 858.825 173.238 858.825 172.858C858.825 171.756 858.331 170.825 857.343 170.065C856.393 169.267 855.253 168.868 853.923 168.868C853.049 168.868 852.175 169.134 851.301 169.666C850.427 170.16 849.705 170.787 849.135 171.547C848.565 172.307 848.28 173.067 848.28 173.827C848.28 174.207 848.508 174.397 848.964 174.397Z" fill="#171E52"/>
</svg>
