<svg width="512" height="512" viewBox="0 0 512 512" fill="none" xmlns="http://www.w3.org/2000/svg">
<g id="faviconCeruleaBijoux">
<rect width="512" height="512" rx="256" fill="white"/>
<g id="Frame 5">
<g id="Group">
<path id="Vector" d="M460.144 205.442H349.846H336.136H321.717C318.557 190.307 305.168 178.886 289.145 178.794C285.945 162.575 271.627 150.306 254.499 150.306C237.371 150.306 223.052 162.576 219.853 178.794C203.83 178.887 190.44 190.307 187.28 205.442H172.863H159.154H48.8548C45.0691 205.442 42 208.514 42 212.304C42 262.185 82.5403 302.768 132.372 302.768H159.409C162.149 341.301 187.785 374.505 224.949 386.659C225.656 386.889 226.374 387 227.079 387C229.965 387 232.649 385.162 233.594 382.267C234.77 378.664 232.805 374.791 229.207 373.614C197.699 363.31 175.861 335.342 173.152 302.769H186.917C190.365 337.051 219.358 363.903 254.5 363.903C289.641 363.903 318.633 337.051 322.082 302.769H335.847C333.138 335.342 311.3 363.31 279.792 373.614C276.194 374.791 274.23 378.665 275.405 382.267C276.35 385.162 279.034 387 281.92 387C282.624 387 283.343 386.89 284.05 386.659C321.215 374.505 346.85 341.301 349.591 302.768H376.628C426.459 302.768 467 262.186 467 212.304C466.999 208.514 463.93 205.442 460.144 205.442ZM220.049 192.517H226.041H255.54C259.325 192.517 262.394 189.445 262.394 185.655C262.394 181.866 259.325 178.793 255.54 178.793H234.017C236.89 170.223 244.984 164.029 254.5 164.029C266.413 164.029 276.104 173.73 276.104 185.655C276.104 189.445 279.173 192.517 282.959 192.517H288.951C299.85 192.517 308.718 201.393 308.718 212.304C308.718 223.214 299.85 232.09 288.951 232.09H272.769C265.784 232.09 259.281 234.865 254.5 239.531C249.719 234.865 243.215 232.09 236.23 232.09H220.049C209.15 232.09 200.282 223.213 200.282 212.304C200.282 201.393 209.149 192.517 220.049 192.517ZM88.09 274.901H131.364C135.15 274.901 138.219 271.829 138.219 268.039C138.219 264.25 135.15 261.177 131.364 261.177H73.3092C69.72 256.839 66.6061 252.095 64.0287 247.034H114.849C118.634 247.034 121.703 243.961 121.703 240.172C121.703 236.382 118.634 233.31 114.849 233.31H58.6298C57.3329 228.753 56.4445 224.025 56.0131 219.166H186.573V289.045H132.372C115.886 289.044 100.606 283.798 88.09 274.901ZM200.282 295.906V239.326C205.826 243.4 212.66 245.813 220.049 245.813H236.23C241.211 245.813 245.677 248.779 247.645 253.29V349.729C220.976 346.344 200.282 323.507 200.282 295.906ZM261.354 349.73V253.291C263.322 248.78 267.788 245.814 272.769 245.814H288.951C296.34 245.814 303.174 243.401 308.718 239.326V295.907C308.717 323.507 288.023 346.344 261.354 349.73ZM322.426 289.044V219.166H452.985C452.554 224.024 451.665 228.752 450.368 233.309H394.15C390.364 233.309 387.295 236.381 387.295 240.171C387.295 243.961 390.364 247.033 394.15 247.033H444.97C442.392 252.094 439.278 256.838 435.689 261.176H377.634C373.848 261.176 370.779 264.249 370.779 268.038C370.779 271.828 373.848 274.9 377.634 274.9H420.908C408.392 283.798 393.112 289.043 376.626 289.043L322.426 289.044Z" fill="#171E52"/>
</g>
<g id="Vector_2">
<path d="M224.909 122.341C187.744 134.495 162.108 167.699 159.369 206.232L173.112 206.231C175.821 173.658 197.658 145.69 229.167 135.386C232.765 134.209 234.729 130.336 233.554 126.733C232.609 123.838 229.924 122 227.039 122C226.333 122 225.616 122.111 224.909 122.341Z" fill="#171E52"/>
<path d="M279.752 135.386C311.26 145.69 333.098 173.658 335.807 206.231L349.55 206.232C346.81 167.699 321.175 134.495 284.01 122.341C283.302 122.11 282.584 122 281.879 122C278.994 122 276.31 123.838 275.365 126.733C274.189 130.335 276.153 134.209 279.752 135.386Z" fill="#171E52"/>
</g>
</g>
</g>
</svg>
